<mxfile host="app.diagrams.net" modified="2021-08-24T05:26:11.407Z" agent="5.0 (Macintosh; Intel Mac OS X 10_15_6) AppleWebKit/605.1.15 (KHTML, like Gecko) Version/14.0.3 Safari/605.1.15" etag="b8XkeeKJei4zy4a9ZdcB" version="14.9.8" type="github">
  <diagram name="Page-1" id="e56a1550-8fbb-45ad-956c-1786394a9013">
    <mxGraphModel dx="1221" dy="796" grid="1" gridSize="10" guides="1" tooltips="1" connect="1" arrows="1" fold="1" page="1" pageScale="1" pageWidth="1100" pageHeight="850" background="none" math="0" shadow="0">
      <root>
        <mxCell id="0" />
        <mxCell id="1" parent="0" />
        <mxCell id="bPBm5mIccU5ovsbLlErg-1" value="&lt;b&gt;Database&lt;/b&gt;&lt;br&gt;(TBD, Firebase, etc.)&amp;nbsp;" style="shape=datastore;whiteSpace=wrap;html=1;fillColor=#647687;strokeColor=#314354;fontStyle=0;fontColor=#ffffff;" parent="1" vertex="1">
          <mxGeometry x="450" y="750" width="140" height="80" as="geometry" />
        </mxCell>
        <mxCell id="BZKPCMx8cq8Z6LbfKyMw-2" value="REST API Service" style="swimlane;fontStyle=0;childLayout=stackLayout;horizontal=1;startSize=26;fillColor=#6d8764;horizontalStack=0;resizeParent=1;resizeParentMax=0;resizeLast=0;collapsible=1;marginBottom=0;strokeColor=#3A5431;fontColor=#ffffff;" parent="1" vertex="1">
          <mxGeometry x="450" y="460" width="140" height="260" as="geometry" />
        </mxCell>
        <mxCell id="tv1C9yEHVS2GW3HdmGZH-5" value="Swift / Vapor" style="text;strokeColor=none;fillColor=none;align=left;verticalAlign=top;spacingLeft=4;spacingRight=4;overflow=hidden;rotatable=0;points=[[0,0.5],[1,0.5]];portConstraint=eastwest;" vertex="1" parent="BZKPCMx8cq8Z6LbfKyMw-2">
          <mxGeometry y="26" width="140" height="26" as="geometry" />
        </mxCell>
        <mxCell id="BZKPCMx8cq8Z6LbfKyMw-7" value="PUT Photo Create" style="text;strokeColor=none;fillColor=none;align=left;verticalAlign=top;spacingLeft=4;spacingRight=4;overflow=hidden;rotatable=0;points=[[0,0.5],[1,0.5]];portConstraint=eastwest;" parent="BZKPCMx8cq8Z6LbfKyMw-2" vertex="1">
          <mxGeometry y="52" width="140" height="26" as="geometry" />
        </mxCell>
        <mxCell id="BZKPCMx8cq8Z6LbfKyMw-8" value="GET Photo Get" style="text;strokeColor=none;fillColor=none;align=left;verticalAlign=top;spacingLeft=4;spacingRight=4;overflow=hidden;rotatable=0;points=[[0,0.5],[1,0.5]];portConstraint=eastwest;" parent="BZKPCMx8cq8Z6LbfKyMw-2" vertex="1">
          <mxGeometry y="78" width="140" height="26" as="geometry" />
        </mxCell>
        <mxCell id="BZKPCMx8cq8Z6LbfKyMw-3" value="POST Entry Create" style="text;strokeColor=none;fillColor=none;align=left;verticalAlign=top;spacingLeft=4;spacingRight=4;overflow=hidden;rotatable=0;points=[[0,0.5],[1,0.5]];portConstraint=eastwest;" parent="BZKPCMx8cq8Z6LbfKyMw-2" vertex="1">
          <mxGeometry y="104" width="140" height="26" as="geometry" />
        </mxCell>
        <mxCell id="BZKPCMx8cq8Z6LbfKyMw-54" value="POST Entry Create" style="text;strokeColor=none;fillColor=none;align=left;verticalAlign=top;spacingLeft=4;spacingRight=4;overflow=hidden;rotatable=0;points=[[0,0.5],[1,0.5]];portConstraint=eastwest;" parent="BZKPCMx8cq8Z6LbfKyMw-2" vertex="1">
          <mxGeometry y="130" width="140" height="26" as="geometry" />
        </mxCell>
        <mxCell id="BZKPCMx8cq8Z6LbfKyMw-4" value="GET Entry Read" style="text;strokeColor=none;fillColor=none;align=left;verticalAlign=top;spacingLeft=4;spacingRight=4;overflow=hidden;rotatable=0;points=[[0,0.5],[1,0.5]];portConstraint=eastwest;" parent="BZKPCMx8cq8Z6LbfKyMw-2" vertex="1">
          <mxGeometry y="156" width="140" height="26" as="geometry" />
        </mxCell>
        <mxCell id="BZKPCMx8cq8Z6LbfKyMw-5" value="PUT User Create" style="text;strokeColor=none;fillColor=none;align=left;verticalAlign=top;spacingLeft=4;spacingRight=4;overflow=hidden;rotatable=0;points=[[0,0.5],[1,0.5]];portConstraint=eastwest;" parent="BZKPCMx8cq8Z6LbfKyMw-2" vertex="1">
          <mxGeometry y="182" width="140" height="26" as="geometry" />
        </mxCell>
        <mxCell id="BZKPCMx8cq8Z6LbfKyMw-6" value="POST User Read" style="text;strokeColor=none;fillColor=none;align=left;verticalAlign=top;spacingLeft=4;spacingRight=4;overflow=hidden;rotatable=0;points=[[0,0.5],[1,0.5]];portConstraint=eastwest;" parent="BZKPCMx8cq8Z6LbfKyMw-2" vertex="1">
          <mxGeometry y="208" width="140" height="26" as="geometry" />
        </mxCell>
        <mxCell id="BZKPCMx8cq8Z6LbfKyMw-9" value="etc..." style="text;strokeColor=none;fillColor=none;align=left;verticalAlign=top;spacingLeft=4;spacingRight=4;overflow=hidden;rotatable=0;points=[[0,0.5],[1,0.5]];portConstraint=eastwest;" parent="BZKPCMx8cq8Z6LbfKyMw-2" vertex="1">
          <mxGeometry y="234" width="140" height="26" as="geometry" />
        </mxCell>
        <mxCell id="BZKPCMx8cq8Z6LbfKyMw-10" value="" style="endArrow=classic;html=1;exitX=0.214;exitY=1;exitDx=0;exitDy=0;exitPerimeter=0;entryX=0.209;entryY=0.003;entryDx=0;entryDy=0;entryPerimeter=0;" parent="1" source="BZKPCMx8cq8Z6LbfKyMw-9" target="bPBm5mIccU5ovsbLlErg-1" edge="1">
          <mxGeometry width="50" height="50" relative="1" as="geometry">
            <mxPoint x="400" y="730" as="sourcePoint" />
            <mxPoint x="480" y="710" as="targetPoint" />
          </mxGeometry>
        </mxCell>
        <mxCell id="BZKPCMx8cq8Z6LbfKyMw-12" value="" style="endArrow=classic;html=1;" parent="1" edge="1">
          <mxGeometry width="50" height="50" relative="1" as="geometry">
            <mxPoint x="560" y="756" as="sourcePoint" />
            <mxPoint x="560" y="720" as="targetPoint" />
          </mxGeometry>
        </mxCell>
        <mxCell id="BZKPCMx8cq8Z6LbfKyMw-14" value="Framework Layer (Apple)" style="swimlane;fontStyle=0;childLayout=stackLayout;horizontal=1;startSize=26;horizontalStack=0;resizeParent=1;resizeParentMax=0;resizeLast=0;collapsible=1;marginBottom=0;fillColor=#0050ef;strokeColor=#001DBC;fontColor=#ffffff;" parent="1" vertex="1">
          <mxGeometry x="200" y="250" width="180" height="104" as="geometry" />
        </mxCell>
        <mxCell id="BZKPCMx8cq8Z6LbfKyMw-15" value="Swift Package" style="text;strokeColor=none;fillColor=none;align=left;verticalAlign=top;spacingLeft=4;spacingRight=4;overflow=hidden;rotatable=0;points=[[0,0.5],[1,0.5]];portConstraint=eastwest;" parent="BZKPCMx8cq8Z6LbfKyMw-14" vertex="1">
          <mxGeometry y="26" width="180" height="26" as="geometry" />
        </mxCell>
        <mxCell id="BZKPCMx8cq8Z6LbfKyMw-16" value="Swift" style="text;strokeColor=none;fillColor=none;align=left;verticalAlign=top;spacingLeft=4;spacingRight=4;overflow=hidden;rotatable=0;points=[[0,0.5],[1,0.5]];portConstraint=eastwest;" parent="BZKPCMx8cq8Z6LbfKyMw-14" vertex="1">
          <mxGeometry y="52" width="180" height="26" as="geometry" />
        </mxCell>
        <mxCell id="BZKPCMx8cq8Z6LbfKyMw-17" value="AlamoFire for REST calls" style="text;strokeColor=none;fillColor=none;align=left;verticalAlign=top;spacingLeft=4;spacingRight=4;overflow=hidden;rotatable=0;points=[[0,0.5],[1,0.5]];portConstraint=eastwest;" parent="BZKPCMx8cq8Z6LbfKyMw-14" vertex="1">
          <mxGeometry y="78" width="180" height="26" as="geometry" />
        </mxCell>
        <mxCell id="BZKPCMx8cq8Z6LbfKyMw-18" value="Framework Layer (Android)" style="swimlane;fontStyle=0;childLayout=stackLayout;horizontal=1;startSize=26;horizontalStack=0;resizeParent=1;resizeParentMax=0;resizeLast=0;collapsible=1;marginBottom=0;fillColor=#0050ef;strokeColor=#001DBC;fontColor=#ffffff;" parent="1" vertex="1">
          <mxGeometry x="430" y="250" width="180" height="104" as="geometry" />
        </mxCell>
        <mxCell id="BZKPCMx8cq8Z6LbfKyMw-19" value="Maven Repository" style="text;strokeColor=none;fillColor=none;align=left;verticalAlign=top;spacingLeft=4;spacingRight=4;overflow=hidden;rotatable=0;points=[[0,0.5],[1,0.5]];portConstraint=eastwest;" parent="BZKPCMx8cq8Z6LbfKyMw-18" vertex="1">
          <mxGeometry y="26" width="180" height="26" as="geometry" />
        </mxCell>
        <mxCell id="BZKPCMx8cq8Z6LbfKyMw-20" value="Kotlin" style="text;strokeColor=none;fillColor=none;align=left;verticalAlign=top;spacingLeft=4;spacingRight=4;overflow=hidden;rotatable=0;points=[[0,0.5],[1,0.5]];portConstraint=eastwest;" parent="BZKPCMx8cq8Z6LbfKyMw-18" vertex="1">
          <mxGeometry y="52" width="180" height="26" as="geometry" />
        </mxCell>
        <mxCell id="BZKPCMx8cq8Z6LbfKyMw-21" value="Fuel or OkHttp for REST calls" style="text;strokeColor=none;fillColor=none;align=left;verticalAlign=top;spacingLeft=4;spacingRight=4;overflow=hidden;rotatable=0;points=[[0,0.5],[1,0.5]];portConstraint=eastwest;" parent="BZKPCMx8cq8Z6LbfKyMw-18" vertex="1">
          <mxGeometry y="78" width="180" height="26" as="geometry" />
        </mxCell>
        <mxCell id="BZKPCMx8cq8Z6LbfKyMw-22" value="Framework Layer (Web)" style="swimlane;fontStyle=0;childLayout=stackLayout;horizontal=1;startSize=26;horizontalStack=0;resizeParent=1;resizeParentMax=0;resizeLast=0;collapsible=1;marginBottom=0;fillColor=#0050ef;strokeColor=#001DBC;fontColor=#ffffff;" parent="1" vertex="1">
          <mxGeometry x="680" y="250" width="180" height="130" as="geometry" />
        </mxCell>
        <mxCell id="BZKPCMx8cq8Z6LbfKyMw-23" value="NPM Module" style="text;strokeColor=none;fillColor=none;align=left;verticalAlign=top;spacingLeft=4;spacingRight=4;overflow=hidden;rotatable=0;points=[[0,0.5],[1,0.5]];portConstraint=eastwest;" parent="BZKPCMx8cq8Z6LbfKyMw-22" vertex="1">
          <mxGeometry y="26" width="180" height="26" as="geometry" />
        </mxCell>
        <mxCell id="BZKPCMx8cq8Z6LbfKyMw-24" value="TypeScript" style="text;strokeColor=none;fillColor=none;align=left;verticalAlign=top;spacingLeft=4;spacingRight=4;overflow=hidden;rotatable=0;points=[[0,0.5],[1,0.5]];portConstraint=eastwest;" parent="BZKPCMx8cq8Z6LbfKyMw-22" vertex="1">
          <mxGeometry y="52" width="180" height="26" as="geometry" />
        </mxCell>
        <mxCell id="BZKPCMx8cq8Z6LbfKyMw-25" value="Redux" style="text;strokeColor=none;fillColor=none;align=left;verticalAlign=top;spacingLeft=4;spacingRight=4;overflow=hidden;rotatable=0;points=[[0,0.5],[1,0.5]];portConstraint=eastwest;" parent="BZKPCMx8cq8Z6LbfKyMw-22" vertex="1">
          <mxGeometry y="78" width="180" height="26" as="geometry" />
        </mxCell>
        <mxCell id="BZKPCMx8cq8Z6LbfKyMw-26" value="Axios for REST calls" style="text;strokeColor=none;fillColor=none;align=left;verticalAlign=top;spacingLeft=4;spacingRight=4;overflow=hidden;rotatable=0;points=[[0,0.5],[1,0.5]];portConstraint=eastwest;" parent="BZKPCMx8cq8Z6LbfKyMw-22" vertex="1">
          <mxGeometry y="104" width="180" height="26" as="geometry" />
        </mxCell>
        <mxCell id="BZKPCMx8cq8Z6LbfKyMw-27" value="Apple Frontend (iOS, etc.)" style="swimlane;fontStyle=0;childLayout=stackLayout;horizontal=1;startSize=26;horizontalStack=0;resizeParent=1;resizeParentMax=0;resizeLast=0;collapsible=1;marginBottom=0;fillColor=#f0a30a;strokeColor=#BD7000;fontColor=#000000;" parent="1" vertex="1">
          <mxGeometry x="200" y="90" width="180" height="104" as="geometry" />
        </mxCell>
        <mxCell id="BZKPCMx8cq8Z6LbfKyMw-28" value="Swift" style="text;strokeColor=none;fillColor=none;align=left;verticalAlign=top;spacingLeft=4;spacingRight=4;overflow=hidden;rotatable=0;points=[[0,0.5],[1,0.5]];portConstraint=eastwest;" parent="BZKPCMx8cq8Z6LbfKyMw-27" vertex="1">
          <mxGeometry y="26" width="180" height="26" as="geometry" />
        </mxCell>
        <mxCell id="BZKPCMx8cq8Z6LbfKyMw-29" value="SwiftUI" style="text;strokeColor=none;fillColor=none;align=left;verticalAlign=top;spacingLeft=4;spacingRight=4;overflow=hidden;rotatable=0;points=[[0,0.5],[1,0.5]];portConstraint=eastwest;" parent="BZKPCMx8cq8Z6LbfKyMw-27" vertex="1">
          <mxGeometry y="52" width="180" height="26" as="geometry" />
        </mxCell>
        <mxCell id="BZKPCMx8cq8Z6LbfKyMw-30" value="Combine" style="text;strokeColor=none;fillColor=none;align=left;verticalAlign=top;spacingLeft=4;spacingRight=4;overflow=hidden;rotatable=0;points=[[0,0.5],[1,0.5]];portConstraint=eastwest;" parent="BZKPCMx8cq8Z6LbfKyMw-27" vertex="1">
          <mxGeometry y="78" width="180" height="26" as="geometry" />
        </mxCell>
        <mxCell id="BZKPCMx8cq8Z6LbfKyMw-35" value="Android Frontend" style="swimlane;fontStyle=0;childLayout=stackLayout;horizontal=1;startSize=26;horizontalStack=0;resizeParent=1;resizeParentMax=0;resizeLast=0;collapsible=1;marginBottom=0;fillColor=#f0a30a;strokeColor=#BD7000;fontColor=#000000;" parent="1" vertex="1">
          <mxGeometry x="430" y="90" width="180" height="104" as="geometry" />
        </mxCell>
        <mxCell id="BZKPCMx8cq8Z6LbfKyMw-36" value="Kotlin" style="text;strokeColor=none;fillColor=none;align=left;verticalAlign=top;spacingLeft=4;spacingRight=4;overflow=hidden;rotatable=0;points=[[0,0.5],[1,0.5]];portConstraint=eastwest;" parent="BZKPCMx8cq8Z6LbfKyMw-35" vertex="1">
          <mxGeometry y="26" width="180" height="26" as="geometry" />
        </mxCell>
        <mxCell id="BZKPCMx8cq8Z6LbfKyMw-37" value="Jetpack Compose" style="text;strokeColor=none;fillColor=none;align=left;verticalAlign=top;spacingLeft=4;spacingRight=4;overflow=hidden;rotatable=0;points=[[0,0.5],[1,0.5]];portConstraint=eastwest;" parent="BZKPCMx8cq8Z6LbfKyMw-35" vertex="1">
          <mxGeometry y="52" width="180" height="26" as="geometry" />
        </mxCell>
        <mxCell id="BZKPCMx8cq8Z6LbfKyMw-38" value="RXKotlin" style="text;strokeColor=none;fillColor=none;align=left;verticalAlign=top;spacingLeft=4;spacingRight=4;overflow=hidden;rotatable=0;points=[[0,0.5],[1,0.5]];portConstraint=eastwest;" parent="BZKPCMx8cq8Z6LbfKyMw-35" vertex="1">
          <mxGeometry y="78" width="180" height="26" as="geometry" />
        </mxCell>
        <mxCell id="BZKPCMx8cq8Z6LbfKyMw-39" value="Web Frontend" style="swimlane;fontStyle=0;childLayout=stackLayout;horizontal=1;startSize=26;horizontalStack=0;resizeParent=1;resizeParentMax=0;resizeLast=0;collapsible=1;marginBottom=0;fillColor=#f0a30a;strokeColor=#BD7000;fontColor=#000000;" parent="1" vertex="1">
          <mxGeometry x="680" y="90" width="180" height="104" as="geometry" />
        </mxCell>
        <mxCell id="BZKPCMx8cq8Z6LbfKyMw-40" value="TypeScript" style="text;strokeColor=none;fillColor=none;align=left;verticalAlign=top;spacingLeft=4;spacingRight=4;overflow=hidden;rotatable=0;points=[[0,0.5],[1,0.5]];portConstraint=eastwest;" parent="BZKPCMx8cq8Z6LbfKyMw-39" vertex="1">
          <mxGeometry y="26" width="180" height="26" as="geometry" />
        </mxCell>
        <mxCell id="BZKPCMx8cq8Z6LbfKyMw-41" value="ReactJS" style="text;strokeColor=none;fillColor=none;align=left;verticalAlign=top;spacingLeft=4;spacingRight=4;overflow=hidden;rotatable=0;points=[[0,0.5],[1,0.5]];portConstraint=eastwest;" parent="BZKPCMx8cq8Z6LbfKyMw-39" vertex="1">
          <mxGeometry y="52" width="180" height="26" as="geometry" />
        </mxCell>
        <mxCell id="BZKPCMx8cq8Z6LbfKyMw-42" value="Redux" style="text;strokeColor=none;fillColor=none;align=left;verticalAlign=top;spacingLeft=4;spacingRight=4;overflow=hidden;rotatable=0;points=[[0,0.5],[1,0.5]];portConstraint=eastwest;" parent="BZKPCMx8cq8Z6LbfKyMw-39" vertex="1">
          <mxGeometry y="78" width="180" height="26" as="geometry" />
        </mxCell>
        <mxCell id="BZKPCMx8cq8Z6LbfKyMw-44" value="" style="endArrow=classic;startArrow=classic;html=1;exitX=0.25;exitY=0;exitDx=0;exitDy=0;entryX=0.499;entryY=1;entryDx=0;entryDy=0;entryPerimeter=0;" parent="1" source="BZKPCMx8cq8Z6LbfKyMw-2" target="BZKPCMx8cq8Z6LbfKyMw-17" edge="1">
          <mxGeometry width="50" height="50" relative="1" as="geometry">
            <mxPoint x="260" y="460" as="sourcePoint" />
            <mxPoint x="290" y="370" as="targetPoint" />
            <Array as="points">
              <mxPoint x="485" y="430" />
              <mxPoint x="290" y="430" />
            </Array>
          </mxGeometry>
        </mxCell>
        <mxCell id="BZKPCMx8cq8Z6LbfKyMw-45" value="" style="endArrow=classic;startArrow=classic;html=1;exitX=0.75;exitY=0;exitDx=0;exitDy=0;" parent="1" source="BZKPCMx8cq8Z6LbfKyMw-2" edge="1">
          <mxGeometry width="50" height="50" relative="1" as="geometry">
            <mxPoint x="620" y="440" as="sourcePoint" />
            <mxPoint x="776" y="380" as="targetPoint" />
            <Array as="points">
              <mxPoint x="555" y="430" />
              <mxPoint x="776" y="430" />
            </Array>
          </mxGeometry>
        </mxCell>
        <mxCell id="BZKPCMx8cq8Z6LbfKyMw-49" value="" style="endArrow=classic;startArrow=classic;html=1;entryX=0.498;entryY=1.02;entryDx=0;entryDy=0;entryPerimeter=0;" parent="1" target="BZKPCMx8cq8Z6LbfKyMw-21" edge="1">
          <mxGeometry width="50" height="50" relative="1" as="geometry">
            <mxPoint x="520" y="460" as="sourcePoint" />
            <mxPoint x="520" y="360" as="targetPoint" />
          </mxGeometry>
        </mxCell>
        <mxCell id="BZKPCMx8cq8Z6LbfKyMw-51" value="" style="endArrow=classic;startArrow=none;html=1;exitX=0.5;exitY=0;exitDx=0;exitDy=0;entryX=0.5;entryY=1;entryDx=0;entryDy=0;startFill=0;" parent="1" source="BZKPCMx8cq8Z6LbfKyMw-14" target="BZKPCMx8cq8Z6LbfKyMw-27" edge="1">
          <mxGeometry width="50" height="50" relative="1" as="geometry">
            <mxPoint x="270" y="250" as="sourcePoint" />
            <mxPoint x="310" y="210" as="targetPoint" />
          </mxGeometry>
        </mxCell>
        <mxCell id="BZKPCMx8cq8Z6LbfKyMw-52" value="" style="endArrow=classic;startArrow=none;html=1;exitX=0.5;exitY=0;exitDx=0;exitDy=0;entryX=0.502;entryY=1;entryDx=0;entryDy=0;entryPerimeter=0;startFill=0;" parent="1" source="BZKPCMx8cq8Z6LbfKyMw-18" target="BZKPCMx8cq8Z6LbfKyMw-38" edge="1">
          <mxGeometry width="50" height="50" relative="1" as="geometry">
            <mxPoint x="500" y="260" as="sourcePoint" />
            <mxPoint x="570" y="220" as="targetPoint" />
          </mxGeometry>
        </mxCell>
        <mxCell id="BZKPCMx8cq8Z6LbfKyMw-53" value="" style="endArrow=classic;startArrow=none;html=1;exitX=0.5;exitY=0;exitDx=0;exitDy=0;entryX=0.5;entryY=1;entryDx=0;entryDy=0;startFill=0;" parent="1" source="BZKPCMx8cq8Z6LbfKyMw-22" target="BZKPCMx8cq8Z6LbfKyMw-39" edge="1">
          <mxGeometry width="50" height="50" relative="1" as="geometry">
            <mxPoint x="529.9999999999998" y="260" as="sourcePoint" />
            <mxPoint x="770" y="210" as="targetPoint" />
          </mxGeometry>
        </mxCell>
        <mxCell id="tv1C9yEHVS2GW3HdmGZH-1" value="Foundation Framework" style="swimlane;fontStyle=0;childLayout=stackLayout;horizontal=1;startSize=26;horizontalStack=0;resizeParent=1;resizeParentMax=0;resizeLast=0;collapsible=1;marginBottom=0;fillColor=#0050ef;strokeColor=#001DBC;fontColor=#ffffff;" vertex="1" parent="1">
          <mxGeometry x="120" y="530" width="250" height="104" as="geometry" />
        </mxCell>
        <mxCell id="tv1C9yEHVS2GW3HdmGZH-2" value="Swift Package" style="text;strokeColor=none;fillColor=none;align=left;verticalAlign=top;spacingLeft=4;spacingRight=4;overflow=hidden;rotatable=0;points=[[0,0.5],[1,0.5]];portConstraint=eastwest;" vertex="1" parent="tv1C9yEHVS2GW3HdmGZH-1">
          <mxGeometry y="26" width="250" height="26" as="geometry" />
        </mxCell>
        <mxCell id="tv1C9yEHVS2GW3HdmGZH-3" value="Swift" style="text;strokeColor=none;fillColor=none;align=left;verticalAlign=top;spacingLeft=4;spacingRight=4;overflow=hidden;rotatable=0;points=[[0,0.5],[1,0.5]];portConstraint=eastwest;" vertex="1" parent="tv1C9yEHVS2GW3HdmGZH-1">
          <mxGeometry y="52" width="250" height="26" as="geometry" />
        </mxCell>
        <mxCell id="tv1C9yEHVS2GW3HdmGZH-4" value="Base Model for REST and Apple Framework" style="text;strokeColor=none;fillColor=none;align=left;verticalAlign=top;spacingLeft=4;spacingRight=4;overflow=hidden;rotatable=0;points=[[0,0.5],[1,0.5]];portConstraint=eastwest;" vertex="1" parent="tv1C9yEHVS2GW3HdmGZH-1">
          <mxGeometry y="78" width="250" height="26" as="geometry" />
        </mxCell>
        <mxCell id="tv1C9yEHVS2GW3HdmGZH-6" value="" style="endArrow=classic;html=1;entryX=-0.005;entryY=0.989;entryDx=0;entryDy=0;entryPerimeter=0;" edge="1" parent="1" target="BZKPCMx8cq8Z6LbfKyMw-3">
          <mxGeometry width="50" height="50" relative="1" as="geometry">
            <mxPoint x="370" y="589.41" as="sourcePoint" />
            <mxPoint x="430" y="589.41" as="targetPoint" />
          </mxGeometry>
        </mxCell>
        <mxCell id="tv1C9yEHVS2GW3HdmGZH-8" value="" style="endArrow=classic;html=1;exitX=0.5;exitY=0;exitDx=0;exitDy=0;entryX=0.249;entryY=0.984;entryDx=0;entryDy=0;entryPerimeter=0;" edge="1" parent="1" source="tv1C9yEHVS2GW3HdmGZH-1" target="BZKPCMx8cq8Z6LbfKyMw-17">
          <mxGeometry width="50" height="50" relative="1" as="geometry">
            <mxPoint x="230" y="524" as="sourcePoint" />
            <mxPoint x="245" y="360" as="targetPoint" />
          </mxGeometry>
        </mxCell>
        <mxCell id="tv1C9yEHVS2GW3HdmGZH-9" value="" style="shape=image;imageAspect=0;aspect=fixed;verticalLabelPosition=bottom;verticalAlign=top;image=data:image/png,iVBORw0KGgoAAAANSUhEUgAACdgAAAQ4CAYAAAAQZiz5AAAFa2lUWHRYTUw6Y29tLmFkb2JlLnhtcAAAAAAAPD94cGFja2V0IGJlZ2luPSLvu78iIGlkPSJXNU0wTXBDZWhpSHpyZVN6TlRjemtjOWQiPz4KPHg6eG1wbWV0YSB4bWxuczp4PSJhZG9iZTpuczptZXRhLyIgeDp4bXB0az0iWE1QIENvcmUgNS41LjAiPgogPHJkZjpSREYgeG1sbnM6cmRmPSJodHRwOi8vd3d3LnczLm9yZy8xOTk5LzAyLzIyLXJkZi1zeW50YXgtbnMjIj4KICA8cmRmOkRlc2NyaXB0aW9uIHJkZjphYm91dD0iIgogICAgeG1sbnM6ZGM9Imh0dHA6Ly9wdXJsLm9yZy9kYy9lbGVtZW50cy8xLjEvIgogICAgeG1sbnM6ZXhpZj0iaHR0cDovL25zLmFkb2JlLmNvbS9leGlmLzEuMC8iCiAgICB4bWxuczp0aWZmPSJodHRwOi8vbnMuYWRvYmUuY29tL3RpZmYvMS4wLyIKICAgIHhtbG5zOnBob3Rvc2hvcD0iaHR0cDovL25zLmFkb2JlLmNvbS9waG90b3Nob3AvMS4wLyIKICAgIHhtbG5zOnhtcD0iaHR0cDovL25zLmFkb2JlLmNvbS94YXAvMS4wLyIKICAgIHhtbG5zOnhtcE1NPSJodHRwOi8vbnMuYWRvYmUuY29tL3hhcC8xLjAvbW0vIgogICAgeG1sbnM6c3RFdnQ9Imh0dHA6Ly9ucy5hZG9iZS5jb20veGFwLzEuMC9zVHlwZS9SZXNvdXJjZUV2ZW50IyIKICAgZXhpZjpQaXhlbFhEaW1lbnNpb249IjI1MjAiCiAgIGV4aWY6UGl4ZWxZRGltZW5zaW9uPSIxMDgwIgogICBleGlmOkNvbG9yU3BhY2U9IjEiCiAgIHRpZmY6SW1hZ2VXaWR0aD0iMjUyMCIKICAgdGlmZjpJbWFnZUxlbmd0aD0iMTA4MCIKICAgdGlmZjpSZXNvbHV0aW9uVW5pdD0iMiIKICAgdGlmZjpYUmVzb2x1dGlvbj0iMzAwLjAiCiAgIHRpZmY6WVJlc29sdXRpb249IjMwMC4wIgogICBwaG90b3Nob3A6Q29sb3JNb2RlPSIzIgogICBwaG90b3Nob3A6SUNDUHJvZmlsZT0ic1JHQiBJRUM2MTk2Ni0yLjEiCiAgIHhtcDpNb2RpZnlEYXRlPSIyMDIxLTA4LTI0VDAwOjA5OjUyLTA1OjAwIgogICB4bXA6TWV0YWRhdGFEYXRlPSIyMDIxLTA4LTI0VDAwOjA5OjUyLTA1OjAwIj4KICAgPGRjOnRpdGxlPgogICAgPHJkZjpBbHQ+CiAgICAgPHJkZjpsaSB4bWw6bGFuZz0ieC1kZWZhdWx0Ij5iaXJkci1sb2dvLWljb24tYW5kLWNvcHk8L3JkZjpsaT4KICAgIDwvcmRmOkFsdD4KICAgPC9kYzp0aXRsZT4KICAgPHhtcE1NOkhpc3Rvcnk+CiAgICA8cmRmOlNlcT4KICAgICA8cmRmOmxpCiAgICAgIHN0RXZ0OmFjdGlvbj0icHJvZHVjZWQiCiAgICAgIHN0RXZ0OnNvZnR3YXJlQWdlbnQ9IkFmZmluaXR5IERlc2lnbmVyIDEuMTAuMCIKICAgICAgc3RFdnQ6d2hlbj0iMjAyMS0wOC0yNFQwMDowOTo1Mi0wNTowMCIvPgogICAgPC9yZGY6U2VxPgogICA8L3htcE1NOkhpc3Rvcnk+CiAgPC9yZGY6RGVzY3JpcHRpb24+CiA8L3JkZjpSREY+CjwveDp4bXBtZXRhPgo8P3hwYWNrZXQgZW5kPSJyIj8+5fsmzgAAAYJpQ0NQc1JHQiBJRUM2MTk2Ni0yLjEAACiRdZG7SwNBEIc/EzXBBxEUtLAIolZGfEDQRjBBohBEYgRfTXJeEiGP4+5ExFawDSiINr4K/Qu0FawFQVEEsROsFW00nHOJEBEzy+x8+9udYXcWHNG0kjGq+yCTNfVIKOCdnZv3up5x00o1tTTGFEMbnZoKU9E+7qiy443PrlX53L9Wv6QaClS5hUcUTTeFx4XDq6Zm87Zwi5KKLQmfCvfockHhW1uPl/jF5mSJv2zWo5EgOJqEvclfHP/FSkrPCMvL6cykV5Sf+9gvaVCzM9MSO8TbMYgQIoCXCcYI4qefYZn9+BigV1ZUyO8r5k+Sk1xFZo01dJZJksKkR9QVqa5KTIiuykizZvf/b1+NxOBAqXpDAGqeLOutC1xbUMhb1uehZRWOwPkIF9lyfu4Aht5Fz5e1zn3wbMDZZVmL78D5JrQ9aDE9VpSc4o5EAl5PoHEOmq+hbqHUs599ju8hui5fdQW7e9At5z2L3+yYZ647M4AmAAAACXBIWXMAAC4jAAAuIwF4pT92AAAgAElEQVR4nOzde7RnZX3f8c8eZmC4iKAFNCWiBkFLiYpa8YJIJWq91NQ7VaNESCDxMbYbqGkEo42KjXtF3V5DojHipdqixdY2Ji5QC1HEIFFX8AJtvIEgIYI3FObpH7/DGgZmYM7MOef5XV6vtfaaw/zhei8u4z+f9X0SAAAAAAAAAAAAAAAAAAAAAAAAAAAAAAAAAAAAAAAAAAAAAAAAAAAAAAAAAAAAAAAAAAAAAAAAAAAAAAAAAAAAAAAAAAAAAAAAAAAAAAAAAAAAAAAAAAAAAAAAAAAAAAAAAAAAAAAAAAAAAAAAAAAAAAAAAAAAAAAAAAAAAAAAAAAAAAAAAAAAAAAAAAAAAAAAAAAAAAAAAAAAAAAAAAAAAAAAAAAAAAAAAAAAAAAAAAAAAAAAAAAAAAAAAAAAAAAAAAAAAAAAAAAAAAAAAAAAAAAAAAAAAAAAAAAAAAAAAAAAAAAAAAAAAAAAAAAAAAAAAAAAAAAAAAAAAAAAAAAAAAAAAAAAAAAAAAAAAAAAAAAAAAAAAAAAAAAAAAAAAAAAAAAAAAAAAAAAAAAAAAAAAAAAAAAAAAAAAAAAAAAAAAAAAAAAAAAAAAAAAAAAAAAAAAAAAAAAAAAAAAAAAAAAAAAAAAAAAAAAAAAAAAAAAAAAAAAAAAAAAAAAAAAAAAAAAAAAAAAAAAAAAAAAAAAAAAAAAAAAAAAAAAAAAAAAAAAAAAAAAAAAAAAAAAAAAAAAAAAAAAAAAAAAAAAAAAAAAAAAAAAAAAAAAAAAAAAAAAAAAAAAAAAAAAAAAAAAAAAAAAAAAAAAAAAAAAAAAAAAAAAAAAAAAAAAAAAAAAAAAAAAAAAAAAAAAAAAAAAAAAAAAAAAAAAAAAAAAAAAAAAAAAAAAAAAAAAAAAAAAAAAAAAAAAAAAAAAAAAAAAAAAAAAAAAAAAAAAAAAAAAAAAAAAAAAAAAAAAAAAAAAAAAAAAAAAAAAAAAAAAAAAAAAAAAAAAAAAAAAAAAAAAAAAAAAAAAAAAAAAAAAAAAAAAAAAAAAAAAAAAAAAAAAAAAAAAAAAAAAAAAAAAAAAAAAAAAAAAAAAAAAAAAAAAAAAAAAAAAAAAAAAAAAAAAAAAAAAAAAAAAAAAAAAAAAAAAAAAAAAAAAAAAAAAAAAAAAAAAAAAAAAAAAAAAAAAAAAAAAAAAAAAAAAAAAAAAAAAAAAAAAAAAAAAAAAAAAAAAAAAAAAAAAAAAAAAAAAAAAAAAAAAAAAAAAAAAAAAAAAAAAAAAAAAAAAAAAAAAAAAAAAAAAAAAAAAAAAAAAAAAAAAAAAAAAAAAAAAAAAAAAAAAAAAAAAAAAAAAAAAAAAAAAAAAAAAAAAAAAAAAAAAAAAAAAAAAAAAAAAAAAAAAAAAAAAAAAAAAAAAAAAAAAAAAAAAAAAAAAAAAAAAAAAAAAAAAAAAAAAAAAAAAAAAAAAAAAAAAAAAAAAAAAAAAAAAAAAAAAAAAAAAAAAAAAAAAAAAAAAAAAAAAAAAAAAAAAAAAAAAAAAAAAAAAAAAAAAAAAAAAAAAAAAAAAAAAAAAAAAAAAAAAAAAAAAAAAAAAAAAAAAAAAAAAAAAAAAAAAAAAAAAAAAAAAAAAAAAAAAAAAAAAAAAAAAAAAAAAAAAAAAAAAAAAAAAAAAAAAAAAAAAAAAAAAAAAAAAAAAAAAAAAAAAAAAAAAAAAAAAAAAAAAAAAAAAAAAAAAAAAAAAAAAAAAAAAAAAAAAAAAAAAAAAAAAAAAAAAAAAAAAAAAAAAAAAAAAAAAAAAAAAAAAAAAAAAAAAAAAAAAAAAAAAAAAAAAAAAAAAAAAAAAAAAAAAAAAAAAAAAAAAAAAAAAAAAAAAAAAAAAAAAAAAAAAAAAAAAAAAAAAAAAAAAAAAAAAAAAAAAAAAAAAAAAAAAAAAAAAAAAAAAAAAAAAAAAAAAAAAAAAAAAAAAAAAAAAAAAAAAAAAAAAAAAAAAAAAAAAAAAAAAAAAAAAAAAAAAAAAAAAAAAAAAAAAAAAAAAAAAAAAAAAAAAAAAAAAAAAAAAAAAAAAAAAAAAAAAAAAAAAAAAAAAAAAAAAAAAAAAAAAAAAAAAAAAAAAAAAAAAAAAAAAAAAAAAAAAAAAAAAAAAAAAAAAAAAAAAAAAAAAAAAAAAAAAAAAAAAAAAAAAAAAAAAAAAAIA107UOABZXGWqXZPckG27123UZP/907LubVykPAAAAAAAAAIAFZ2AH7JClcdzdktwzyT2Wvrsn2Ws7vz2Xft3ZP4d+kuSGbXw/3MbvX53kyiTfTXLd2Hf19v+zAAAAAAAAAAAsOgM7YAtlqOuTHJgth3Nb+/mAbHl5blbdmOSqTMZ2V97q19v+fO3Yd5taRQIAAAAAAAAAsPYM7GABlaHukuReSe53m+/gJPfJfAznVtrPklyR5Gtb+a5yBQ8AAAAAAAAAYP4Y2MGcWnrC9ReTHJotB3T3S3LfGNGtpBuy9eHd18e++0HLMAAAAAAAAAAAdpyBHcyBpYt090tyRJIH3+q7W8sukkyen70kyRdu9X3bxTsAAAAAAAAAgOlnYAczpgx1tySHZfOI7ogkD0yyR8suluWabB7bXRyjOwAAAAAAAACAqWRgB1Ns6ZnXQ5I8JskjMhnUHRbPu86jW4/uvpDkorHvvtM2CQAAAAAAAABgsRnYwRQpQ12X5PBMBnW3fPs3jaKly5Ocl+T8JOcb3AEAAAAAAAAArC0DO2ioDHVDJlfpbhnTHZVkn6ZRTLOvZ8vB3ZVtcwAAAAAAAAAA5puBHayhMtT1SR6e5JhMBnWPTLJn0yhm2VczGdudl+RTY99d1TYHAAAAAAAAAGC+GNjBKitDvXuSJyZ58tKv+7YtYo79XZK/THJukk+Pfffzxj0AAAAAAAAAADPNwA5WWBlql+TwJE/JZFR3ZJJ1TaNYRD9I8vFMxnb/e+y7f2zcAwAAAAAAAAAwcwzsYAWUoe6R5HGZDOqenOTAtkWwhZuSfCrJf0/ysbHv/l/bHAAAAAAAAACA2WBgBzuoDPWAJM/I5FLdMUk2ti2C7fa3mVy2OzfJF8a+29S4BwAAAAAAAABgKhnYwTKUoe6b5OlJnpvkX8bTr8y+7yb5WJIPJvm0sR0AAAAAAAAAwGYGdnAnylD3TPKvkxyX5IlJNrQtglXzrSTvS3L22HdfaR0DAAAAAAAAANCagR1sRRnqbpmM6Z6bybhuj7ZFsOYuSXJ2kg+MfXdl6xgAAAAAAAAAgBYM7GBJGer6JMdkMqp7epJ92hbBVNiU5K+SvDfJR8e++2HjHgAAAAAAAACANWNgx8IrQ/2lJCcmeVGSA9rWwFT7UZKPZHLZ7pNj393UuAcAAAAAAAAAYFUZ2LGQylB3zeTp199McmzjHJhFV2Vy1e4dY99d0ToGAAAAAAAAAGA1GNixUJau1Z2Q5NeT7N84B+ZBTfLxJG9N8hdj321q3AMAAAAAAAAAsGIM7Jh7ZagbkjwtyW8k+ZXGOTDPLk/ytiTvHvvuutYxAAAAAAAAAAA7y8COuVWGet8kJyY5PskBjXNgkfwkyfuTvHXsu0taxwAAAAAAAAAA7CgDO+ZKGWqX5NgkfZInNM4BkgszeT72v45997PWMQAAAAAAAAAAy2Fgx1xYegb22UlOSfKgxjnA7X0vyVlJ3jn23bdbxwAAAAAAAAAAbA8DO2ZaGepdkpyQ5GVJ7tU4B7hzNyc5O8mZY99d1joGAAAAAAAAAOCOGNgxk8pQ75HkpUlOTrJP4xxg+WqS/5bkNWPffbF1DAAAAAAAAADA1hjYMVPKUO+fyTOwL0iya+McYGV8PJOh3YWtQwAAAAAAAAAAbs3AjqlXhtoleXSSU5M8tXEOsHrOT/KaJJ8c+642bgEAAAAAAAAAMLBjupWhHpXkD5I8pnULsGYuSvLaJB8b+25T6xgAAAAAAAAAYHEZ2DGVylAfluQ/JXlC6xagmS9nMrT70Nh3N7eOAQAAAAAAAAAWj4EdU6UM9fBMhnVPa90CTI1vJHllkg+6aAcAAAAAAAAArCUDO6ZCGeqhSX4/yXPi30tg6/4myWlj332ydQgAAAAAAAAAsBgMmWiqDPXeSc5I8sIk69rWADPiL5L8h7HvLm0dAgAAAAAAAADMNwM7mihD/YUkr0hyQpINjXOA2VOTvDfJ6WPffbN1DAAAAAAAAAAwnwzsWFNlqHdN8ntJSpKNjXOA2Xdjkjcned3Yd9e1jgEAAAAAAAAA5ouBHWuiDHVdkuOTvDbJ/o1zgPlzXSZ/vrxl7Lufto4BAAAAAAAAAOaDgR2rrgz1UUnelOQhrVuAuffNTJ6fft/Yd5taxwAAAAAAAAAAs83AjlVThnpgkv+c5LjWLcDCuTTJS8e++3TrEAAAAAAAAABgdhnYseLKUHdPckqSlyfZo3EOsNjek+TUse+uaR0CAAAAAAAAAMweAztWTBlql+SZSf4wyUGNcwBucV2S301ylmdjAQAAAAAAAIDlMLBjRZShPjDJm5Ic3boFYBsuSnLS2HeXtA4BAAAAAAAAAGaDgR07pQx17ySvS3JSknWNcwDuzKYkb0ly+th317eOAQAAAAAAAACmm4EdO6wM9SlJ3p7kwNYtAMt0ZZJ/n+S/jH1XW8cAAAAAAAAAANPJwI5lK0PdL5PnYI9r3QKwk/4qyW+Pffe11iEAAAAAAAAAwPQxsGO7laF2SZ6X5I1J7t44B2Cl/CzJ65O8buy7n7SOAQAAAAAAAACmh4Ed26UM9V5J3pHkX7VuAVgl30jyorHvLmgdAgAAAAAAAABMBwM77lAZ6rokJyc5M8lejXMAVtumJG9IcsbYdze2jgEAAAAAAAAA2jKwY5vKUO+f5E+SPKp1C8Aa+3KSF4x998XWIQAAAAAAAABAOwZ23E4Z6oYkpyU5I8mujXMAWrkpyauSnDn23U2tYwAAAAAAAACAtWdgxxbKUA9O8v4kD2vdAjAlLkrya2PffbV1CAAAAAAAAACwtgzsSJKUoXZJXpjkLUn2bJwDMG1+muTlScax7za1jgEAAAAAAAAA1oaBHSlD3SfJO5M8u3ULwJQ7L8nxY9/9fesQAAAAAAAAAGD1GdgtuDLUo5KcneRerVsAZsQNSV6W5N1j39XWMQAAAAAAAADA6jGwW1BlqOuTnJ7kFUnWNc4BmEXnJvn1se+ubR0CAAAAAAAAAKwOA7sFVIZ6nyTvS/KI1i0AM+6bSZ499t3nWocAAAAAAAAAACvPwG7BlKH+2yRvT7J36xaAOfHzJKckGT0ZCwAAAAAAAADzxcBuQZSh7p3krUme37oFYE59OMkJY99d3zoEAAAAAAAAAFgZBnYLoAz1nyf5SJKDW7cAzLlvJHnm2HeXtg4BAAAAAAAAAHaegd2cK0N9VpJ3J9mzdQvAgvhpkpckeZcnYwEAAAAAAABgthnYzaky1F2SvDbJaa1bABbUe5L89th3P2odAgAAAAAAAADsGAO7OVSGevckH0xybOsWgAX3lUyejL2sdQgAAAAAAAAAsHzrWgewsspQH5zk4hjXAUyDw5J8vgz1ua1DAAAAAAAAAIDlc8FujpShPj/JWUk2tm4B4HbemOSUse9ubh0CAAAAAAAAAGwfA7s5UIa6IckfJvmd1i0A3KH/meS4se9uaB0CAAAAAAAAANw5A7sZV4a6f5IPJTm6dQsA2+VLSZ469t3ftw4BAAAAAAAAAO6Ygd0MK0N9WJJzkhzYugWAZbk6ydPGvvts6xAAAAAAAAAAYNvWtQ5gx5ShPi3Jp2JcBzCL9k9yfhnqc1uHAAAAAAAAAADb5oLdDCpDfUmSN8c/P4B58PtJXj32XW0dAgAAAAAAAABsyUBrhpShrkvy+iSntG4BYEV9IMmLx777SesQAAAAAAAAAGAzA7sZUYa6McmfJXlO4xQAVsdnk/zq2Hffax0CAAAAAAAAAEwY2M2AMtS7JflokqNatwCwqr6Z5Clj332pdQgAAAAAAAAAkKxrHcAdK0O9d5ILYlwHsAjuleTCMtQntA4BAAAAAAAAAAzsploZ6kOS/HWS+7duAWDN7JXkY2Woz2odAgAAAAAAAACLzsBuSpWhPinJp5Lco3ULAGtuQ5IPlqGe0DoEAAAAAAAAABaZgd0UKkM9Mcm5SfZs3QJAM+uSnFWGemrrEAAAAAAAAABYVF3rALZUhvofk7ymdQcAU+V1SX5v7LvaOgQAAAAAAAAAFomB3ZQoQ+2SvCrJ6a1bAJhK70jykrHvbm4dAgAAAAAAAACLwsBuCiyN685MclrrFgCm2geT/NrYdz9vHQIAAAAAAAAAi8DArrGlcd0bk7y0dQsAM+HjSZ419t2PW4cAAAAAAAAAwLwzsGuoDHVdkrcl+c3WLQDMlM8keerYdz9oHQIAAAAAAAAA88zArpEy1F2S/EmSFzVOAWA2XZLkiWPfXd06BAAAAAAAAADmlYFdA2Wo65P8eZLjWrcAMNMuS/LYse++1zoEAAAAAAAAAOaRgd0aK0PdNcn7kzyjdQsAc+HLSY4Z++77rUMAAAAAAAAAYN4Y2K2hMtSNST6c5CmtWwCYK5ckedzYd9e1DgEAAAAAAACAeWJgt0bKUHdP8tEkj2/dAsBcuijJr4x9d33rEAAAAAAAAACYF+taByyCpWdhz4lxHQCr518k+XgZ6l6tQwAAAAAAAABgXhjYrbIy1F2SvDfJE1u3ADD3HpXkY2Woe7QOAQAAAAAAAIB5YGC3ispQuyRvT/Ls1i0ALIzHJvlIGerG1iEAAAAAAAAAMOsM7FbXmUlObB0BwMJ5fJIPLz1RDgAAAAAAAADsIAO7VVKG+vIkp7XuAGBhPSXJB8pQ17cOAQAAAAAAAIBZ1bUOmEdlqCdl8jQsALT2gSQvGPvu5tYhAAAAAAAAADBrDOxWWBnqcUneF39vAZgef5rkxLHvausQAAAAAAAAAJglnohdQWWoT07y5zGuA2C6vDjJGa0jAAAAAAAAAGDWGIKtkDLUo5J8IsnG1i0AsA3Hj333Z60jAAAAAAAAAGBWGNitgDLUI5Kcl2Tv1i0AcAduSvLkse8+0ToEAAAAAAAAAGaBgd1OKkM9OMmFSfZr3QIA2+GGJEeNfXdp6xAAAAAAAAAAmHYGdjuhDHXfJH+d5NDWLQCwDN9NcuTYd99qHQIAAAAAAAAA02xd64BZVYa6IcmHYlwHwOz5hST/qwx1n9YhAAAAAAAAADDNDOx2QBlql+TNSY5t3QIAO+iwJOeUoe7WOgQAAAAAAAAAppWB3Y4pSU5qHQEAO+mYJH+6NBwHAAAAAAAAAG7DwG6ZylCflOSPWncAwAp5XpI/aB0BAAAAAAAAANPIxZplKEM9PMkFSe7SugUAVthJY9+9s3UEAAAAAAAAAEwTA7vtVIZ6QJLPJTmodQsArIKbkxw79t35rUMAAAAAAAAAYFoY2G2HMtSNSc5LcmTrFgBYRdckecjYd99qHQIAAAAAAAAA02Bd64BpV4baJXlXjOsAmH/7JTlnaVgOAAAAAAAAAAvPwO7OnZ7kuNYRALBGHprkbUsDcwAAAAAAAABYaAZ2d6AM9VlJXtW6AwDW2PFJTmodAQAAAAAAAACtuU6zDWWohyT5QpK9WrcAQAM/T/LYse8ubB0CAAAAAAAAAK0Y2G1FGeoeST6b5PDWLQDQ0FVJHjL23XdbhwAAAAAAAABAC56I3bq3xLgOAO6R5MNlqLu2DgEAAAAAAACAFgzsbqMM9fgkx7fuAIAp8cgkb2wdAQAAAAAAAAAteCL2VspQD0/yuSS7t24BgCnz4rHv3tU6AgAAAAAAAADWkoHdkjLUuyS5OMkhrVsAYAr9LMmjx777fOsQAAAAAAAAAFgrnohNUobaJTkrxnUAsC27JvlwGepdW4cAAAAAAAAAwFoxsJv4rSTPaR0BAFPuoCRvXxqmAwAAAAAAAMDcW/iBXRnqw5L8UesOAJgRxyV5fusIAAAAAAAAAFgLC32Bpgx13yR/k+TejVMAYJb8MMmDxr67vHUIAAAAAAAAAKymhb1gt/S83XtiXAcAy7VXkveVoW5oHQIAAAAAAAAAq2lhB3ZJfivJU1tHAMCMeniSV7aOAAAAAAAAAIDVtJBPxJah3i/JpUl2b90CADOsJjlm7LtPtQ4BAAAAAAAAgNWwcAO7MtRdknwmySNatwDAHPh2kl8e++661iEAAAAAAAAAsNIW8YnYU2NcBwAr5cAkf1yGunCjfQAAAAAAAADm30IN7MpQfznJq1t3AMCceWaS41tHAAAAAAAAAMBKW5hrM2Wouya5KMkDW7cAwBz6cZIjxr77ausQAAAAAAAAAFgpi3TB7pUxrgOA1bJHkrPLUNe3DgEAAAAAAACAlbIQA7sy1COTvLx1BwDMuYcmeVnrCAAAAAAAAABYKXP/RGwZ6h5JLklySOsWAFgAP01y+Nh332gdAgAAAAAAAAA7axEu2J0Z4zoAWCsbk5xVhjr3I34AAAAAAAAA5t9cD+zKUB+XpLTuAIAF89gkJ7SOAAAAAAAAAICdNbfXZcpQ75rkS0l+sXULACyg65P8s7HvvtM6BAAAAAAAAAB21DxfsHt9jOsAoJW9k7zVU7EAAAAAAAAAzLK5HNiVoT48yW+07gCABfe0JM9sHQEAAAAAAAAAO2rursqUoa5PclGSB7duAQBydSZPxV7bOgQAAAAAAAAAlmseL9idHOM6AJgW+ycZWkcAAAAAAAAAwI6Yqwt2Zaj3THJZkr1btwAAW3jC2HefaB0BAAAAAAAAAMsxbxfshhjXAcA0+uMy1L1aRwAAAAAAAADAcszNwK4M9dgkx7XuAAC26qAkp7eOAAAAAAAAAIDlmIsnYstQd0vyt0kOad0CAGzTz5McNvbd11uHAAAAAAAAAMD2mJcLdqfGuA4Apt2GJG9oHQEAAAAAAAAA22vmL9iVod43yVeSbGzdAgBslyeMffeJ1hEAAAAAAAAAcGdm+oJdGWqXZIxxHQDMkjeWoW5oHQEAAAAAAAAAd2amB3ZJ/k2SJ7WOAACW5QFJTm4dAQAAAAAAAAB3ZmafiC1D3TPJZUkObN0CACzbPyY5ZOy7a1qHAAAAAAAAAMC2zPIFu9+JcR0AzKp9kry6dQQAAAAAAAAA3JGZvGBXhnq3JFckuWvrFgBgh21KcsTYd5e2DgEAAAAAAACArZnVC3anxbgOAGbduiRvKkOdycE/AAAAAAAAAPNv5gZ2Zaj3TPLS1h0AwIo4OskzWkcAAAAAAAAAwNbM3MAuyelJdm8dAQCsmDeUofr/dgAAAAAAAACmzvrWActRhvpLSU5s3cHcujHJNUm+n+Tapb9eDbsmuVuSf5JkvxiMAhyUyXXa17cOAQAAAAAAAIBb61oHLEcZ6tlJnte6g5lwUyZDueV8Px77rq51aBnqHpmM7bb27beN35+pcSzAdviHJPcZ++761iEAAAAAAAAAcIuZGdiVoR6e5NLMUDOr5pokf5fksiSXJ7k6Ww7lrklyfYux3FooQ+2S7J3bD/D2S3KfJA9Y+g5o1Qiwg1459t2rW0cAAAAAAAAAwC1mZqxWhnpukqe27mDNbEpyRSYjusuyeVD31bHvrm0ZNivKUPdNcv9sHtzd8vN9kqxrmAawLddncsXuH1qHAAAAAAAAAEAyIwO7MtRHJrmgdQer4kfZPKK79ZjuG2Pf3dgybF6VoW5Mcki2HN09IMmhSXZrmAaQJGeOffe7rSMAAAAAAAAAIJmBgd3Sc5jnJTm6dQs75apMhnO3XKK75fvO2HebWoYxUYa6S5J75/YX7x6QZJ92ZcCC+XGS+459973WIQAAAAAAAACwvnXAdnh8jOtm0VeSfGbp+z9j332zcQ93Yuy7m5NcvvT9j1t+f2nkemCSR2fy3+JjMhndAayGPZK8PMm/ax0CAAAAAAAAAFN9wa4MdV2Szyc5onULd+imJBdnaUyX5IKx765tm8RqKkPdP5PB3WOWvgdlyv88AWbKjUkOHvvu261DAAAAAAAAAFhs037B7hkxrptGP0pyYSZjus8k+dzYdz9um8RaGvvu6iTnLH0pQ90nyaOyeXD30Ez/ny/A9NotySuSnNQ6BAAAAAAAAIDFNrUXp8pQ1yf5cpJDW7eQa7L5Ot1nknxx7Lub2iYxzcpQ90xyZDYP7o5MsrFpFDBrbkpy6Nh3V7QOAQAAAAAAAGBxTfOFqRfGuK6V/5vJkO6W72tj39W2ScySse9+lOSTS1/KUHfL5Krd0ZkM7h6VZK9mgcAsWJ/kjCQvatwBAAAAAAAAwAKbygt2Zagbk3w9yYGtWxbEpiTnZ/Lc57lj332rbQ7zbulC5YOSPDbJr2YyuAO4rU1JDhv77rLWIQAAAAAAAAAspmm9YHdyjOtW28+S/GU2j+q+37iHBbL0xPDFS98bylD/aZKn5/+zd99Rl5WFvcd/m4FRqoWiiBoLdoIX7EaNjUTE3jEWvNaIW6I7xcQkJEYjJtmWbCuK/RpJLFERQhIjeiNi1yg3QFBRY8MoIl3Kc/84r0gZpr3nnGef834+a+01s3Dm7K+JvGuY+fE8yWOS3DsjHf8Cc7dNJqfYPbF2CAAAAAAAAABr0+hGLG1fdk7yjSS71W5ZQuclOTaTUd2xQ9f8rHIPXE3blz2TPDLJYzO5TnabukVAZZcm2XvomjNqhwAAAAAAAACw9ozxBLvDYlw3TWcl+XAmo7p/Gbrmgso9sFFD13w/yeuTvL7tyw0yGds9Jsn9YmwHa9G6JC/I5NcHAAAAAAAAADBXozrBru3LtZJ8K8kNarcsuB8m+WAmo7oThq65uHIPrFrbl93zy7Hd/TMZ3QBrw/lJbjp0zY9rhwAAAAAAAACwtoztBLvHxbhua52RyaDuA0lOGrrm0ro5MF1D1/woyZFJjmz7sluSh2dyjewDMr6vZcB07ZDkt5O8tHYIAAAAAAAAACfPexsAACAASURBVGvLaE6wa/vSJPlckjvVblkgpyR5/8rz5aFrSuUemLu2L9fPZGz3mCQHJNmubhEwI2cm+ZWhay6sHQIAAAAAAADA2jGmU5/uEeO6zXFhkvcmeUOSzxnVsdYNXfOTJG9L8ra2L9dL8tBMTsM8MMk2NduAqdojyVMyOckSAAAAAAAAAOZiTCfYHZ3JKIYNOzXJG5O8c2VQBGxE25dfSfKcJM9MsmvlHGA6Tktyu6FrLqsdAgAAAAAAAMDaMIqBXduXmyT5ZpJ1tVtG5pIkH8zktLoTnFYHW67ty7WTPCFJm2T/yjnA6j1y6Jp/rB0BAAAAAAAAwNowlitinxvjuiv6diZX4B01dM0PasfAIhu65sIkb2/78o4kd0/yvCSPTbJd1TBga/1eEgM7AAAAAAAAAOai+gl2bV+2T/LfSa5fu6WykuTYTK6BPW7omksr98DSavtywyTPyuQK2T0r5wBb7teGrjmxdgQAAAAAAAAAy28MJ9j9Vtb2uO7MJEclOXLomjMqt8CasHIy5EvavhyR5JGZnGp3r7pVwBb4vUz+3gUAAAAAAACAmap6gl3blybJfyTZp2ZHJSdkclrdB4eu+XnlFljz2r7sl+TQTEa/166cA2xcSXK7oWtOrR0CAAAAAAAAwHKrfYLd/bK2xnVnJ3l7kjcNXfOflVuAKxi65ktJntH25Q+S/O8kz01ys6pRwDVpMvl79LDaIQAAAAAAAAAst9on2H0oycNqNszJ15MckeQ9Q9ecXzsG2LS2L+uSHJTJ9bEHVM4Bru6nSW40dM0FtUMAAAAAAAAAWF7VBnZtX26Z5L9qNszBN5L8RZJ3D11zSe0YYOu0fbltJtfHHpJkp7o1wBUcMnTNO2pHAAAAAAAAALC8tqn47kOzvOO6b2ZyxeRth655u3EdLLaha04ZuqbN5MrYv0rixCwYh2fVDgAAAAAAAABguVUZuLV92TnJfyfZpcb7Z+iMJC9N8s6hay6u3ALMSNuXGyV5cSbjnm0r58Ba96tD13ytdgQAAAAAAAAAy6nWCXZPzXKN676V5JlJbj10zVHGdbDchq753tA1hya5TZJ3JimVk2Atc4odAAAAAAAAADMz9xPs2r5sk+SUJLea97tn4NuZnFj3jqFrfl47Bqij7csdkrwkyaNqt8AadHaSGw1dc37tEAAAAAAAAACWT42rDR+UxR/XfTvJy5K83bAOGLrm5CSPbvtyl0y+NhxQOQnWkuskeWySd9QOAQAAAAAAAGD51BjYPb/CO6flO0n+Msnbhq65qHYMMC5D13wuyW+0fblfJkO7e1ROgrXi2TGwAwAAAAAAAGAG5npFbNuX22RyPeyi+e9MhnVvNawDNkfblybJQZkM7fatnANrwb5D13y1dgQAAAAAAAAAy2WbOb/vyXN+32p9N8mhSfYeuuYNxnXA5hq6pgxdc0yS/ZIcnOT0ykmw7J5VOwAAAAAAAACA5TO3E+xWTnM6Pckt5vXOVTgryeFJ3jx0zYW1Y4DF1/ZluySHZPK1Za+6NbCUzk5yo6Frzq8dAgAAAAAAAMDymOcJdnfOYozr3prkNkPXDMZ1wLQMXXPx0DVvTrJ3khcm+Z/KSbBsrpPkcbUjAAAAAAAAAFgu8xzYPWGO79oaX05yz6Frnj50zY9qxwDLaeiaC4eueVUmg+M/TfKzykmwTBbtKnoAAAAAAAAARm4uV8S2fdkmybczzmsRz07yx0neOHTNJbVjgLWl7cseSV6Z5Ldqt8ASKEn2Grrm+7VDAAAAAAAAAFgO287pPffKOMd170rye0PX/LB2CLA2DV1zZpIntX15V5I3JrlZ3SJYaE2Sxyb529ohAABM1U2TnDzjd3wjyR1n/A4AAABYdr+T5C9m/I5XJjl8xu8AuJJ5DezGdj3syUmeO3TNJ2uHACTJ0DXHt33ZJ5NfDL4wybrKSbCoDo6BHQDAsmmS7DTjd+w4488HAACAtWC7zP6f4dfP+PMBrmabWb+g7ct2mZwmMwbnJumS7GdcB4zN0DXnDV3z+0nukuQLtXtgQd297cvNa0cAAAAAAAAAsBxmPrBLcv8ku83hPZtydJLbDl3zyqFrLq4dA3BNhq75UpK7Z3KS3fmVc2ARPb52AAAAAAAAAADLYR4Du9rXw56a5IFD1zxh6JrvVm4B2CxD11wydM2rktwhyXG1e2DBHFw7AAAAAAAAAIDlMNOBXduXayV51CzfsRHnJ/nDJPsOXfOxSg0AqzJ0zRlJDspkMHRm3RpYGPu2fbl97QgAAAAAAAAAFt+sT7A7MMkuM37Hhnwwye2Grjli6JqfV3g/wNQMXVOGrnlvktslOap2DyyI2ifoAgAAAAAAALAEZj2wm/cfbn89yYOHrnnU0DXfnvO7AWZq6JqfDF3zjCT3S3Ja7R4YuYPbvjS1IwAAAAAAAABYbDMb2LV92THJQ2f1+RvwyiT7DF1z3BzfCTB3Q9eckOSOSf4iycV1a2C09k6yf+0IAAAAAAAAABbbtjP87Icl2WGGn/8LP0zy1KFrjp/DuwBGYeiaC5P8aduXo5McmeSelZNgjA5O8oXaEQAAAAAAAAAsrlleETuP62E/mmRf4zpgrRq65uQk907y3CQ/q5wDY/OEti+z/LUOAAAAAAAAAEtuJn/o3PblekkOnMVnr7goSZvkoUPXnDnD9wCM3tA1lw1d84Ykt0/yj7V7YET2SnKn2hEAAAAAAAAALK5ZneryyCTbzeizT05yl6FrXjt0TZnROwAWztA1303yqCTPyWSIDCQH1Q4AAAAAAAAAYHHNamA3q+thX5fJuO6rM/p8gIU2dE0ZuuZNSe6R5Ou1e2AEDOwAAAAAAAAA2GpTH9i1fdkjyQOm/LH/k+RhQ9c8b+iaC6b82QBLZ+iaL2VyNeb7ardAZXdu+3LD2hEAAAAAAAAALKZZnGD3iCl/7r8k2Xfomo9M8TMBlt7QNWcneVySNsnFlXOgpgNrBwAAAAAAAACwmGYxsHvglD7n4iS/m+RBQ9d8f0qfCbCmrFwZ+9ok90xyRuUcqOUhtQMAAAAAAAAAWExTHdi1fdkmyf2n8FGnJrn70DX90DWXTeHzANa0oWs+n2T/JB+q3QIVHND2ZX3tCAAAAAAAAAAWz7RPsNs3ya6r/Iw3J7nT0DVfnEIPACuGrjkrySOTvDDJJZVzYJ52TnLv2hEAAAAAAAAALJ5tp/x5D1jFzz0ryTOHrnn/tGIAuLKha0qSV7V9+XSSv09yk8pJMC8HJflY7QgAAAAAAAAAFsu0T7Db2oHdJ5Lc0bgOYD6GrjkpyX5JPlq7BebkoNoBAAAAAAAAACyeqQ3s2r6sT3KfrfipL0nygKFrvjOtFgA2beiaHyd5WJI/SHJp5RyYtVu3fblV7QgAAAAAAAAAFss0r4i9a5Idt+DHX5TkkKFr3jvFBgC2wNA1lyX5q7YvJyZ5b5K9KifBLB2U5NW1IwAAAAAAAABYHNO8InZLroc9M8l9jesAxmHomn/P5MrY42u3wAy5JhYAAAAAAACALVJjYPe1JHcduuakKb4bgFUauuZHSR6c5I+TXFY5B2bhPm1ftq8dAQAAAAAAAMDimMrAru3LTknuvhk/9LgkvzZ0zbem8V4ApmvomsuGrnlZJqPpH9TugSlbn8mV9gAAAAAAAACwWaZ1gt29k2y3iR/zt0keNnTNz6b0TgBmZOiaE5LcOclXK6fAtN2ndgAAAAAAAAAAi2NaA7uNXQ97aZJDh645bOiaS6b0PgBmbOia72YyoD6hcgpMk4EdAAAAAAAAAJtt1gO7nyU5aOia10/pPQDM0dA1Zyd5UJKja7fAlNyz7cumTt0FAAAAAAAAgCRTGNi1fdktyf/awH90RpJ7Dl1z/GrfAUA9Q9dclOSJSV5VuwWmYIck+9eOAAAAAAAAAGAxTOMEu/tt4K+dmORuQ9ecPIXPB6CyoWsuG7rmhUm62i0wBa6JBQAAAAAAAGCzTGNgd9XrYd+T5AFD15w5hc8GYESGrnllkoOTXFy7BVbBwA4AAAAAAACAzTLtgd3hSZ40dM2FU/hcAEZo6Jr3JnlQkp/VboGtdO+2L+tqRwAAAAAAAAAwfqsa2LV9uWmSvZNclOTgoWteMnRNmUoZAKM1dM2/Jbl3ku/VboGtcJ0k+9SOAAAAAAAAAGD8VnuC3QOSnJnkvisnGgGwRgxd8x9J7pHkP2u3wFZwTSwAAAAAAAAAm7Tagd3uSe46dM1J04gBYLEMXfPtJPdK8qnaLbCFDOwAAAAAAAAA2KTVDuz6oWu+NZUSABbS0DU/SXJAkg/UboEtcJ+2L03tCAAAAAAAAADGbVUDu6FrLp1WCACLa+iaC5I8LsnrarfAZtojya1rRwAAAAAAAAAwbqs9wQ4Aklw+um6T/GHtFthMd6odAAAAAAAAAMC4GdgBMDVD15Sha45I8tQkl9TugU3Yr3YAAAAAAAAAAONmYAfA1A1d884kD0lyXu0W2AgDOwAAAAAAAAA2ysAOgJkYuub4JL+e5KzaLXAN9m/70tSOAAAAAAAAAGC8DOwAmJmha76Q5EFJzq3dAhtwvSQ3rR0BAAAAAAAAwHgZ2AEwU0PXfDbJQUkuqN0CG+CaWAAAAAAAAACukYEdADM3dM0nkzwyycW1W+Aq9q8dAAAAAAAAAMB4GdgBMBdD1xyf5PFJLq3dAlfgBDsAAAAAAAAArpGBHQBzM3TNB5M8NUmp3QIrDOwAAAAAAAAAuEYGdgDM1dA1/yfJs2t3wIq92r7sUTsCAAAAAAAAgHEysANg7oaueXOSF9TugBVOsQMAAAAAAABggwzsAKhi6JpXJ/nj2h0QAzsAAAAAAAAAroGBHQA1/WWSI2pHsObtXzsAAAAAAAAAgHEysAOgmqFrSpI/SvLa2i2safvUDgAAAAAAAABgnAzsAKhqZWR3WJK31W5hzbpl25d1tSMAAAAAAAAAGB8DOwCqG7rmsiTPTHJ07RbWpPVJblw7AgAAAAAAAIDxMbADYBSGrrk0yZOTfKR2C2vSrWoHAAAAAAAAADA+BnYAjMbQNRcneVySj9VuYc0xsAMAAAAAAADgagzsABiVoWsuTPLwJJ+q3cKaYmAHAAAAAAAAwNUY2AEwOkPXnJfkoCRfrN3CmrF37QAAAAAAAAAAxsfADoBRGrrm7CQHJvl27RbWBCfYAQAAAAAAAHA1BnYAjNbQNWcmeUSSC2q3sPRu0fZlXe0IAAAAAAAAAMbFwA6AURu65ktJnla7g6W3PslNa0cAAAAAAAAAMC4GdgCM3tA1Ryc5onYHS2/v2gEAAAAAAAAAjIuBHQCL4o+THFs7gqV2q9oBAAAAAAAAAIyLgR0AC2HomkuTPDHJabVbWFoGdgAAAAAAAABciYEdAAtj6Jqzkzw8yc9qt7CUDOwAAAAAAAAAuBIDOwAWytA1p2Rykl2p3cLS2at2AAAAAAAAAADjYmAHwMIZuuajSV5cu4Ols2ftAAAAAAAAAADGxcAOgEV1RJKja0ewVHZv+7KudgQAAAAAAAAA42FgB8BCGrqmJHl6ki/XbmFpbJNk99oRAAAAAAAAAIyHgR0AC2vomvOSPCLJ/9RuYWncsHYAAAAAAAAAAONhYAfAQhu65ltJHpPkktotLIU9awcAAAAAAAAAMB4GdgAsvKFrPpHksNodLAUn2AEAAAAAAABwOQM7AJbFG5K8pXYEC8/ADgAAAAAAAIDLGdgBsBSGrilJnpfkxNotLDRXxAIAAAAAAABwOQM7AJbG0DUXJXl0ku/WbmFhOcEOAAAAAAAAgMsZ2AGwVIau+UGSRyS5qHYLC8nADgAAAAAAAIDLGdgBsHSGrvl8khfX7mAhuSIWAAAAAAAAgMsZ2AGwrF6d5JO1I1g4TrADAAAAAAAA4HIGdgAspaFrLk1ySJJzK6ewWHZq+7Jj7QgAAAAAAAAAxsHADoClNXTNN5P8Tu0OFs7OtQMAAAAAAAAAGAcDOwCW3VuTHFM7goWyU+0AAAAAAAAAAMbBwA6ApTZ0TUnyzCQ/rt3CwjCwAwAAAAAAACCJgR0Aa8DQNT9I8uzaHSwMAzsAAAAAAAAAkhjYAbBGDF3z/iTvrt3BQjCwAwAAAAAAACCJgR0Aa0ub5Lu1Ixg9AzsAAAAAAAAAkiTb1g4AgHkZuuanbV+eluSfa7cwagZ2jFrblybJDpn8b3Vzn+2v8BFlA9+/pm8vSXJuknOu8lz1r52b5Jyhay6dxn9HAAAAAAAAGAsDOwDWlKFr/qXty2uTPK92C6NlYMfctX1Zl2T3JHsmueHKs6Hv3yCT/402dUo3ru3LBZkM7s5K8v0k37vKt5d/f+iac2p1AgAAAAAAwOYysANgLfqDJL+R5Na1QxglAzumru3LjklumeRWK8/eSfbKL8dzuyfZplrg9Gy/8uyR5DYb+4FtX87L1Yd330py2srzraFrLplpLQAAAAAAAGyCgR0Aa87QNee3fXlqkk9lOQYtTJeBHVul7csOufqI7hffv1HFtLHaMb/8v8+GXNz25euZjO1OzS+Hd6cl+eHQNeUafh4AAAAAAABMjYEdAGvS0DUntX15eZIX125hdAzs2Ki2L+uT3CHJfkn2X/n+rTI5kY7p2S7JbVeeqzqn7csVB3dfTfKFTE69M7wDAAAAAABgagzsAFjLXpLkoCT/q3YIo2Jgx+XavuyUZN9MhnT7rTz7ZDL+op6dk9xp5bmiH7d9+WKSz2cyuDO6AwAAAAAAYFUM7ABYs4au+XnblydnMsBYX7uH0TCwW6Pavlw/Vx7S7Z/k1kmaml1skV2THLDy/ILRHQAAAAAAAFvNwA6ANW3omq+1fXlxkr+u3cJo7FA7gPlo+7JXkvtc4bl93SJm5JpGd19I8u9JTkjy2aFrLqrQBgAAAAAAwMgZ2AFA8qokD0ty79ohwGy0fWmS3DxXHtTdsmoUNe2a5DdWniS5oO3LiUk+nsng7nND1/y8UhsAAAAAAAAjYmAHwJo3dM2lbV8OSXJykmtXzgGmYGVQd7tceVC3V9Uoxmz7JA9YeZLk/LYvn8ovB3efH7rm4kptAAAAAAAAVGRgBwBJhq75RtuXv07yJ7VbqK7UDmDrtH3ZLcmDkhyU5IFJdqtbxALbIVe+Vva8ti//nsng7uOZDO4uqxUHAAAAAADA/BjYAcAvvSLJ/45TrmAhrJxSt28mg7qHJLlbkm2qRrGsdkzymytPkvyw7ctHknw4yb8OXXNBtTIAAAAAAABmysAOAFYMXXNe25c/SPLu2i3AhrV92TGTazwPSvLgJDeuW8QadYMkz1h5Lmj78s+ZjO0+OnTND6uWAQAAAAAAMFUGdgBwZe9JcmiSe9QOoRpXxI5M25eb55en1N03ybWqBsGVbZ/k4StPaftyUpIPZTK4O2XoGl9TAAAAAAAAFpiBHQBcwdA1pe3LYUk+W7sF1rK2L7dI8vgkT8jkGlhYBE0mA+17JDkiyeltXz6cydjuU0PXXFIzDgAAAAAAgC1nYAcAVzF0zefavrwjyVNrt1CF06YqafuyZ5LHJTk4yd0q58A07J3khSvPmW1f/i6Ta8i/4GQ7AAAAAACAxWBgBwAb9odJHp1kp9ohsMzavuya5FGZjOrum8kJYLCM9khy2MpzStuXdyf5P0PXnFG1CgAAAAAAgI0ysAOADRi65vttX16W5OW1W5g7p0rNWNuXnZM8PJPrX38zfk3K2nPbJC9N8tK2L/83ybuSvG/omrPqZgEAAAAAAHBV/jATAK7Zq5M8M8ktaofAomv7sm2SByd5UpKHJNm+bhGMxr1Xnte2fflIJlfIHjt0zc/rZgEAAAAAAJAY2AHANRq65sK2L7+b5AO1W5grJ9hNUduXmyZ5+sqzV+UcGLP1mVxN/ugkP2n78veZnGz36aFrfF0CAAAAAACoxMAOADbuH5P8W5L71w6BRXGF0+qeleTAJNvULYKFc/0kz1l5vtr25fVJ3j10zbl1swAAAAAAANYef9gJABuxcmrQ7yS5rHYLc3Np7YBF1fblJm1f/jzJGUk+lOSg+PUmrNavJnlDku+2fXlN25fb1A4CAAAAAABYS5xgBwCbMHTNV9u+vCnJb9duYS6cELUFVk6rOzCT0+oeHIM6mJVdkjw/yfPbvvxLktclOWboGqNgAADYPOuS3D7J3VaevZJcd+W5zsq365L8dOU5e+XbHyb5fJLPJPlykovmHQ4AAEBdBnYAsHn+NMnBmfxmK8vtnNoBi6Dty40yGdU9PcmNK+fAWnPAyvOtti9vTHLU0DU/qtwEAABjtEOSJ648d0my02b8nBusPFf05JVvf57JyO4DSd6S5MfTyQQAAGDMnDACAJth6Jr/SXJ47Q7mwsBuI9q+3KHty9syuQb28BjXQU2/kuTlSb7T9uUdbV/uWjsIAABG4uZJ/jrJfyd5c5L7ZfPGdZuyPsldkxyx8tlvTbLfFD4XAACAEXOCHQBsvjckeU6S29UOYaYM7K6i7UuT5NeT/F4m18AC43KtJE9J8pS2L59P8sokf+/6WAAA1qBtkvxukpdl9n/+ce0kT1t5Xr/y3gtm/E4AAAAqcIIdAGymoWsuTvKC2h3M3Lm1A8ai7cu2bV8el+QzST4e4zpYBHdO8p4kp7R9eXrbl/W1gwAAYE72THJ8kldk/ocLPDfJZ5PsM+f3AgAAMAcGdgCwBYauOT7JMbU7mKk1f4Jd25cd2r4cmuS0JEcnuUvlJGDL7Z3kLUm+3vbl+W1fdqgdBAAAM3SbJF9J8sCKDfsk+VySAyo2AAAAMAMGdgCw5bokF9eOYGbW7MCu7cvubV/+PMm3k7w2yc0rJwGrd+Mkr0nyzbYvL2r7skvtIAAAmLLrJ/lIkt1rh2Rybew/JLlt7RAAAACmx8AOALbQ0DWnJXl77Q5mZs0N7Nq+3KTty+szGdb9aZJdKycB07dHkpcn+Vbbl5e0ffH3OQAAy2C7TAZtt6odcgXXyWTwd/3aIQAAAEyHgR0AbJ2/SnJZ7QhmYs0M7Nq+3LDty2uSnJ7ktzP5N+2B5XbdJH+SydDub9q+7Fk7CAAAVuFFSe5fO2ID9k7yhtoRAAAATIeBHQBshaFrTk/y3todzMS5tQNmre3Lrm1fXpHkG0men2R95SRg/nbM5Mrzb7Z9eX3bl1+pHQQAAFtolyQvrB2xEY9NcvvaEQAAAKyegR0AbL0jagcwE0t7gl3bl+u0ffmzJN9M8vtJtq9bBIzAtTI5wfK0ti992xfXWAEAsCiel8kJzWPVJHlx7QgAAABWz8AOALbS0DVfTfLh2h1M3dIN7Nq+7Nj25UWZDOsOT7Jz5SRgfNZncvrH19u+/H7bFwNcAADGbMeM+/S6X3hCklvXjgAAAGB1DOwAYHVeXjuAqVuagV3bl2u3fTksk6tgX57kepWTgPG7bpJXZHKi3SFtX9bVDgIAgA24X5Jda0dshm2SPKp2BAAAAKtjYAcAqzB0zUlJ/q12B1Nz3tA1l9SOWK22L9u1fXl2ktOTvDrJHpWTgMVz4yRvS/Klti8Htn1pagcBAMAV3Ld2wBa4b+0AAAAAVsfADgBW72W1A5ia79cOWK22L7+R5CtJ3phkr8o5wOL71STHJvlY25c7144BAIAVv147YAv8WpLtakcAAACw9QzsAGD1Pp7kM7UjmIrv1Q7YWm1fbtX25cNJjk9yu9o9wNK5X5LPtX15b9uXW9aOAQBgTbtOkv1rR2yBnbJYvQAAAFyFgR0ArNLQNSXJX9buYCoW7gS7ti+7tH15RZKTkzy0dg+w9B6f5D/bvvxt25fdascAALAm3SGL92cbd6wdAAAAwNbbtnYAACyJY5J8Lck+tUNYlYUZ2LV92SbJU5O8PMkNKucAa8t2SdokT2r78qIkbxm65rLKTQAArB271g7YCtevHQAAAMDWW7R/ywsARmllWOAUu8W3EFfEtn25RybXEr81xnVAPddL8qYkJ7Z92a92DAAAa8YijtUWsRkAAIAVBnYAMD3/kOTrtSNYlVGfYNf2Za+2L+9KcmKSO9fuAVhxtySfb/vy6rYvu9SOAQBg6S3iWG0RT90DAABghYEdAEzJ0DWXJHlF7Q5WZZQn2LV9uXbblxcnOS3Jk2r3AGzANkkOS3JK25fHt31pagcBALC0FnGstoijQAAAAFYY2AHAdL0zIx1psVlGd4Jd25d7Jflykpcm2aFyDsCm7JnkvUmOb/ty69oxAAAspXW1A7bCtrUDAAAA2HoGdgAwRUPXXJTkb2p3sNVGM7Br+7Jz25fXJvm/SW5TuwdgCx2Q5KttX17S9mX72jEAACyVn9QO2Ao/rh0AAADA1jOwA4DpOzJ+43QRXZDk7NoRSdL25cFJTk5yaO0WgFVYn+RPMhnaPah2DAAAS2MRf89lEUeBAAAArDCwA4ApG7rmvCSvrt3BFvv+0DWlZkDbl93avrw7yUeT3KRmC8AU3TLJcW1f3tf2Zc/aMQAALLxFHKst4igQAACAFQZ2ADAbr0tyTu0Itki162HbvjRtXw5O8p9JfqtWB8CMPTrJ19q+PK52CAAAC20Rx2qLOAoEAABghYEdAMzA0DVnJXl97Q62yPdqvLTty02SfCTJe5LsVqMBYI6un+Toti9/1/bl+rVjAABYSKfVDtgKp9YOAAAAYOsZ2AHA7LwmyaW1I9hs35nny9q+bNP25beTnJzkoHm+G2AEnpDJaXYH1g4BAGDh/DCTE+AXxc+TnFQ7AgAAgK1nYAcAMzJ0zfeTHFu7g802t3+bvO3LzZJ8PJNTDnee13sBRmbPJMe2fTmy7YuvhQAAbIlP1A7YAp9Ncn7tCAAAALaegR0AzNZbawew2eZyxUzbl4OTfCXJfebxPoAF8MwkX2n74usiAACb64TaAVvghNoBAAAArM62tQMAYMl9NJOrS25QO4RNmunAbuV0ptcmecos3wOwoG6e5IS2oCy99gAAIABJREFUL69K8uKhay6sHQQAwKj9a5ILkmxfO2QzfLh2AAAAAKvjBDsAmKGhay5O8s7aHWzSuUm+P6sPb/ty1yRfinEdwMY0SV6Y5IttX+5cOwYAgFH7cZI31Y7YDP+a5HO1IwAAAFgdAzsAmD3XxI7faUPXlGl/aNuXdW1f/ijJp5LcctqfD7CkbpfkpLYvf9b2ZbvaMQAAjNbfJPl57YhN+IvaAQAAAKyegR0AzNjQNackObF2Bxs19eth277cJMnHkrwsybbT/nyAJbcuyeFJ/q3ty161YwAAGKXvJjmqdsRGfHLlAQAAYMEZ2AHAfDjFbtymOrBr+/LoJF9J8uvT/FyANeheSb7U9uWBtUMAABilP0pySu2IDTgrydNrRwAAADAdBnYAMB9/n+S82hFco6kM7Nq+7Nj25c1J3pfketP4TACye5J/bvtyeNuXdbVjAAAYlZ8meWiSn9QOuYJLkjw6yem1QwAAAJgOAzsAmIOha85JcnTtDq7Rqgd2bV/2TfLFJM9YfQ4AV9Ek+bMkx7V92aNyCwAA43J6JoO2i2uHrDg0ycdrRwAAADA9BnYAMD+uiR2vVQ3s2r4cnOSkJLeeTg4A1+CATK6MvVftEAAARuWEJL+W5OsVG36S5BFJjqzYAAAAwAwY2AHA/JyY5NTaEVzND4euOXtrfmLbl23bvvRJ3pNk++lmAXANbpTkhLYvv9v2pakdAwDAaHwuyX5J3lnh3Sck2TfJhyq8GwAAgBkzsAOAORm6piQ5qnYHV7NVp9e1fdk9yfFJXjjdHAA2w7okf53kH9u+XK92DAAAo3FOkqcmOTDJcXN432eTPCXJA5N8dw7vAwAAoAIDOwCYr3clubR2BFeyxQO7ti93SvL5JPeffg4AW+BhSb648nUZAAB+4Z+SPDjJrZO8OsmPpvjZ52Ty+zt3W3n8Xg8AAMCSM7ADgDkauuYHSY6p3cGVfG1LfnDbl0OSfCrJTWdSA8CWulmSE9u+PKd2CAAAo/NfSV6Q5AZJbpnkiUlek+TTSb6d5Gcb+bnnZXIq3ReTHJnk6Un2SXK9TE6t++zMqgEAABiVbWsHAMAa9NYkD68dweW+sDk/qO3L+iSvTHLobHMA2Arrk7yh7csdkrxg6JpLagcBADAqJck3Vp6/u8p/ti7Jzkmum8mfmZyVyfDu4nkGAgAAMF5OsAOA+Ts2yQ9qR5Bk8hvsX9rUD2r7csMkH4txHcDYPS/JMW1frlM7BACAhXFpkp8mOSPJ6Ul+HOM6AAAArsDADgDmbOVUnXfU7iBJcurQNedu7Ae0fbl7Jqfc3Ws+SQCs0m9mcmXsLWqHAAAAAAAAi8/ADgDqeFvtAJJs4nrYti9PSfLJJDeaTw4AU3L7JJ9p+2IcDQAAAAAArIqBHQBUMHTNqUn+vXYHGx7YtX1p2r78SSYnDW433yQApmS3JB9r+/Lk2iEAAAAAAMDiMrADgHqOqh3A1Qd2bV+2S3JkkpfMPweAKVuf5J1tX17a9sU//wIAAAAAAFvMHzAAQD3vT3Jx7Yg1rCT50hX/QtuXnZN8OMkzqhQBMCsvTnJ025cdaocAAAAAAACLxcAOACoZuuacJCfU7ljDTl35/0GSpO3Lnkk+keRB9ZIAmKHHJPlE25cb1Q4BAAAAAAAWh4EdANR1TO2ANezy62Hbvtw+yUlJ9quXA8Ac3DnJZ9u++HoPAAAAAABsFgM7AKjLwK6eLyRJ25f7JjkxyU2r1gAwL3sl+eTK138AAAAAAICNMrADgIqGrvlGkv9Xu2ON+kLbl4OTHJ/kOrVjAJirnZL8U9uXh9UOAQAAAAAAxs3ADgDq+0jtgDWoJLlvkvckWV83BYBKrpXkA21fnlQ7BAAAAAAAGC8DOwCozzWx83d2kj+vHQFAdeuSvKvty/NqhwAAAAAAAONkYAcA9X06yU9qR6wx160dAMCoDG1f/qTtS1M7BAAAAAAAGBcDOwCobOiaS5McW7sDANa4lyTpjewAAAAAAIArMrADgHH4SO0AACAvSHJU25dta4cAAAAAAADjYGAHAONwfJJLakcAAHlakqPbvlyrdggAAAAAAFCfgR0AjMDQNWcn+WTtDgAgSfKoJMe0fdmpdggAAAAAAFCXgR0AjIdrYgFgPB6Y5F/bvlyvdggAAAAAAFCPgR0AjMcxtQMAgCu5W5Lj2r7sUjsEAAAAAACow8AOAEZi6JrTk5xauwMAuJK7Jfmo62IBAAAAAGBtMrADgHFxTSwAjM+9kny47cv2tUMAAAAAAID5MrADgHFxTSwAjNP9knyw7cu1aocAAAAAAADzY2AHAOPyqSQ/rR0BAGzQbyb5h7Yv62uHAAAAAAAA82FgBwAjMnTNJUmOq90BAFyjhyZ5T9uXbWuHAAAAAAAAs2dgBwDj85HaAQDARj06yTvavqyrHQIAAAAAAMyWgR0AjM8/Jbm0dgQAsFFPTPKWti/+uRoAAAAAAJaYPwgAgJEZuuasJJ+u3QEAbNIhSV7f9qWpHQIAAAAAAMyGgR0AjNOnagcAAJvl2UleZWQHAAAAAADLycAOAMbpM7UDAIDNdliSF9WOAAAAAAAAps/ADgDGycAOABbLX7Z9+a3aEQAAAAAAwHQZ2AHACA1d870k36ndAQBskbe1fbl/7QgAAAAAAGB6DOwAYLxOqh0AAGyR7ZJ8sO3LPrVDAAAAAACA6TCwA4Dxck0sACyeXZIc1/Zlr9ohAAAAAADA6hnYAcB4GdgBwGK6cZKPtn3ZpXYIAAAAAACwOgZ2ADBeX0xySe0IAGCr3DHJ+9q+bFc7BAAAAAAA2HoGdgAwUkPXnJ/kP2p3AABb7YAkR7Z9aWqHAAAAAAAAW8fADgDG7aTaAQDAqhyS5PDaEQAAAAAAwNYxsAOAcftM7QAAYNUOb/vytNoRAAAAAADAljOwA4Bxc4IdACyHI9u+PKB2BAAAAAAAsGUM7ABg3P4ryVm1IwCAVds2ydFtX25WOwQAAAAAANh8BnYAMGJD15S4JhYAlsWuST7Q9mX72iEAAAAAAMDmMbADgPEzsAOA5bFfJtfFNrVDAAAAAACATTOwA4DxM7ADgOXypCRt7QgAAAAAAGDTDOwAYPw+WzsAAJi6V7Z9uU/tCAAAAAAAYOMM7ABg5Iau+XGS/6rdAQBM1bok/9D25ca1QwAAAAAAgGtmYAcAi+Gk2gEAwNTtkeT9bV+uVTsEAAAAAADYMAM7AFgMn6kdAADMxF2TvK7tS1M7BAAAAAAAuDoDOwBYDE6wA4Dl9fQkz6odAQAAAAAAXJ2BHQAshv9IckntCABgZoa2L/eoHQEAAAAAAFyZgR0ALIChay5OckbtDgBgZrZL8v62L3vUDgEAAAAAAH7JwA4AFsfXawcAADO1Z5Kj2r40tUMAAAAAAIAJAzsAWBwGdgCw/B6S5Lm1IwAAAAAAgAkDOwBYHAZ2ALA29G1f9qkdAQAAAAAAGNgB8P/Zu88wS8qqX+N3zQxRMgICKkGyoIBKlCQKCIJKEAmKERMtaiGYwZcgiq1IgYogIkERBBQUzJIUEQOoSBKUHCXDABP2+bC6zzTjhJ6Z3rWq9r5/11VXDzOeef7nne69a9eznrXUJhbYSZLUHxYAvj8w2FkoO4gkSZIkSZIkSf3OAjtJktrDAjtJkvrHusAXs0NIkiRJkiRJktTvLLCTJKk9bs0OIEmSajUwMNjZKTuEJEmSJEmSJEn9zAI7SZJaoiqLp4B7snNIkqRanTow2HlBdghJkiRJkiRJkvqVBXaSJLWLY2IlSeovzwe+OzDY8fO7JEmSJEmSJEkJfEAvSVK7WGAnSVL/2Q44MDuEJEmSJEmSJEn9yAI7SZLaxQI7SZL609EDg531s0NIkiRJkiRJktRvLLCTJKldLLCTJKk/zQ98f2Cws3B2EEmSJEmSJEmS+okFdpIktYsFdpIk9a+1gM9nh5AkSZIkSZIkqZ9YYCdJUrvcmh1AkiSl+tjAYOdV2SEkSZIkSZIkSeoXFthJktQuDwKPZ4eQJElpxgHfHhjszJ8dRJIkSZIkSZKkfmCBnSRJLVKVRQfHxEqS1O/WAw7ODiFJkiRJkiRJUj+wwE6SpPaxwE6SJH12YLCzdnYISZIkSZIkSZJ6nQV2kiS1jwV2kiRpfuDkgcGOn+slSZIkSZIkSeoiH8RLktQ+FthJkiSAzYAPZoeQJEmSJEmSJKmXWWAnSVL7WGAnSZKGHT0w2FkpO4QkSZIkSZIkSb3KAjtJktrHAjtJkjTsecA3BwY7RXYQSZIkSZIkSZJ6kQV2kiS1zx3AlOwQkiSpMXYA9s0OIUmSJEmSJElSL7LATpKklqnKYgrwSHYOSZLUKMcODHaWzQ4hSZIkSZIkSVKvscBOkqR2ejQ7gCRJapSlgGOzQ0iSJEmSJEmS1GsssJMkqZ0ssJMkSdPba2Cws0V2CEmSJEmSJEmSeokFdpIktZMFdpIkaUa+NjDYGZ8dQpIkSZIkSZKkXjEhO4AkSZorFthJkqQZ2QB4J3BydhBJEuOABYGFZvO1AJ4cup6Y7utTQKfu4JKknrcQsAjxPrTALL5OZtp71PSX71FSrgKYH3ge8fM88uvzhv7s6aFr4gy+Dv96Ut3BJanPFMDixP3VrO69JhCvzTO793q27uB6LgvsJElqJwvsJEnSzBw1MNg5pyoL7xckaWwVwGLA8sAKs7iWIgoX5h+DNTtEAcNwwd2MivBGfn0A+NfQdRtumEpSv1kYWAN4MfCCoWu5oWvkrxcdo/WeAu4D/g3cOvR15HU/FuFJs1IAywCrDV0vIn4+py+Ym9nXsdjrn0IU2j0O3APcPeKa/r/vH/rfS5LiNXw54t5rBf73nmvkvddYvF5PJl6r72DG913/IZ4NqEsssJMkqZ3cMJckSTOzDPA5oMwOIkktVBAPwdcFXjr0dXWmFc8tnJBnuAvJnJpCFNn9C7iFaYV3txAP4yeOUUZJUr0Koth7TWCtEdeawEo1Z1kYWGXoes0M/vwpYrP3b8Afhq5rgGdqyic1wTjiPnK4iO4lI369GlEsl2k80+43X0B0xp+ZqcC9RLHd7cB1wD+Gvt6Ehzsk9ab5idfu6e+71iI609VlArDk0PWymfxv7ic+81/NtHuv/+CBhzFhgZ0kSe1kgZ0kSZqVDw8Mdr5VlcWN2UEkqcGez3ML6Ya/LpkZagyNB1YdumbkTv638G7462N1BJQkjcpSwCbApsBmwCuJjqptsDCwztD11qHfexb4C9M2ff9AFOq48as2m0AUuI4snhv+9arE6L9eMFwsuALxWrTriD+bRBTZ/YNpRXf/IA522PVOUlsURPHcpiOutYnP122w7NC1KfDhod+7n+fed11NdMDXHLLATpKkdnKzQ5IkzcoE4CvATtlBJKkhFiEeMG859HVdYkxLP3vh0LXVDP7sLuBy4LKh63qiY4kkqbvGEcVowxu6mxGbvL1kfqJgcJMRv3cv8EvgR8AvcNNXzfd84NXEveWWwMtx330+4sDKS4E9R/z+08S95J+Zdn95GxbVSmqGRYGNmHbvtQlxuKGXLAvsMnRBfLa/FvgJ8GPi4IOvyaNQZAeQJElzbmCwsz9wYnYOSZLUeDtVZXFRdghpHq1EjLPopluI7hLqHUsTm55bEJueG9KeE+dN9F+eW3B3LTA5NZEk9Y7Fge2IwzE7Asvkxkn3DPArYsP3QqL4Tsq2ItOK6bYgisg09+5g2r3l5UQBnsUdvePjwJe6vMbRwCe7vIZ6UwGsQdx3vYF4Te/3Auk7gAuIe69LiW7DmgEL7CRJaqGBwc6ewFnZOSRJUuPdBKxXlYUPRtRmFthpNFZkWjHdFkSHOnXP48DvmVZwdzVRECFJGp01iE1dN3ZnrUOMMvsx0d3uxtw46hMFMdZ1yxHXqqmJet+DRKHdcNGdhznazQI7Nc38xGv5G4jCOp//zNyjwMXEfdfFOFHtObxhlySpnR7NDiBJklphDeAAYlysJPWS8cToljcRY07WyI3TdxYFth+6IIrr/sC0grsrgSdzoklSY60HvJ1473Jjd3QKpo1sO5p4fzkROBuYmJhLvWUcsDbPLahbITVR/3k+8OahC+Iwx8+JAo+LgIeTcklqrwWIYrq9ic+ti+TGaY3FgbcOXU8RzV5OJA7V9X2nUTvYSZLUQgODnU2JbgGSJEmz8xiwelUW92cHkeaSHew0bEFgW6YV1S2bG0ezMBn4M7Ep+n3gttw4kpRmGWJjdz9gg+QsveQR4DRiw/efyVnUTgsRhRd7AtsAS+fG0SxMBi4h7isvIEYZqtnsYKcsBfAq4r7rrcBSuXF6yjXAt4Az6eOudnawkySpnexgJ0mSRmsx4HDgfdlBJGkuLElsfr4J2AF4Xm4cjdIEYOOh6wvAFcD3gHOIEWCSmuNlwFe7vMa1wMe6vEaTDHdM2Q/YEffiumEJ4MND1xVEod0PgaczQ6nxxgOvIYpedyU+K6v5JgCvHbqOZ9ohjh8B12FHJbXPJ4DXdXmNo4Bfd3mNJnkhsC9x77VWcpZetT7wdeAY4hDdicCfUhMlsIOdJEktNDDYWRG4MzuHNBMPE5tmI68HZvB7T9CdByDjiDbWz5/Btcx0/71oF9aXpCaaAqxdlcXN2UGkuWAHu/7zAmB3oqhua2IzVL1hMjHu60yiA4ljZNVN7waO6/IaJ9L+wrEtiNHO3XQJ0SGq161MFHzthx1TMjwEnAIMAvcmZ1FzFMArgX2IbnUvyI2jMXYLUWh3LvAHLLZrCjvYzdppwNu6vMY+xAGnXjaOOIR3IFGwaO1T/f4CfIUYIzslOUstPDUjSVI72cFOdXmaeCg5owK5GV0PVWUxOSfqnBsY7CxAjICYvvBuZgV5y+E9tKR2Gg8cSpzmlKQmmg94PVEQsxMW1fWqCcS/707AU8SG6JnAL4FJibnUmyYAC3d5jfm7/PerHTYCSqI4fFxyln62FHAQcADwTaK4457URMq0BlFgsjcepOllLyFef0vgBqLI9nQsspV62YLE882PAWsnZ+l3GwJnAJ8DjiA627Vmf3BuuDkoSVI7PQlMxYd2Gjv3Ew8hbgCuH/Hr26uymJoZrJuqsngGuHvomq2Bwc58wKrEB7e1iXbjw79epEsxJWms7D0w2PlCVRbXZQeRpBHWBN4FvB07ivSbhYlN772JwzpnE10WriQ+70pSk40DdiaKOrZIzqLnWhD4CPB+4FvAFxnlcx+13gpEl7p9gFckZ1H91iIKa78A/IQotruIHi/2kPrI84EPEIX0yyZn0XOtQXRm/CxRaPc9evS11wI7SZJaqCqLzsBg5zFgiewsapWpRNv8G3huMd2NVVk8lBmsLaqymATcOHT9aPj3BwY7BbAizy24Gy7Ac6NYUlMUwOeJzhqSlGkRYA+iW93myVnUDM8HPjh03UY8kP8e8I/MUJI0AwsC7yC6pqyeG0WzsSAxsvd9TCu0uys1kbphCWBXoqhuGxwRqOiE/cah616i6OMU4nmupPZZjbjvegewUG4UzcbqwHeJQrsjie52PVVoZ4GdJEnt9SgW2GnGnuR/O9HdAPxrqGObxlhVFh3gzqHrVyP/bGCwsyTTCu9GFuCtgl0oJdVvt4HBzoZVWfwlO4ikvlMAmxBFdXti91/N3ErAJ4eua4BB4Cx67MG8pNaZQHRb/TzwwuQsmjMLAAPA/sDJxIavo2Pbbz3gEOIA2QLJWdRcLwAOHrquIArtzgGeyAwlaVRWAA4lniGMT86iObMa8B2i0O5wYnT3lNREY8QCO0mS2uvR7ABqhPuBy4HfAX8nCunuGir4UgNUZfEwMebqypG/PzDYWZBonb0WsA6x4bw5bjZL6r7DgZ2yQ0jqGwsQI0BL4KXJWdQ+6xMP4w8HjiEe0k9MTSSp3xREF6SjiMNyaq8FgA8RhZKHARUwKTOQ5sqmwKeAN2QHUeu8eug6Dvg28FWic7KkZlmCKIr9CHasa7tVic/wBwxdf8iNM+8ssJMkqb0ssOtPtxAFdVcMfb3ZYrp2qsriaeBvQxcAA4OdCcQm4lbAlsAWwJIpASX1sh0HBjubVWXx++wgknra4sRIto8AyydnUfutDJwAfA74CvBN4LHMQJL6wpbA0URBj3rHokR31PcQne1+nRtHo1AAryMK67ZKzqL2WwQ4kCj2+AFxiOOa1ESSIEa7H0C81rsn0lteQTSg+A7wCaJxSCtZYCdJUntZYNf7OsC1TCumu6Iqi7tzI6mbqrKYDPxp6BocGOyMIzq9bDl0bQUsl5dQUg85AnhNdghJPemFxIbV+4gNbGksLQd8kRgfewLwNeCB1ESSetF6RGHdjtlB1FVrA78ixkWWwB25cTQD44A3E+/7r0jOot4znui0vTfwS+BLRMGth9mleo0H9gM+TzxPUO96J7ArcXDu68Dk3DhzzgI7SZLa69nsABpzzwJ/JIrpLgd+X5WFhZR9rCqLqcTo378DJwwMdgpgNaZ1uNsSWCkvoaQW22ZgsPOaqix+kx1EUs9YFziI2KCaLzmLet8SwKeBjwEnAV/GwghJ825RYnP3QKKwR/1hD2An4Eiis90zuXEEzA/sAxwCrJmcRf3hdUPXNUSh3Tm0sPBDaqENie7kr8oOotosThyUG+4kfGlunDljgZ0kSe3lplX7PQb8jmkFdX8aGhsqzdDQOOCbh66TAQYGOysRo2SHC+588ChptI4YGOxs7qhxSfOgIO4/Pk5sTEt1Wwj4MPBB4HSiu92NqYkktVEBvAk4Djun9KuFiQK7dxLvKxfnxulbCwPvJu4tX5ScRf1pfeB7wFHAV4FvA0+mJpJ606LA4USBlYca+tN6wCXA94lOwvekphklC+wkSWqv+bMDaI49DfyCaDl/BfD3qiym5EZS21VlcRtwG3AGwMBg5wU8t+DuZXnpJDXcpsDrgYuyg0hqnQLYnujys1FyFgniOfc7gXcA5wJfAP6SGUhSa6wEHA+8ITuIGmE14vPRyUSX1Mdz4/SNJYAPEd0jl0nOIgGsTHRYOnTo61fx9UAaCwUxIvRrwIrJWdQMexHPl95PdA9tNAvsJElqLzvYtcMTwE+A84CLq7J4IjmPelxVFvcSH0TOARgY7LyQ+NC6B7A58SFWkoYdMTDYudgudpLmwMbA0cDWyTmkGSmA3YeunxPdRy5LTSSpqeYDPkoUTyycnEXN8x5gW+BtxPQJdceyxM/hh4huRlLTLEUcKjqA6LZ1IvBsaiKpvVYhDjXsmB1EjbMUcDZwJvF6+0hunJmzwE6SpPaywK65/gv8mCiq+7VjX5WpKos7iTE3xw0MdlZgWrHdFlhsJwk2AHbAEUiSZm8tYnTartlBWmYy0e3iidlc44BFRnGNrzd+q20/dP2Q2Ly/MzeOpAZ5OTFWer3sIDV5imnvN9O/Jw3/97PA84gip8Wm+zr864XqDp5sFaJI+0tEIaZFNWNnAvAB4Ajie0tz5klmfV/5JDCR+Jmd3b2lBcajswzxfPUjwGeBs4CpqYmk9hhHjIL9Av1xLzGVmd9vjbwKZn3ftSj9V8+1D7AVsB/wm+QsM9Rv/yCSJPUSC+ya5W6ioO484PKqLCYn55H+R1UWdxOnxI4fGiW7K9HdYyvig66k/nQwFthJmrkVgcOI8ZsWd4WHgJuGrpuHrgeZecHCWCmABYgCiOk3R5cHVgfWGPHVTjBhd2Ik+mHEKKJJqWkkZRpHFEd8AZg/OctYmgr8m2nvTcPvTzcRxcVTxmidCcDixBjVtYeudYa+rkJvPlcYB3yCOJT0NuAfuXF6wibAN4D1s4M0yBTiZ3j4vvIm4D/Ao/xvQcZTjG1h13hmfG+5ODEmdeT95cr05s/5nFiV6LD0ceCTRMdkJwJIM7c8cCqwXXKOsfYEM77vupnovjYWrwvDn/+XIw48Dt9zDV9Lj8EaTfRC4NfAscCniILxxrDATpKk9rLALt8tREHducDVVVl4ak2tMTRK9uvA1wcGO8sBbyI6222DD8ukfrP1wGDnlVVZ/Ck7iKRGWRI4BDgQWDA5S4YnmfHD8puJjtUZOsDTQ9fsMhTE2LXhDdGRm6Or0R+dA0Z6HnAM8A7ggzg2VupHKxIbvK9NzjGvHgYuBX4P3EC8L91KPd3VJhPvP/8FrpruzxYk3meGN33XJQ7zPb+GXHVYH/gTsdF7LHaumhtLA0cT43f7UQe4g+feVw5//Td5BwCmAI8NXbOzAFFgNv2hjjWAFboVsKHWJw4qXkIU4U7/migp9htOpv2FYNcDvwX+yrTX7nvpfnHt8Of/24aun0/358vw3AMPGxJF7L1SA/YRojBzX+L/9o3QK//HlSSpH1lgl+PvTOtU9/eqLDyhptaryuI+4ETgxIHBzjLEh9/dgW2xU43ULz4O7JkdQlIjLESMb/kksERyljpMIjbE/gDcSL0PzLupA9w3dF0+3Z+NIwpNhjdF1wK2IMaGFzVmzPBSojDldOK9777cOJJqshvwLWCp7CBz4XGiKPg3xObu3xi7jnRj6Wki299G/N44oghlO2Jk9+a0+3nmAsAgsDOwIw3rqNJg44B3AV+knT+Dc+NeovDqGqYV0d1C+79nniEKTa6fwZ8tQhziGL6/fDmwNVEA0su2Jj5HnAd8mih8lvrd84CvAu/NDjKX/kXcc/2WeC2/JzXNzD0wdI08PLYY8bq03dC1ev2xxtQ6wB+JZ1TfTM4CWGAnSVKbtfmBVNtcRXxIPr8qi5uzw0jdVJXFA8BJwEkDg52lmVZs91r8/CD1st0HBjurVmVxa3YQSWkKYB+is8iKyVm6aQpwNdMemP+e6FbXT6YSHVTuIAo2hi0BbEl0NN6G2BjtVW8DdgE+Q4ypa2KxiqR5twgxGvpd2UHmwESiMHq4oO4vROe4NppK5P8LcX+xCNHVbnjTd628aPNka2IMe9uLpeqwATE9YZPsIF12P1GEMXx/eRMMgF11AAAgAElEQVTtPqgxN54gCgqvGfF7BVEcMXxvuTW9W2S5K/BG4NtEp8usjtdStlcRY5TbVNh1O9Puu35LfE5uq8eAC4YugFWYdt+1LTH+u20mAK/HAjtJkjSP5s8O0OOuJ4qMfliVRZtvqKW5VpXFf4kHQ98eGOwsRWxC7gG8Dot8pV4zDvgocSJQUv9Zkygy2iY7SBcMb+4PPyy/gugGpP/1CM99GL800wrutgbWy4nVNYsDFfBOYmyso72k3rIG8GPaUcTVITZ2vwucTxSq9KIngJ8OXQAvBt5AvA6/MiuUumJx4HDgQ8RnzV7zIFFQdwlxf3k9/VdQNxod4Lqh63jie2E9phXcbUU7iz1mZjywP1FsdxBwGn5fqL+8n/h81YYapIeBs4if06vo3Z/VfzM0uYj4d3kV8BbiwFnbR/emaMM3tyRJmjGLW8beJKJT3TeAyxz/Kk1TlcVDwKnAqQODnSWAtwIHEGO2JPWGdw0Mdg4bKq6V1B8WIkbBHkLvHODpANcyraDuMuDR1ETt9V+i0OP8of9ehtgI3ZrYFF0nJ9aY2xC4EjiZ+HnwfVBqv9cD36f5hRs3EEV1Z9Lubilz63aiu9nXiVGy7wH2pfn/bpq54Y7IXwaWS84ylh4iRsxfQtxfXkcc4tCcmUrcp18LHEsUpK3PtIK7LYjukG33fOIZ6juBDzDjkbpSL5kfOA54X3aQ2ZgMXEQU1f2EGHvdTyYTn3uvBD5BTC56L9HZTqNkgZ0kSe1lgd3YuY04wXFKVRb3ZYeRmq4qi0eAbw4Mdk4kNlkHiA9kvXgqWeonCxMdfA7PDiKpFtsRG9ovyQ4yBiYSRWDnEhufD6Wm6V0PAD8cuiA2zrcF9gZ2IDZJ26ogNhd2JQpOv4Mb51IbFcDHiXGkRXKWmfkvUfx3GvAnerdjypy6hjjEdzCwG1Fst2VqIs2pdYh7y62yg4yRm4HTgQuBv+F9QTdMAf48dH2ZqFt4BbAj0V1plbxoY2IropjwS8CROFZavWk54vPhq7ODzMKfifuu7xOfaRXFhT8YulYF3k0UBS+fGaoN3ACTJKm9LLCbNx3ilMpOwEuqsviCxXXSnKnKolOVxSVVWexGPPQ6ihiTIam9BgYGOwtlh5DUVcsTD5Z/TvuL6y4jHgS/gOiWch4W19XpPuB7xHi/FYGPEQUSbbY00cnuCqKjiqT2WJjoBPdFmllcdzWwO7ACcUjtaiyum5GniKKmrYjxvsfgZnjTLUL83F1L+4vrHiYmm2wKrEkcPrsGi+vqMpkY1Xgo8TllS+K+7LHMUPNoPuDTwD+IAylSL9mQuJ9pYnHdJOBbwLrEGPrj8H5iZm4lXqdeDLyRKCz3fW8mLLCTJKm9LLCbO/cRJ8ZWqcpi56osLqrKYkp2KKntqrK4vSqLTwMvAvYjTuJLap9lgLdnh5DUFeOJLpU3EKPe2+oWYtNtVWIT9xTavenWK+4DvgpsALwcGATuTU00bzYlOh38H+3uzCf1ixcDlwN7ZQeZgd8TRRUbE51Wn82N0yo3Eh3tXkh0Ge3HMbpNtxkxLvVg2js1bTJwAVEAuzxxv/wHLIDN1iFe199LHKbZC/gZ7S36WBW4mOgWtUJyFmks7AX8jtgLaJJngOOJIt33Ee9RGp3h98NdgJWJqV+TMwM1kQV2kiS1lwV2c+a3wFuAF1Vl8ZmqLG7LDiT1oqosnq7K4jRgI2AT4AzixJik9jhoYLBjMYHUWzYErgROABZLzjI3HiVOn78aWJ0oevp3aiLNyt+Ag4jNltcDZwFPpyaaO+OAzwK/JDZ2JTXTekTHow2zg0znUmKM9quJrrEW68y9Z4kuVqsT3f/aXMDdKwrivf5SosC1jf4MHEgUO72RKIB9JjWRZmYicT/5eqLg9uNER7g2egtx4GkAD3GonQrgk0Qn8wWTs4w0kTjwtSrx82VR/ry5A3g/0c31u7S3uHnMtfU0gSRJssBuNB4BTgVOrMrihuQsUl+pyqJDbHJcNTDYOYg4cfoBPKUptcFqxAbDedlBJM2z+Yhub5+kfQdtpxBdKk4jRpRMzI2juTCZ+Df8GbA40Rnm7cS4rzbZhhgPtw/w6+Qskp5rE+AiYMnsICP8khgreXl2kB403JXmFOBDwCHEaG/VaynieevOyTnmxt3ECOLTsatRW90DfJnolvxyYorGPkQ3/rZYlBhXuc/QdUtuHGnUCuBLRIF1UzxJHCQcBO5PztKLbgXeARwNfJ4oEu5rbXuwJkmSgIHBToEFdrPyR+CdwApVWXzU4jopV1UW91VlcQTRWvwtwGW5iSSNQpkdQNI8ewmxuf9p2vUM8AbiNeiFwBuAs7G4rhc8CnybGOu7KlH42aYORMsRRTOHYrcRqSleRxS9NqW47hfEeOntsLiu254CjiHeTz6Ho+LrtAnwV9pVXDeVGMu5HdFt7xNYXNcLOsQBiI8CKxLfk+fSri5LGxP/f3g7UbgkNdl44CSaU1z3FHAksd9wCBbXddsNwJ7A+sQY2b7VpodrkiRpGrvQ/q+niBv8V1RlsXFVFqdWZeFGnNQgVVlMqsrinKostiI+jJ2EG+ZSU202MNhZLzuEpLlSAG8jNms2Ts4yJ/4O7AG8FPgK7Sq+0pz5NzHmd1Xgw0Q3mTYogMOIUY/L5UaR+t5uwE+BhbODAHcReXYA/pCcpd88RnQLXAU4iuhio+4ogI8RxaNtGQk7hRhrtxbwVqJQfkpqInXLJOAnRLfktYl/97b8Wy9C5D2T6PgsNdECRKHyu7ODDLkQWAf4DPBgcpZ+cy0x9WRj4n2171hgJ0lSO9m9bprhU6srV2Wxf1UWf8kOJGn2qrK4tiqL/YnuNAcRG62SmmX/7ACS5tjixObMacRmTRtcA+xKFN//kHZ1ndC8mQhURLfFDwJ35MYZtW2J79utk3NI/epdRHfT7GdjU4FjiWKO84huSsrxENGxdx1iZLDG1pLA+cT4vTYc+p5MdM1dkxhrd3NqGtXtJuLffS1inPTk1DSjtxdRuLJ5dhBpOosQBW27ZQcB7gTeTBR43Zacpd/9kegMuyt9djjSAjtJktop+yFiE0wEvgysUpXFwVVZPJAdSNKcq8rioaosBoHVgV2APyVHkjTN2wYGO03oCiJpdDYjin72yg4ySn8i3vs3JDZtLazrX08D3wBWI4q7/5OaZnReQIym/AyOjJXq9CGicCZ7b+tq4JXEaMLHk7NomtuJ8fL7YEebsbIRMRL2jdlBRmEScCLxfOk9wC25cZTsX0S3rTWAbxHfH023EnAZ0TG5DcWs6n2LEN27X5ecYwrR5X4d4Ed4qKFJzicOm5ycHaQu2R9CJEnS3OnnAruJxInJVaqy+HhVFvdnB5I076qymFKVxYXEw9tdgX8mR5IUnbDekh1C0mxNAA4lRnatnBtlVK4CdiTe8y/Eh+Oa5lngJGIj9N3ArblxZmscMZrwYmDZ5CxSP9gXOD45w2NEkd+mRNGRmqcDfI/YhP9ecpY2K4CPAFcQRT9N9ixwAtER9/20o1Bf9fk38D7iIMfXie+XJhtHfLa7lHZ8tlPvWoDo0LtZco4/EocaSjzU0FSPAO8lOr03/TP8PLPATpKkdurHAruniVMqq1ZlcVBVFvdlB5I09qqy6FRlcT7wMmA/fDAqZXNMrNRsKwOXEF0Omv6c7/fA9kRRwsVYWKeZm0SM9FqTuB9s+mi31xHdI7fKDiL1sF2AU5MznEWMHPw60UlFzfYA0cnuDcRIOY3eEsC5wFdp9jPop4GvAasCB9CeUfPKcTtRIL0qUAHP5MaZrc2IkbFt6U6u3jIeOJPcznWPAh9kWqd+Nd9vgPWIyWM9O6Gg6Q/eJEnSjC2QHaBGTxMPdFapyqKsyuLe7ECSum+oo91pxMbqhwB/9qUcmw4MdtbLDiFpht5IPGjePDvIbFxKnGR+NfALLKzT6E0GTiNGzuwD3JAbZ5aWJzYUPoXP3KWxtjVwNnnjmB8FdiOKHO5JyqC591PgpURhpGbvlcBfgDdnB5mF/z/dhOiyd1duHLXMXcCHie+frxLfT021GNGJ8xRgweQs6h8FMW57t8QMlxPv3d/AQw1t8xTwcWAT4O/JWbrCD/uSJLVTP4yfeRo4luhY9zEL66T+VJXFs1VZfJ0Y9XEI8HByJKkf2cVOapYC+CRwPjHKuamuJIoitiYKjyys09yaQmwurksUuDR1I30ccCRwEbBMchapV7wSuIC8g6Z/BV5BjEhTew2P9t0SuCk5S1MVwADRcXiV5CwzM5XoPLYycBAexNS8uQf4GPH9/hXiYEdTvZP4PLVcdhD1vAL4EvDuxAxfBF5Dcz/zaXSuJu7jP0t0qO8ZFthJktROK2QH6KJngOOIwrqPVmXh6WBJVGXxVFUWXyJGORwOPJkcSeonbxsY7CycHUISEJ0LTgOOIh5+N9GjwPuJjnWXJmdRb5lCjGhcm/jM2NSize2J7j8vzQ4itdzawM+ARZPW/wYxluyWpPU19i4nCibPzg7SMPMT95fH0dyRsH8FNiY6j92fnEW95T6gBDYkDgg11aZEwcr62UHU0w4hCpgzPAzsDHyCZhe8avSeBY4AtgDuTM4yZiywkySpnZbPDtAFzxCnEFetyuJAC+skzUhVFo9UZfE5otDuq8Rrh6TuWhx4S3YISbwA+C2wb3aQWfgBsBYxUmZqchb1rseBA4mN9muSs8zMC4lCjs2yg0gttTTRDXLphLWfJMZSf5CYrqDe8gTwVqJzlWPn4HnAj2nu/eVTRPHTRsCfkrOot/2dOCD0AeLAUBO9CPgdzR7hrPbaE/hC0tp/BDYAfpK0vrrrKuKAw2+zg4wFC+wkSWqnXiqwexY4HnhJVRYfrsri7uxAkpqvKov7q7L4GLA6cDI+GJe67X3ZAaQ+twHx0HmT7CAz8R9gR2LD2nFdqsvVwKuAjxMb8E2zJPAr4mdD0uhNILpVrpyw9nXEOKvvJayt+nSIA3vb0t/d0JYGfg3skB1kJn4KrEPzx3eqd0wFvkl0UG1qp8uFibHln6K5Hc3VPi8HTkla+2tEh7PbktZXPe4HtiNGELeaBXaSJLVTL4yIfRY4gSisG6jK4q7sQJLapyqLO6qyeC/x0PWs7DxSD9tkYLDzsuwQUp/aFbiC6FjQNFOIB6TrAhcnZ1F/mgx8mRjH2sTvwYWAC4C3ZQeRWuQLwGsT1j2V6JJ1Q8LaynEpzR8L2S0vIjqtbpwdZAbuJTqo74wFF8pxD9HNayea+z14JHAGca8pzYulgfOJ4s06PQbsDnyE2CtU75tMjCHenego3EoW2EmS1E5t72B3MbBOVRYHVGVxZ3YYSe1XlcVNVVnshe3kpW7aPzuA1GcK4DPAudT/sHs0/kiM+TiEGKcnZfoPsQm6J3BfbpT/MR44jRhHKGnW9gYOqnnNKcR97jtpZjdMddddwNbEdI1+sTYxZnLt7CDT6QDfANYCzhn6bynTRcQhjmNo5uSMvYFLaP9ekfIMdw1epeZ1bySeJZxb87pqhnOJTvTXZweZGxbYSZLUTm3tYHc78GZgp6osbskOI6n3VGVxTVUWOwObE6fRJY2dfQcGOwtmh5D6xELAmcDh2UFm4HHgAGAz4NrkLNJIHWKc11rAiclZZmQQOBrHeUkzsz5wcs1rTgTeBJxU87pqlmeBAaLb6MTkLN22Mc3sjPwP4jnOB4FHk7NIIz0JHEyMD/9jcpYZ2YjItWF2ELVSRtfgPwKvBv5V87pqlhuIe5JzsoPMKQvsJElqp7adSppE3KyvU5XFj6qy8ASipK6qyuL3wDbA9rT0NJTUQIsDO2SHkPrA4sCvgL2yg8zAuUTx0gk0s4uDBPAI8H5i4+afyVmmdwhRQDQhO4jUMM8HfkS9o+4eJjaV7YCuYWcAmwC3Zgfpku2B3wBLZQcZ4WngU/TvqF61xzXEAaMB4sBRk7yQKJzdLjuIWmUv6u8a/DPgNcCDNa+rZnqc6EB/EDA1OcuoWWAnSVLLDAx2JgDLZueYA78C1qvK4lNVWTg6SlJtqrLoVGXxC2Js7KHEqXRJ86aJBT9SL1ka+DWxedMkdwC7ALsDdydnkUbrd8R94GeIQ19N8S6iWLXOQiKpyQrgW8BKNa55F7AF8Psa11Q7/I24D7smO8gY24soJl04O8gIvwHWJQ5lN+l9WpqZKcQ46bWB85KzTG8h4ELgDdlB1AqrEPdedTqTeKbgHqFG6hCd3vegJXs3FthJktQ+y9GOkTJ3E6cPtqvK4sbsMJL6V1UWz1Rl8X/Ay4HLs/NILbfzwGBnkewQUo9aFvgt8IrsINP5EbAesWEjtc2zwJFEIc2dyVlG2gX4ObBEdhCpAfYF3lzjejcQBVTX1bim2uU+YGt65/nBh4Hv0ZzuqR3gMOB1wC25UaS5chewG3Fo4unkLCPND5xPZJNmZhxwKlDns72vAm/HYmrN3HnAjsAT2UFmxwI7SZLaZ4XsALMxhThxsFZVFmc7DlZSU1RlcQPxkPy9xOgwSXNuIaIoQNLYWgG4lChka4opwMHArsCjyVmkeXUVMX7uV9lBRtiC+LlfPjuIlOhFRDegulxFjI++vcY11U6PEiNV2zxCuAAOB76WHWSEh4gN9M/TonFw0kx8B9iUZo2VngD8ANg7O4ga6yPAljWudwhQ4mu+Zu/XxAjh/2YHmRUL7CRJap8mP3y/DFi/KouDqrJ4PDuMJE2vKoupVVmcTIxzODs7j9RSjomVxtZKxH30WtlBRrgP2BY4hugyIvWCB4AdiI52TfEyYpTt6tlBpATjgFOAxWpa72Liva3Rm3ZqlInEQYMzsoPMhfHAN4kx6U3xZ6JT88+yg0hj6Bri+/qC7CAjjCdet96VHUSNsw5wVE1rTQHeCXwJnylo9K4mDqLdlR1kZiywkySpfZrYwe4+4G3A1lVZ/CM7jCTNTlUW91ZlsSewM3BHdh6pZbYfGOwslR1C6hEvIYrrXpIdZIQrgA2IzlpSr5lCFBvsQnM6M65C/NxtmB1EqtkHgNfWtNYZwBuBJ2taT71jErAfUGUHmQMLEgcK988OMsJJRPfI/yTnkLrhEWLU+SdoTpeuAvg28KHsIGqM+YDTgQVqWOsZ4E3EKFppTl0PbA7cnB1kRiywkySpfZrUwW4qcBwxDvYMx8FKapuqLH5CnN47luY8BJOabj6ik4OkebMWUVz34uwgIwwSIznuyQ4iddmFRLeRa7ODDFkWuATYJjmHVJc1iC6pdTgHeAdRKCXNjanAgcCh2UFGYTGiW2NTPq89TXTR2n/o11Kvmgp8kSgcvz85y0jHE+M5pU9Tz4GeKcAetHvEuvLdRhTm/zU7yPQssJMkqX2aUmB3JfCKqiwOrMrikewwkjS3qrJ4oiqLjwKb0JxNVqnpHBMrzZv1iA5xTelO/TjxEPwgLEBQ/7gF2JTmdFZYFPgpcVpf6mUFMbpyoRrW+gUxcWFKDWupt3WA/wMGsoPMwkJEQcPWyTmG/RvYDPhOdhCpRr8liph+nx1khC/TrHHRqt/aRIFdHd5BHGaS5tX9xAG0y7KDjGSBnSRJ7ZO9Cfcg8G7g1VVZXJOcRZLGTFUWVwOvAg4BJibHkZpum4HBTlOK/qW2WY/oVLVsco5h/wBeCfwwO4iUYCLTOus8m5wFphVHrJsdROqiN1NPt8YriS5ez9SwlvrH8cC+NK9ocwJwFrBFdpAhPyU6xTau84xUg7uIQtdjk3OMdDhwWHYIpSiI78UJNaw1AJxRwzrqH48CO9CgjogW2EmS1D6Zm9knA2tWZXFKVRaOUpTUc6qymFSVxZeI4odfZueRGqwgul1JmjMvBn4GLJUdZMiZRAfXm7KDSIk6wElE57jbkrMALAH8HFg5OYfUDQsS48i77e/ATsCTNayl/nMm8N/sECMUwLeAXbKDEO+pnyGyPJycRco0CfgosCfwRHKWYYcC788OodrtBGxXwzqfI4rQpbE2kfi83ggW2EmS1D4ZHez+C7yxKov3VmXxUML6klSrqixuAbYnxgk9mBxHairHxEpzZkngYvI7UkNs+HyQeJ+z+EAKfyK67fw8OwjxOvELmtPpUhorJd0vHh3+LGdxj/rF0cA7s0MQz4+3B44EPJgthbOBjYDrs4MMOQF4Y3YI1WZ+4Ks1rHMscEQN60jpLLCTJKlFBgY7E6j/AfuvgJdVZXFBzetKUqqqLDpVWZwBrA2clp1HaqBNBgY7q2SHkFpiQeDHwDrZQYA7ifFh3yC6jEia5r9El4cmbBCtThTlLpYdRBojKwKf6vIa9wCvG/oq9YODgIOzQxCjYDfESQDSjFxPFNmdlR2EqA05C9g0O4hq8WFgtS6v8V3iAIXPFtQXLLCTJKldlqW+9+9JwMeB7auyuLumNSWpcaqyeLAqi/2IjZpbs/NIDbN7dgCpBcYBpxNFbdn+SYyEvSo7iNRgU4DPAgPZQYhihfOBBbKDSGPgaGDhLv79DxGf2f7dxTWkJtkPOCY7BHA5sA1we3YQqcGeAPYGvpgdhDj8dSGwZnYQddVyxNjWbvox8B7sWqo+YoGdJEntsnxN69wEbFKVxZersvDmWJKAqix+BawHHJ+dRWqQN2QHkBquAL5CM4pRrwa2BO7KDiK1xPFE8cKU5ByvAc4AxifnkObFS4F9u/j3PwXsCFzXxTWkJnkD8O3sEESn1R2AR7ODSC3QAT4xdGVbGvgZ8ILsIOqaTwCLdvHvvwR4KzC5i2tIjWOBnSRJ7bJCDWucDGxYlcVfalhLklqlKounqrIYAN4CPJ6dR2qAzQcGO0tmh5Aa7GPAgdkhgN8A2xLjLyWN3mlEgeyzyTl2B04ginalNlqmy3///tidVf3j1cA55Bdenw28iShwlTR6XwTeR/5IzZWBn9LdIizlWbaLf/cdwB7A011cQ2okC+wkSWqXVbr4dz8M7F6VxXursniyi+tIUutVZXEO8ArgmuwsUrLxwHbZIaSG2gv4cnYIYmzLTlgYLs2tHxE/Q9mfk98HfD45g9REJwBnZoeQavIy4CfEiMdMJxPjLrML0KW2+hbxeXFSco4NgR8C8yXnUHs8Sxz+eTA7iJTBAjtJktrlZV36ey8FXl6Vxbld+vslqedUZXEzsClwYnYWKZljYqX/9Rrgu9khiAy748lyaV79Cngd8Ehyjs8CA8kZpCa5iugWK/WDVYiRjosn5xgkukZmj1CX2u4HwC7AxOQc2xFFs3ZK1mgcCPwxO4SUxQI7SZLaZawL7KYAnwa2rcrijjH+uyWp51Vl8XRVFu8nTm5ndzWRsrx+YLCTPZ5IapI1gfPJ7wLwNeBdwOTkHFKvuBLYCrgvOcdxRMcTqd89SIwns4OW+sGywC+A5ZNzfAb4OPmjLaVe8TOiwO3R5BxvJw5ySLNyOh40V5+zwE6SpJYY2rhedwz/yluBzauyOKoqC08cStI8qMri+8ArgX9kZ5ESLA1slB1CaoiFiRE7iyXnOBT4KDA1OYfUa/4GbAHcnpzjNGD75AxSpqlEoamHRdUPFgMuBlZLzjEAHInFddJYuwLYGrg/OcdhRMdmaUb+Drwf3wPU5yywkySpPV4CLDRGf9fpwAZVWVw1Rn+fJPW9qixuADYGTsnOIiXYKTuA1BDHM7aHYubGgcD/4YNvqVtuBl4N3JiYYQJwHnHvKfWjzxKjm6VetyDwI2DDxAxTgP2I+1xJ3XEN+Yc4CuBMYMXEDGqmx4DdgKeyg0jZLLCTJKk9xmI87GPAPlVZvL0qi8fG4O+TJI1QlcVTVVm8G3gHMDE5jlQnC+wkeOfQlWUKMdrnuMQMUr+4g9gE/WtihoWBi4C1EzNIGS4Ejs4OIdVgPHAGsE1ihmeB3YnOqZK66yZgc+CGxAzLAGcB8yVmUPPsRxwykvqeBXaSJLXHy+fx//2VwPpVWXxvLMJIkmauKovvAq8Crs/OItVk/YHBjqec1c9eBnw9cf1ngF2JTtWS6vEAUfRwRWKGpYDzgUUTM0h1upXY5HUEuvrBp4mOQVmeJA5S/Sgxg9Rv7iQOcfw5McOrgSMS11ezfBHfB6T/zwI7SZLaY2472HWAw4Etq7L49xjmkSTNQlUW1wEbYbGD+odd7NSvFgXOIUZ4ZXgCeD1wQdL6Uj97FNge+FlihjWBE4mxXlKvezvwcHYIqQbbAoclrv8I8DocxSxleBB4DXBpYoaDgZ0T11czXAt8NjuE1CQW2EmS1B5zU2D3JPDGqiw+V5XF5LEOJEmataosniA6LLwXeDo5jtRtFtipHxXAScAaSes/CbwW+G3S+pLgKeDNwGWJGfYC9k9cX6rDN4HfZYeQarA88D3yCqcnAjsS01Ak5XiMOET168QM3wVWTlxfuaYSz7MnZQeRmsQCO0mSWmBgsLM4c/5h5k5g86osLhz7RJKk0arKolOVxcnAxsDN2XmkLnrtwGAnq4OXlOUDwJ5Ja08mxsJelbS+pGmeBt4EXJeY4WvABonrS910D/DJ7BBSDSYA3weWTVp/KvBWLK6TmmAi8Xnvr0nrLwmcDSyQtL5yVcDV2SGkprHATpKkdlhvDv/3VwMbVWVxbTfCSJLmXFUWfwNeAZyVnUXqkoWBLbNDSDV6JfDVxPXfAfwicX1Jz/UwsANx2C3DAsS46sWT1pe6aYAYWSn1us8DWyWu/wHggsT1JT3XcCe7W5PWfxVwTNLaynMHjoaVZsgCO0mS2mFOxsP+ENi6Kot7uhVGkjR3qrJ4HNgb+CDwbHIcqRu2zg4g1WQJopBl/qT1DwLOTFpb0szdSRTZZRUCvQT4NnljBaVuuAA4LzuEVIPXA59KXP//gG8lri9pxu4DtgfuT1p/ANgjaW3l+BDweHYIqYkssJMkqR1GW2B3JLBnVRZPdTOMJGnuDY2M/QawKXBXdh5pjNnBTv3iGGDlpLW/DAwmrS1p9q4DdgGeSVp/N2IjVOoFTwAHAJ3sIJedQHgAACAASURBVFKXvQg4PXH9k4HDEteXNGv/AnYk3hczfANYJmlt1esc4MLsEFJTWWAnSVI7bDCbP58E7FeVxWeqsphaRyBJ0rypyuIvRJHdddlZpDG00cBgZ6HsEFKXbQO8J2ntM4BDktaWNHqXE12Ls4qCvgxslLS2NJY+TYwpk3rZfMBZwNJJ6/+EGA1rIavUbH8G3kzsBdVtaeDYhHVVr0eBA7NDSE1mgZ0kSQ03MNgZx6w72D0EbFuVxWk1RZIkjZGqLO4AtgAuy84ijZH5gI2zQ0hdtBB5o7N+DrwL8ECN1A7nkddJbj7gbGCppPWlsXA1cEJ2CKkGRwGbJa19FfBWYHLS+pLmzK+AtyetvTewU9LaqsfBwD3ZIaQms8BOkqTmWwVYcCZ/diOwUVUWl9eYR5I0hqqyeBjYHvhhdhZpjDgmVr3sMGC1hHWvBnYnp1uBpLl3AvCFpLVXAk4FiqT1pXnRAfYHpmQHkbpsF+CgpLVvAt4APJm0vqS5cxbw0aS1vwEsmrS2uutKYly4pFmwwE6SpOabWfe63wKbVGVxS51hJEljryqLp4lT41V2FmkMWGCnXrUhUCasezPRKeCJhLUlzbtPA99NWntncl63pHn1A+Ca7BBSl61M3vvDvcAOwINJ60uaN8cCX0pY90VE1031nk9jt3xptiywkySp+Tadwe+dDGxflcUjdYeRJHVHVRZTgAOJdvxSm202MNiZPzuENMYmEPfg42te916iy+kDNa8raex0gPcCP0ta/2hg86S1pbnRAQ7PDiF12QLEKO8lEtZ+AtgR+HfC2pLGzifIKdL9EHljrdUdlwGXZIeQ2sACO0mSmm+r6f77YGD/qiwcDyVJPaYqi05VFscAbwMmZ+eR5tJCRKcvqZeUwAY1r/kY0VnEzU+p/SYBewB/Slh7PNENbJmEtaW58QPgn9khpC47BnhVwrqTgV2BvyasLWlsDR/iuKjmdQvi8NkCNa+r7vk88f0kaTYssJMkqfnWGvo6BditKotjqrLwZleSelhVFmcQJ8odB6i2ckysesnqwGE1r/ks8Ebg2prXldQ9TxDjnm9JWHtF4HTcD1Dz2b1O/WB3YCBp7XcAv0xaW9LYmwS8Bbiq5nXXBj5V85rqjsuB32aHkNrCD9SSJDXYwGBnEWAxYCKwSVUW5yVHkiTVpCqLXxJFSvdmZ5HmggV26hUF8C1gwZrX3RdHtEi96H7g9cDjCWtvT3TjlJrsbOxep972IuCUpLUPBc5MWltS9zwJvAG4qeZ1PwmsW/OaGnt2r5PmgAV2kiQ123bAw8BaVVlkjJKRJCWqyuKvwKbAjdlZpDm0xcBgZ3x2CGkMvAvYuuY1vwCcU/OakupzM/CepLUPA1ZKWluaHbvXqR98DVg0Yd1fA0cmrCupHg8S458n1rjmfMSoWOtN2usK4DfZIaQ28QVPkqRm+y+wSlUWt2cHkSTlqMriP8DmwJXJUaQ5sRjwsuwQ0jxahPo3Ii8HPlfzmpLqdzZwYsK6CwPHJawrjcY5wHXZIaQu2gl4c8K69xPdkackrC2pPtcBH6x5zY2BPWteU2PnMOxeJ80RC+wkSWqwqiwurcri0ewckqRcVVn8F3gtcEF2FmkObJUdQJpHHwWWq3G9B4G9gMk1rikpz0eBvyesu8vQJTWJ3evU6xYGjk9YtwPsA9ybsLak+p06dNXpSGD+mtfUvPsddq+T5pgFdpIkSZLUAlVZPAXsRk63E2lubJwdQJoHywAH17zmvsBdNa8pKc9E4C3AUwlrHwc8L2FdaWbOB/6RHULqok8BKyesexTwq4R1JeU5APhnjeutAryvxvU0No7A7nXSHLPATpIkSZJaoiqLycAHgM9mZ5FGYYPsANI8+AwxIrYuRwE/r3E9Sc1wA3FvV7eViNc5qSlOyg4gddFa1H9wA+AKYvyfpP7yJLAH9R7i+CywaI3rad7cAfwiO4TURhbYSZIkSVKLVGXRqcriCOBdwJTsPNIsrDEw2KmzQEkaK6tQb8HLZcChNa4nqVlOA76bsO5BwDoJ60rTuwf4ZXYIqUsK4ARgvprXfQjYG5hc87qSmuGf1PuZdhmgrHE9zZvTgKnZIaQ2ssBOkiRJklqoKovvADuTM1ZMGo0CeHl2CGkuHE59m6APAHvh5qfU7w4gutnVaQJR9FHUvK40vdPx4JB6117AaxLWfQfRoUhS/zoN+E6N6x0ELFfjepp7GYd7pJ5ggZ0kSZIktVRVFhcDOwFPZ2eRZsIxsWqbDYB9alqrA+wL3F3TepKa6wlgT+q/p9ua+l7zpJlxk1e9anHgKwnrfgW4MGFdSc1zAHBdTWs9jxgVq2b7HXBzdgiprSywkyRJkqQWq8riEmA3YFJyFGlGLLBT23yhxrWOBH5R43qSmu1vwIEJ6w4CSyasKwH8kRhjJ/WiI6i/m9PVwCdrXlNScz0F7EF90y/eB6xW01qaO6dmB5DazAI7SZIkSWq5qiwuIkbPTM3OIk1nw+wA0hzYFti+prUuBT5f01qS2uMk4Ac1r7ksUfArZTg1O4DUJa8APljzmo8BbwWerXldSc12PfCBmtaaQBQXq5kmAudkh5DazAI7SZIkSeoBVVmcC7wjO4c0nZcODHbmzw4hjcI44Is1rfUAsDcwuab1JLVHB9gfuKXmdd8PvKrmNaVngbOyQ0hdMB74BvXvwb4HuLXmNSW1w2nAKTWttSfwyprW0pw5D3g0O4TUZhbYSZIkSVKPqMridOo7lSqNxnzAS7NDSKOwCtFppNs6wD7A3TWsJamdHiM2JifVuGZBFIOMr3FN6cfAw9khpC7Yn/qLlr+BXYkkzdoA8I+a1npLTetoznw3O4DUdhbYSZIkSVIPqcrim8BB2TmkERwTK01zFPDL7BCSGu/PwOdqXvMVRCc7qS5u8qoXLQf/j707jbu1rMvGfyw2kyIY5IDmlEP+M32sTHvSJLIeM620EkfMuZxAczmXqalAFDzmciyHUkANNQdEy2kLDpCiqKgMEgIKgoKAjBv2vv8vFk8O3MDe+17r/F3D9/vG3h3Hx+Rirfs61nlm/8aZ30wybZwJ9M+lSfa6+j8Zn+8k+UR1Ceg7AzsAAICBmU0nByV5aXUPuNqvVBeAjjgxyd9WlwB64+AkJzXO3C/J7o0zGacr4iUvw/T3SW7cOHOfJJc1zgT66cQkL6suQYkPJ9lYXQL6zsAOAABgmP428z/uQzUDO5h7WpIN1SWA3tiQ5BmNM3eJz4+08dkYBDE8903ymMaZ703ykcaZQL+9KsnXq0vQ3MerC8AQGNgBAAAM0Gw6WUny/CSvr+7C6N19n4NW1lWXgGKHJPlkdQmgdz6W5N8aZz46yZ0bZzI+XvIyRK1PhbosyV82zgT6b0OSp1aXoDl/j4AFMLADAAAYqKtHds9I8rbqLozaTknuWF0CCl2Y5LnVJYDeenaSSxrmTZK8oGEe4+R6WIbmN5L8duPMlyc5o3EmMAxHxd8Kx+RrSc6pLgFDYGAHAAAwYLPpZFOSJyZ5d3UXRu0XqgtAob9K8t3qEkBvfSfJSxtn7p3kto0zGY+Lk3yhugQs2F81zjs5ycGNM4FheV6SC6pL0IQfNsCCGNgBAAAM3Gw6uSrz676OrO7CaN2pugAUOS7JG6pLAL33j0m+3jBv28xfusIyHJXkyuoSsEC/nORBjTP3SXJF40xgWM5J8qLqEjTx8eoCMBQGdgAAACMwm042JHlo/GqRGgZ2jNFKkqcm2VhdBOi9K5M8vXHmE5Ps3jiTcfB9hKF5YeO89yT5z8aZwDD9U5LPV5dgqTYl+VR1CRgKAzsAAICRmE0nlyV5cJLPVXdhdAzsGKM3xMsKYHHWJzmsYd4OSZ7dMI/xMLBjSO6cZK+GeZfGsxlYnI2Z/yhspboIS/PFuAoYFsbADgAAYERm08nFSR6Y5EvVXRiVO1YXgMbOTfJX1SWAwXlukh82zHtqkt0a5jF85yf5cnUJWKAXJJk0zHt5kjMa5gHDd1yS11WXYGlcDwsLZGAHAAAwMrPp5IIk90/y9eoujMZt9jloZcfqEtDQc5L8oLoEMDhnJXlJw7wbJdm3YR7D99nMryqDIbhtkr0b5p2U5OCGecB4/HWSc6pLsBSfqS4AQ2JgBwAAMEKz6eT7SX43yenVXRiFSZLbV5eARo5Kckh1CWCwXpPkhIZ5+ybZuWEew3ZidQFYoOcm2bZh3j5JNjTMA8bjgiTT6hIshc9esEAGdgAAACM1m07OTvLgJJdWd2EU7lRdABq4KsnTkqxUFwEG68rMnzOt7JrkKQ3zGLaTqwvAguye5EkN8w5P8tGGecD4HJbkk9UlWKirknyrugQMiYEdAADAiM2mky8neVx1D0bhjtUFoIGDknytugQweEcnObRh3jTJDRrmMVwnVReABXl2kh0aZV0WJ0sBy7eS5OmZ/5iDYTg1/v8JC2VgBwAAMHKz6eTwJK+s7sHgOcGOoftekldUlwBG42VJNjXKunmSJzTKYticYMcQ7JbkqQ3z3pjkzIZ5wHh9I8lrqkuwMD53wYIZ2AEAAJAkf5PkiOoSDJqBHUN3cJKLq0sAo3FKknc3zHteku0a5jE8FyU5p7oELMA+SW7UKOvKzE9IBmjlH5JsqC7BQhjYwYIZ2AEAAJDZdLIpyd5JTqzuwmAZ2DFkFyR5XXUJYHQOaJh1mySPbpjH8Jyc+fVz0Gc7J3lmw7y3J/l2wzyAs5K8pboEC3FSdQEYGgM7AAAAkiSz6eTCJA9OcmF1Fwbp1vsctHKD6hKwJLPMT+YBaOlLST7cMO+FSdY1zGNYvORlCJ6SZNdGWStJDmyUBfDjDkyysboEa+YEO1gwAzsAAAD+x2w6OTnJI+J0CZbjttUFYAkuSfKP1SWA0dq/YdYvJHlIwzyGxUte+m77JM9umPeeGKYCNU5Lcmh1CdbMv0NgwQzsAAAA+Amz6eQjSV5Q3YNB2r26ACzB65OcV10CGK2jk3ymYd7jGmYxLF7y0ne/l7bfZ1peAw7w0/aPH9/22Q+TnFNdAobGwA4AAIDV/H2Sd1SXYHAM7BiaK5IcXF0CGL39GmY9IMlNGuYxHGdWF4A12rth1keTHNcwD+CnnZjk3dUl2GpnxkASFs7ADgAAgGuYTScrSZ6U5EvVXRiUW1QXgAV7c5Kzq0sAo/fhJF9ulLVtkoc1ymJYLqouAGuwS5I/apjX8vpvgGvT8kccLJbPXbAEBnYAAACsajadXJrkIUm+V92FwXCCHUNyVZIDq0sAZH46RcurBFue4sRwXFxdANbgT5Ls2Cjr2CTrG2UBXJfjk3yougRbxecuWAIDOwAAAK7VbDo5I8mfZj4kgbUysGNI3p7k9OoSAFc7PMk3G2X9RpI7NMpiOLzopc9aDov3j2v9gO54ZXUBtorPXbAEBnYAAABcp9l0cnSSfap7MAiuiGUoNqXtaVEA12dj2p6q+aiGWQzDD6sLwFa6ZZL7Ncr6epIPNsoC2ByfS/KJ6hJsMZ+7YAkM7AAAALhes+nkDUneWN2D3nOCHUNxeJKTq0sA/JS3JTmrUdbeSSaNsui/q5JsqC4BW+mRafe8OyDzH3IAdIlT7PrHCXawBAZ2AAAAbK59k3y6ugS9ZmDHUOxXXQBgFVckObhR1i8kuUejLPrv4rjykv56dKOc05O8s1EWwJb4ZJJjqkuwRQzsYAkM7AAAANgss+lkQ5KHJvl2dRd666b7HLSyXXUJWKMPJPlKdQmAa/HGJD9olLV3oxz6zzVl9NUvJfmVRln/kOTKRlkAW2IlySuqS7BFfPaCJTCwAwAAYLPNppNzkjwkyeXVXeitm1UXgDU6qLoAwHW4OMm7GmU9Msm2jbLoN6eo0FetTq+7IsnbG2UBbI0jk3yjugSbzWcvWAIDOwAAALbIbDo5LsnTq3vQW66Jpc++leTo6hIA1+OwRjk3S/I7jbLoN6eo0EfbJHlUo6wjklzYKAtga6zEELhPfPaCJTCwAwAAYGu8NckHq0vQS7eoLgBrcEjmLxYAuuwzSc5olOWaWDbHZdUFYCvcJ8ltG2W1GkYDrIVnVX/47AVLYGAHAADAFptNJytJnpzk+9Vd6B0n2NFnh1YXANgMm9LuBegfJ9mpURb9ZZxOH7UaEF+Y+dWLAF13epKjqkuwWXz2giUwsAMAAGCrzKaTc5I8pboHvfOz1QVgK30hyYnVJQA2U6tB8E5JHtwoC6CVHZLs1SjrPUkub5QFsFaHVBcAqGJgBwAAwFabTSfvSfL26h70ilNu6CvPOqBPTkjy1UZZrokFhub3k+zaKMsJyUCfHJ5kQ3UJgAoGdgAAAKzVvkm+XV2C3rhRdQHYChuTvKu6BMAWajXauH+SmzXKAmih1XD47CSfapQFsAgXJPlgdQmACgZ2AAAArMlsOrkgyeOre9AbBnb00X8mOae6BMAWekejnHVJ/rBRFsCy7ZDkgY2y3pn5DzkA+sQ1scAoGdgBAACwZrPp5GNJZtU96AUDO/rI9bBAH52R5KhGWb/VKAdg2e6Z5AaNslwPC/TRkUnOry4B0JqBHQAAAIvygiQnV5eg8wzs6JuLk7y/ugTAVjqsUY6BHTAUrZ5nJyf5YqMsgEXakOTfqksAtGZgBwAAwELMppNLkzwmrrjhuhnY0TfvTXJpdQmArXR4kisb5Nwmye0a5AAsW6uB3aFJVhplASyaa2KB0TGwAwAAYGFm08l/JdmvugedZmBH37geFuiz85N8uFGWU+yAvtsuyb0bZb2jUQ7AMnw2yWnVJQBaMrADAABg0V4RV91w7Qzs6JOzk3yyugTAGrkmFmDz3CPJTg1yPp/klAY5AMuyEqfYASNjYAcAAMBCzaaTDUn+LMkV1V3oJAM7+uSwuPYa6L8PJrm4QY6BHdB3La+HBeg7zzJgVAzsAAAAWLjZdPK1JC+q7kEnGdjRJ14YAENwaZIPNci5fZJbNcgBWJY9GuUc3igHYJlOyvxEToBRMLADAABgWV6V5FPVJegcAzv64qwkx1eXAFiQ9Y1yWo1TABZtXZLfbJBzUuafMwGGoMWPOAA6wcAOAACApZhNJ5uSPC5triSjP7bb56CV7atLwGZYn2SlugTAghzVKMc1sUBf/XKSXRrk+BEaMCTrqwsAtGJgBwAAwNLMppNvJXlmdQ86Z+fqArAZvPwEhuQbSb7XIMfADuirVs+vVoNngBaOTXJFdQmAFgzsAAAAWLa3JvlgdQk6ZV11AdgM66sLACzQStqMOu6cZPcGOQCLZmAHsOUuT3JMdQmAFgzsAAAAWKrZdLKS5MlJvl/dBWAzfTfJKdUlABas1ahjj0Y5AIuyTZL7Nsj5VpIzG+QAtLS+ugBACwZ2AAAALN1sOjknyQurewBspvWZn/YEMCStrr52TSzQN3dLsmuDHKfXAUO0vroAQAsGdgAAALTy1iRfqi5BJxgu0XXrqwsALMEJSS5okGNgB/RNq+dWq6EzQEvHJtlQXQJg2QzsAAAAaGI2nWxM8szqHgCbwctPYIg2Jjm6Qc4vJblJgxyARWk1sHOCHTBElyU5proEwLIZ2AEAANDMbDo5Osm7qntQzgl2dNk5SU6qLgGwJK3GHfdtlAOwVpMkezTIOTvJqQ1yACqsry4AsGwGdgAAALT2vCSXV5cAuBbrYwQKDFerEzrv0ygHYK3umDanbh4VnzGB4XIKPDB4BnYAAAA0NZtOzkhyYHUPSnmxRJd5MQAM2ZeSXNwg5xcaZAAswp0b5fiMCQzZMUk2VJcAWCYDOwAAACocmOTb1SUAVrG+ugDAEl2V5DMNcu7YIANgEVo9r1pd0Q1Q4dIkx1aXAFgmAzsAAACam00nl2R+VSxAl5yb5MTqEgBL1mLkcYck6xrkAKxVi4HdeUm+0SAHoNL66gIAy2RgBwAAQJV3JvlsdQlKuCKWrvpU/O8TGL4W1xRun+RWDXIA1upODTKOTrKpQQ5AJVdhA4NmYAcAAECJ2XSykuSZ1T0AfowXAsAYfCHzq2KXzTWxQB+0eFZ9ukEGQLXPJbmyugTAshjYAQAAUGY2nXwhyVure9CcE8Loqi9WFwBo4Iok32qQY2AHdN32SW7XIOfrDTIAql2a5MTqEgDLYmAHAABAtRclubi6BECSU6oLADTS4nnX4tpFgLW4Xdq8K/1mgwyALvCdGhgsAzsAAABKzaaT7yZ5RXUPmrqsugCs4oIk51WXAGikxdjDCXZA17V4Tm1McnqDHIAuMLADBsvADgAAgC54VZJTq0vQxFWZX00HXXNKXF8MjIeBHUCb59TpSTY0yAHoAgM7YLAM7AAAACg3m06uSDKt7kETP5xNJ0ZMdJEXAcCYtBjY3SHeQQDd1uIqa9fDAmPiezUwWL7cAgAA0BUfSPLx6hIs3Q+rC8C18CIAGJMWg48dk/xcgxyArdXiBDsDO2BMPPOAwTKwAwAAoBOuPtXsWUk2VXdhqQzs6CoDO2BMvpU2n7lcEwt0mYEdwGKdneSS6hIAy2BgBwAAQGfMppMTkry+ugdLdXF1AbgWBnbAmGzIfGS3bAZ2QFdtl+R2DXIM7IAxWYnnHjBQBnYAAAB0zUuS/KC6BEvjBDu6ysAOGJsWLz/v1CADYGvcNsm2DXIMTYCx8d0aGCQDOwAAADplNp2cl+Tl1T1YGgM7uui8GPYC49Ni9OEEO6CrWjyfVpKc1iAHoEsM7IBBMrADAACgi/4pyferS7AUBnZ0kRcAwBgZ2AFj1uL5dGaSyxvkAHSJ79fAIBnYAQAA0Dmz6eSSJK+q7sFSXFxdAFbhBQAwRq0Gdt5DAF3U4gpr18MCY+T7NTBIvtgCAADQVa9NclF1CRbOCXZ0kRcAwBi1ePbdIMlNGuQAbKnbNMgwsAPGyPdrYJAM7AAAAOik2XRyQeYjO4bFwI4u8vITGKPTkqw0yLlRgwyALbVzgwyfMYExOjf+9gMMkIEdAAAAXfaqJJdXl2Ch/JGVLvILe2CMrkhyRoMcAzugi1o8m05tkAHQNSvxHRsYIAM7AAAAOms2nZyb5J+re7BQBnZ0kZefwFid1SDDwA7oohbPptMbZAB00X9XFwBYNAM7AAAAuu4fklxVXYKFOae6AKziwuoCAEUubpCxU4MMgC3V4tl0UYMMgC76QXUBgEUzsAMAAKDTZtPJGUneVt2DhTm7ugD8lEuTbKouAVDkkgYZTrADuqjFs6nFiBmgi1p8xgRoysAOAACAPvi7JCvVJVgIAzu6xotPYMxaPAMN7IAuavFsMjABxsr3bGBwDOwAAADovNl0cnKSw6t7sGYbk3yvugT8FH/4B8asxfjDFbFA16xLsmODHAM7YKx8zwYGx8AOAACAvti/ugBrds5sOtlYXQJ+ij/8A2PmBDtgjFoMfy/L/AdGAGPkezYwOAZ2AAAA9MJsOjk+yZHVPVgT18PSRf7wD4yZgR0wRq6HBVgu37OBwTGwAwAAoE9eWV2ANTmrugCswh/+gTFzRSwwRi2eSz5jAmPmGQgMjoEdAAAAvTGbTj6b5FPVPdhqTrCji/zhHxgzJ9gBY+QEO4Dl8j0bGBwDOwAAAPpmv+oCbDUDO7rIH/6BMWsxADGwA7qmxXPJZ0xgzDwDgcExsAMAAKBvPprkuOoSbBVXxNJF/vAPjFmLZ6ArYoGuafFccoIdMGa+ZwODY2AHAABAr8ymk5Ukr6zuwVZxgh1d5A//wJi5IhYYIyfYASyXZyAwOAZ2AAAA9NH7k3yjugRbzAl2dJHTRYAxc0UsMEYGdgDL5Xs2MDgGdgAAAPTObDrZlGT/6h5sMSfY0UVefgJj5opYYIxcEQuwXL5nA4NjYAcAAEBfvTPJ6dUl2GybkpxbXQJW4Q//wJg5wQ4YIyfYASzXpdUFABbNwA4AAIBemk0nVyZ5c3UPNttps+nkquoSsAovP4Exa/EMNLADuqbFc8kJdsCYbYrnIDAwBnYAAAD02b8kWakuwWY5uboAXAu/rAfGbEODjE0NMgC2RIvnks+YwNgZ2AGDYmAHAABAb82mkzOT/Ed1DzbLSdUF4FpsV10AoNANG2Q4KRTomhbPJZ8xgbHbvroAwCIZ2AEAANB3b6kuwGZxgh1d5epCYMxaPAMN7ICucT02wHJN4jkIDIyBHQAAAH33gSTnVZfgehnY0VX+6A+M2U4NMlwPBnRNi+dSi+crQFdtn2Tb6hIAi2RgBwAAQK/NppMrkry9ugfXy8COrjKwA8bMCXbAGDnBDmC5PAOBwTGwAwAAYAhcE9ttlyX5TnUJuBb+8A+MWYsTlgzsgK5p8Vxygh0wZr5nA4NjYAcAAEDvzaaTryb5fHUPrtUps+lkU3UJuBb+8A+MWYtnoCtiga5p8VzyGRMYM89AYHAM7AAAABiKN1cX4Fq5HpYu84d/YMycYAeMkStiAZbLMxAYHAM7AAAAhuKdmV9FSvecVF0AroM//ANj1uIZaGAHdI0rYgGWy/dsYHAM7AAAABiE2XRyYZJ3V/dgVU6wo8v84R8YsxYDEFfEAl3jiliA5fIMBAbHwA4AAIAhcU1sNxnY0WX+8A+MmRPsgDFyRSzAcnkGAoNjYAcAAMCQHJXk1OoSXIOBHV3mD//AmLU4wc7ADuiaSxtkuCIWGDPfs4HBMbADAABgMGbTyUqSt1T34Cd8fzadnF9dAq6DP/wDY9biGeiKWKBrNmX5z6YbJZksOQOgq3zPBgbHwA4AAICh+dfMX5jQDV+sLgDXwx/+gTFzgh0wVsse2E2S3GDJGQBd5RRPYHAM7AAAABiU2XTynSQfqe7B/ziuugBcD3/4B8asxcjYwA7oohbPJp8zgbHyQzZgcAzsAAAAGKI3VxfgfxjY0XWu7wLGzBWxwFi1eDYZmABj5fkHDI6BHQAAAEN0RJLvVZcgiYEd3bcuyY7VJQCK7NIgwwl2QBe1eDYZmABj5fkHDI6BHQAAAIMzm042JHl71hF05QAAIABJREFUdQ9yfpLTq0vAZrhVdQGAIj/fIMPADuiiFs+mn2uQAdBFt64uALBoBnYAAAAM1VuqC5DjZtPJSnUJ2Ax3qi4AUGDXJLs1yLmoQQbAlmrxbLpjgwyALvIdGxgcAzsAAAAGaTadfC3J56t7jJzrYekLf/wHxugODTIuSvKDBjkAW+q0BhkGdsAY3TBO8AQGyMAOAACAIXtfdYGR+0J1AdhMBnbAGLUYfnwzidNsgS76ZoMMAztgjDz7gEEysAMAAGDIPlhdYOScYEdfGNgBY9Ti5ecpDTIAtkaL55ORCTBGvl8Dg2RgBwAAwJCdkOSM6hIjdX6S06tLwGbyAgAYo1Yn2AF0UYvn0+2TbNsgB6BLfL8GBsnADgAAgMGaTScrcYpdleOu/u8f+uC2SXaoLgHQmIEdMGbfTnLFkjO2S3LrJWcAdI2BHTBIBnYAAAAM3RHVBUbK9bD0yTaZnzACMCauiAXGbFOSUxvkuCYWGBsDO2CQDOwAAAAYuvVJLqkuMUIGdvSNlwDAmOyc5OYNcpxgB3RZi2eUgR0wNr5bA4NkYAcAAMCgzaaTy5N8tLrHCP1XdQHYQl4CAGNyhwYZFyc5t0EOwNYysANYrJ2T7F5dAmAZDOwAAAAYgw9WFxiZ02bTyRnVJWALGdgBY9LqetiVBjkAW6vFNdYGdsCYeOYBg2VgBwAAwBgcWV1gZD5ZXQC2goEdMCYtXn66HhboOifYASyW79XAYBnYAQAAMHiz6eS7cWVpS+urC8BW8CIAGBMDO4A2z6k7xPtYYDx8rwYGywc6AAAAxuKI6gIjsr66AGyFWye5QXUJgEbu0CCjxdWLAGtxZpINS87YIcnPLTkDoCsM7IDBMrADAABgLD5YXWAkTp1NJ2dWl4Ct1GJwAtAFTrADSDYm+e8GOa6JBcbCwA4YLAM7AAAAxuLLSb5dXWIE1lcXgDW4S3UBgAZ2S3KrBjkGdkAftHhW+YwJjME2SX6xugTAshjYAQAAMAqz6WQlrolt4ZPVBWAN7ltdAKCB32yQcUmS7zbIAVirFtdZt3juAlS7S5Jdq0sALIuBHQAAAGNiYLd866sLwBrsWV0AoIE9GmR8M8lKgxyAtWpxgt0eSSYNcgAq7VldAGCZDOwAAAAYk08kuay6xICdMptOvlNdAtbgrkluWl0CYMlaDewA+qDF8+qWSe7QIAeg0p7VBQCWycAOAACA0ZhNJ5cl+Vh1jwFbX10AFqDF8ASgys5JfrVBzokNMgAW4RuNcnzGBIZsmyS/VV0CYJkM7AAAABibD1YXGLBPVheABdizugDAEv1GknUNco5ukAGwCGcmOaNBjoEdMGR3SXKT6hIAy2RgBwAAwNh8qLrAgK2vLgALsGd1AYAlajHw2Jjksw1yABblUw0ynOwEDNme1QUAls3ADgAAgFGZTSdnJTmuuscAnTSbTs6uLgELcNckN60uAbAkLQYeX0zywwY5AItyVIOM2yW5TYMcgAp7VhcAWDYDOwAAAMboiOoCA/TR6gKwQK7wAoboBknu1SCnxUlQAIvU6rl130Y5AC1tE6d0AiNgYAcAAMAYfaK6wAC9v7oALNCe1QUAluBeSbZvkGNgB/TNN5O0OI3bAAUYorskuUl1CYBlM7ADAABgjI5LsrG6xIBclDbXKkEre1YXAFiCFqdzriT5dIMcgEVaSZtxsFOSgSHas7oAQAsGdgAAAIzObDq5JMlXq3sMyIdn08mG6hKwQHeNX+ADw9Ni2HF8kgsa5AAsWouB3Z2T7N4gB6ClPasLALRgYAcAAMBYHVtdYEBcD8sQOWEEGJLtkty7QY7rYYG+avX8um+jHIAWtonrr4GRMLADAABgrI6pLjAQVyX5SHUJWII9qwsALNCvJrlhgxwDO6CvTkxyboMcP+IAhuQucfo7MBIGdgAAAIyVE+wW46jZdPKD6hKwBHtWFwBYoFaDjqMb5QAs2kqSoxrkOOkJGJI9qwsAtGJgBwAAwFidlOTC6hID8IHqArAkd0tyi+oSAAty/wYZJyQ5r0EOwLK0GNjdLcnNG+QAtPB/qgsAtGJgBwAAwCjNppNNSf6ruscAGNgxZI+sLgCwALsnuV+DHNfDAn3X6jn2sEY5AMv0s0l+v7oEQCsGdgAAAIyZa2LX5quz6eS06hKwRI+pLgCwAA9Pm3cBBnZA352Q5PwGOY9ukAGwbA9Lsl11CYBWDOwAAAAYs2OqC/Sc0+sYul9OctfqEgBr9KhGOS2uVgRYpk1Jjm6Q8+tJ7tggB2CZ/CANGBUDOwAAAMbMFbFrY2DHGOxdXQBgDe6Y5F4Nck5Mck6DHIBla3Ua5yMb5QAswx2S/EZ1CYCWDOwAAAAYrdl08r0kp1b36Kmzk3yhugQ08Oj4GxrQX60GHK6HBYai1fPs0UkmjbIAFs0P0YDR8cdBAAAAxu7Y6gI9dcRsOtlUXQIauFWSPatLAGyFSeYDjhbWN8oBWLYvJ7mgQc6dk/xqgxyARZvE9bDACBnYAQAAMHbHVBfoqXdUF4CGvDwA+uhXMh9wLNtlSY5skAPQwsYk722U9ahGOQCL9L8zvyIWYFQM7AAAABg7J9htuW/HVXCMy0OT3LC6BMAWajXceH+SixplAbRwSKOcRyZZ1ygLYFH8AA0YJQM7AAAAxu74JFdUl+iZQ10Py8jcKMmDq0sAbIF1mQ83Wji0UQ5AK59K8p0GObdIsmeDHIBF2T7Jw6tLAFQwsAMAAGDUZtPJhiRfqu7RM2+vLgAF/Eof6JM9ktyyQc55Sf6jQQ5AS5uSHNYoyzWxQJ88MMlu1SUAKhjYAQAAgGtit8Txs+nka9UloMD9k9y8ugTAZmo12HhnkisbZQG01Oqa2Icm2bFRFsBa7V1dAKCKgR0AAAAkx1QX6BGn1zFW65I8oroEwGbYIfPBRguuhwWG6itJTmiQs0vmJ0IBdN2uSf6wugRAFQM7AAAAcILd5tqU+Uk1MFauiQX64AFJfqZBzn/HjxSAYWt1it2jG+UArMVeSbavLgFQxcAOAAAAkm8lObe6RA98fDadnFVdAgrdI8ldqksAXI9WQ41Dkqw0ygKocFijnD9Im2E0wFr4wRkwagZ2AAAAjN5sOlmJU+w2h+thIXlmdQGA63DbJH/cKMv1sMDQnZnkUw1ytk/y5AY5AFvr15L8ZnUJgEoGdgAAADD3teoCHXdpkn+vLgEd8Pgkt6ouAXAtnpNk2wY5n09ycoMcgGqtrol9dpIdG2UBbKm/qi4AUM3ADgAAAOZOrS7Qcf8+m04uri4BHbBdkudWlwBYxc2SPKlRVqvBCUC1dyfZ0CBn9ySPbZADsKXuluQh1SUAqhnYAQAAwJyB3XXzIh1+5M+T3Ly6BMBP2TdtTj/amORdDXIAuuCCJEc0ynpe2pxCCrAlXlRdAKALDOwAAABgzsDu2p2T5GPVJaBDdsz8Gi+ArtglyTMaZX00888GAGPR6sdGt0+yV6MsgM1x5yQPry4B0AUGdgAAADD3nbS5+qePDplNJ1dVl4COeXqSn60uAXC1pyS5caOsQxvlAHTFkZmfZNfCC5NMGmUBXB/PJICrGdgBAABAktl0sjHJt6p7dNBKktdXl4AO2inJM6tLAGR+quZfNsq6NMn7GmUBdMUVSQ5vlHW3JA9qlAVwXX4+yd7VJQC6wsAOAAAAfsQ1sdf04dl04r8XWN2+aXdiFMC1eWyS3Rtl/XuSixtlAXRJq2tiEydGAd3w/CTrqksAdIWBHQAAAPyIIdk1vba6AHTYjTO/KhagyrZJntcw780NswC65NNJTm6Ude8k922UBbCaWyV5fHUJgC4xsAMAAIAfMbD7Sf+d5CPVJaDjnp35dbEAFfZKcvtGWcckWd8oC6BrNiU5oGHeCxtmAfy05yTZvroEQJcY2AEAAMCPGNj9pNfNppNN1SWg4342yV9UlwBGaZLkBQ3z9kuy0jAPoGsOTXJmo6wHJPmVRlkAP+7mSf68ugRA1xjYAQAAwI8Y2P3I5UneWl0CeuK5SXasLgGMzu8n+V+Nsr6S5IhGWQBdtSHJgQ3zWo6oAf6fv0xyg+oSAF1jYAcAAAA/clp1gQ45dDadnF9dAnpi9yRPrC4BjE7L6wOdXgcw9+Yk5zTKemiSOzXKAkjmJ7Q/vboEQBcZ2AEAAMDVZtPJZUm+U92jI15bXQB65vlJdqguAYzGfZP8ZqOsU5K8u1EWQNddluTgRlnbZP4ZE6CVZya5UXUJgC4ysAMAAICf5JrY5HOz6eRL1SWgZ26dZFpdAhiFdWk37kiSA5JsbJgH0HVvSHJBo6zHJ7l7oyxg3G6X5DnVJQC6ysAOAAAAfpKBXfKa6gLQUy9OcvvqEsDgPTHJrzXKOjPJIY2yAPrioiSvbpS1Teani3unCyzTJMksyQ2qiwB0lQ9jAAAA8JPGPrA7N8l7qktAT+2Y+QvQSXURYLBukmT/hnkHJtnQMA+gL16d5JJGWfdJ8phGWcA4PTjJH1SXAOgyAzsAAAD4SWMf2P3zbDq5oroE9NgDkvxpdQlgsPZLslujrHOTvLlRFkDfnJf5VbGt/H2Sn2mYB4zHjTI/vQ6A62BgBwAAAD9pzAO7jUneWF0CBuAfk+xSXQIYnHsleVLDvIOTXNYwD6BvDkrS6sdJN03y8kZZwLi8NMmtqksAdJ2BHQAAAPykMQ/sDplNJ2dWl4ABuGWSv60uAQzKurS9gvqCJK9vlAXQV2cneUvDvKcl+ZWGecDw3T3Js6pLAPSBgR0AAAD8mNl0cn7mL5XHZiXJ/tUlYED2SfKr1SWAwXhSkl9rmPfqJBc1zAPoqwMzPwm8hW0yH1t7vwsswjaZ/6BiXXURgD7wAQwAAACuaYyn2L17Np2cVF0CBmSbJG+IlxXA2t0kbUfwl2Q+sAPg+n0ryaEN834jyWMb5gHD9cTMnykAbAYDOwAAALimMQ7s9qsuAAN0zyR/Xl0C6L39k+zaMO8NSc5rmAfQd/tnfiJ4Kwem7b8XgOG5WZK/qy4B0CcGdgAAAHBNZ1UXaOxDs+nk+OoSMFD7J9m9ugTQW7+e+ekirVyR5KCGeQBDcGKS9zTMu0mSVzTMA4bn72OoC7BFDOwAAADgmi6sLtDYK6sLwIDdOMYqwNZZl+S1SSYNM1+T5OyGeQBD8ZIkVzXMe2qSezTMA4bjt5P8WXUJgL4xsAMAAIBrGtPA7pOz6eRz1SVg4B6V5HerSwC98+S0HU98J8lLG+YBDMnXkxzcMG+S+Qjbu15gS+yQ5PXVJQD6yIcuAAAAuKYxDeycXgdtvC7JjtUlgN64SZL9Gmc+M8nFjTMBhuTlSc5smPfrSZ7QMA/ov+ckuXN1CYA+MrADAACAaxrLwO7YJJ+oLgEjcackr6guAfTCJPOrWndtmPnhJO9tmAcwRBcn2bdx5oFJbt04E+inuyd5cXUJgL4ysAMAAIBrGsvAbr/ZdLJSXQI64IdJrmqQM03y4AY5QL89KcnDG+ZdnmSfJD4TAKzd+5N8qGHerknekWTbhplA/+yS5PDMr4hdtvMaZAA0Z2AHAAAA1zSGgd1XkxxRXQI64twkr2qU9S9Jfr5RFtA/d0vy6saZ+yU5tXEmwFCtZD5avqxh5n2SvKxhHtAvkyRvyvxU9WU7K8lrG+QANGdgBwAAANc0hoHdfrPpZFN1CeiQlyc5u0HOz2R+csCODbKAftkpybvS9vlwSubXCwKwOKcleUXjzBcm+T+NM4F+eEaSvRplPSfz67IBBsfADgAAAK7pouoCS3ZK5gMf4EcuSvK8Rln3SHJQoyygP2ZJfrFx5tOSXNE4E2AMDkpyUsO8SZJDkuzeMBPovnul3XfPo5K8s1EWQHMGdgAAAHBNQz/B7sWz6WRjdQnooEOTfKZR1tOSPKJRFtB9eyd5fOPMdyb5WONMgLG4IvPPey3dLPPPs+sa5wLdtFuSf0uyXYOsTUn2zfyabIBBMrADAACAa7o8yZXVJZbkC3F6HVyblcyvz2l1ffKbkvx/jbKA7vqFJG9onPnDJNPGmQBj84kkhzXOvF/m18UC47ZNkrcluW2jvNcl+XKjLIASBnYAAADwU2bTyUqGe4rd82bTSavxEPTR8Une2ChrpyTvTnLDRnlA9+yY+ckiOzXO/eskZzXOBBijadp/t3xZkj0aZwLd8twkD2qU9f0kf9MoC6CMgR0AAACsbogDuyNn08knq0tAD7w4yfmNsn4p81/7TxrlAd1yUJK7N878UubPHQCW77tJ/qpx5jZJ3pHkpo1zgW7YI8krG+a9KMkPGuYBlDCwAwAAgNUNbWC3kuQF1SWgJ87L/CVBK49N8oSGeUA3/GmSpzXOXEny1CRXNc4FGLM3JDmuceYtk/xrvAuGsbl5kncmWdco7wtJ3tIoC6CUD1UAAACwuqEN7P51Np18tboE9MibknyxYd5r0v4UK6DOzyd5c0HuPyU5tiAXYMw2Zj5uXmmc+/tJnt04E6izLslhSW7RMPMZmT/jAAbPwA4AAABWN6SB3eVJ/qa6BPTMxiT7NMzbMcnhSXZpmAnU2D7zk0Vu3Dj3e2l7OicAP/L5zE+ya23/JP+7IBdo7yVJ7tcw71/ihxvAiBjYAQAAwOqGNLD7x9l0cmZ1Ceihz2Z+slwrd8r85LxJw0ygvVcmuVdB7jOTnF+QC8Dci5J8u3HmtpmPundtnAu09XtJ/rph3tlJntMwD6CcgR0AAACs7qLqAgtyfpIDqktAjz0/yckN8/ZK8tKGeUBbj0nNy8g3JXlHQS4AP3JBkocnuapx7m0zPyl5+8a5QBt3zXxI2/KHWk9Mcl7DPIByBnYAAACwuqGcYPfK2XRyQXUJ6LFLMx/EbGyY+TdJntEwD2jj95K8pSD3K0n2LcgF4Jo+m+QFBbm/k+St8W4YhuZ2Sf4jyc80zHxjkg83zAPoBB+iAAAAYHVDGNidnuS11SVgAP4r8ysdW3p1kkc2zgSW5x5J3pP5VX0t/TDzkzEva5wLwLU7OMkHCnIfleTvCnKB5bhZko8muWXDzFPjalhgpAzsAAAAYHVDGNj99Ww6uaK6BAzEK5J8oWHeJMnbMj/xCui3OyQ5MslOBdlPSttrrgG4fitJHpfkWwXZz0nyrIJcYLF2yfwUuTs2zNyU+enuFzfMBOgMAzsAAABYXd8HdscnOay6BAzIlZm/TLi8Yea2Sd6b5NcbZgKLddMkH8n8hJHWXpvk3wpyAbh+P0jysMw/Y7Z28NXZQD/tmOR9SX61ce4BST7XOBOgMwzsAAAAYHU/rC6wBitJnjabTjZVF4GBOTHJ8xtn3jDzk6/u0jgXWLudknwobU8W+X+OSzItyAVg830+ybMLcidJ3p7ktwuygbVZl+TQtP/n9/gkL2ucCdApBnYAAACwunXVBdbgDbPpxK+KYTlek+TjjTN3S/IfSW7TOBfYettlfnrcPQuyL0yyVxLXxAN032uTHF6Qu33mJ2D9r4JsYOtMkrw+yZ80zt2Q+WnuGxrnAnSKgR0AAACsbrvqAlvp7CQvrC4BA7YpyePT/hrpWyX5zyQ3aZwLbLlJkjckeWBR/uOSnFaUDcCWWUny5CTfLMjeJcmH40cc0BevyPx50dqLkpxQkAvQKQZ2AAAAsLq+Duz2nU0nrYc/MDZnJnlGQe6dM78udueCbGDzvSzJE4qyD878RCIA+qPy5NFbJvlI5icmA931rMyHbq19Ksn/LcgF6BwDOwAAAFhdHwd2H0zynuoSMBKHJPmngtx7Jnlvkh0KsoHr9xdJXlyU/bkkLyjKBmBtjk+yb1H2L2b+XfIGRfnAdds7NSO3s5M8MvNT3AFGz8AOAAAAVrd9dYEtdEmSZ8ymk5XqIjAi+2Y+aGntd5O8Lcm6gmzg2j0kyeuKss9P8vAkVxblA7B2/5zk0KLseyc5LD5fQtc8MMlbC3KvTPKnmY/sAIiBHQAAAFybvp1g99ez6eSM6hIwMlek7qXDw5LMkkwKsoFruneSd6Tub+6Pyfz6agD6ayXJU5KcWJT/kPh8CV1ynyTvTrJtQfbTU/NjMoDOMrADAACA1fVpYHdc5i9CgPbOTvInSTYUZD81yYHxEhSq3SPzq/V2LMo/IMmRRdkALNbFSfZKcllR/lOT7BefL6Haryc5IjVXN78h8xM1AfgxBnYAAACwur4M7DYmefJsOtlYXQRG7JjMf+Ff4TlJ3pyaUw2A5LeSfDLJbkX5Ryd5cVE2AMtxQuZDtyovSPKaeI8MVX4vySeS/ExB9meSPLMgF6DzfDACAACA1fVlYPeq2XTypeoSQN6U+S/9Kzw+yXtSc7oBjNmDknwkyc5F+ackeWiSq4ryAVief838pOIqT7u6Q1++F8NQPDLzk5FvWJB9VuafLStOZwfoPAM7AAAAWF0fXiScnuQl1SWA//HMzH/xX+GPMh/63LgoH8bmEUnel7prYc9Ocv8k5xblA7B8L0jy1sL8vZO8O3X/roOxeUaSQ1Pz96gNSf4kyXcLsgF6wcAOAAAAVteHgd3TZtPJJdUlgP+xIfNf/J9VlL9Hkk8l2b0oH8biz5MclrqrmS/I/OqwbxXlA9DGSub/zvlAYYc/SvKh1J3WCmMwSfKyJLOr/+8KT0tybFE2QC8Y2AEAAMDqtq8ucD3eNZtOjqwuAVzDdzP/5X/VtTp3z/wUvTsU5cPQPS/JG1P38vPyJH+Q5KtF+QC0dVXmp6Z+urDD/ZJ8LMluhR1gqNYleV2Svyns8Pokby7MB+gFAzsAAABYXZdPsLsgybOqSwDX6tgkjy/Mv33mI7u7F3aAoZkk2S/J3xV22Jj5KZlVV1EDUOOyJH+Y5CuFHe6V+UnJtyjsAEOzQ5J3JHlKYYf/jL8vAWwWAzsAAABYXZcHds+fTSffrS4BXKfDkuxTmH/zJEdlfm0ssDbbJHltkhcW93hC5tf0ATA+FyR5QJLTCjvcNfOT9H6+sAMMxc5JjkiyV2GHY1J7+jpArxjYAQAAwOq6OrD7TJI3VZcANstrkry0MH+XJP+R5I8KO0DfbZfkbUmeWtxjenUPAMbr7CT3T3JuYYfbZz6yu0thB+i7myb5RJLfLexwQpIHJbmksANArxjYAQAAwOq6OLC7Msmfz6aTTdVFgM32t0lmhfk7JnlvkscVdoC+2jHJe5I8urjH3yU5uLgDAN3wzcxPsvthYYdbZn5S8q8VdoC+uk2So1P7z89pSX4vyfmFHQB6x8AOAAAAVtfFgd0Bs+nk69UlgC2ykuRZSQ4p7LAuyVuTPLewA/TNzkmOTPKHxT3ekvqraQHoli9lfkJx5bWOP5v5CVy/VdgB+uYuST6b5M6FHc7J/CTMswo7APSSgR0AAACsbvvqAj/l5CT7VZcAtsqmJE9IckRxjwMzPwVr2+Ie0HW3SPLxJL9d3OP9Sf4i86EuAPy49UkekfnnzCo7J/lIkj8u7AB9sUfm1yv/XGGHCzMf132zsANAbxnYAQAAwOq6dILdhiSPnE0nl1cXAbbalUkelvl1QJX+MvPh0C2Le0BX7ZHki0nuWdzjqCSPTHJVcQ8AuuvfMx9iV9oxyXuTHBA/4oDVbJPk+Zmf+LhrYY/LkjwoyVcKOwD0moEdAAAArK5LA7vnzKaTL1aXANbsssyvmzy+uMcemV8t9jvFPaBLJkmmmb/83L24y5czv/rvsuIeAHTfm5K8qLpE5gOijya5eXUR6JDdMj+R+IAk6wp7XJXkT5N8prADQO8Z2AEAAMDqujKwe1+S11SXABbmwiQPSP21PDfL/CXoi+NvhLBLkncn+YfUvvxMkv/O/BlxYXEPAPrjgCSvqi6RZM/Mf8Rxn+Ie0AX3yvyfhz8o7rGS5M+SfLi4B0Dv+eMZAAAArK4LA7vTkzxhNp2sVBcBFuqcJL+d5MTiHpMkf5v5y5abFneBKndN8oUkf1JdJPNnw/2TfLe6CAC9spL5KayHVBdJcosk65M8K/PPmjA2kyT7Jvl0ktsUd9mY5LFJ3lHcA2AQDOwAAABgdbsU51+V5BGz6eQHxT2A5fh25le1duH65/tnfrrCb1YXgcYeneTYJHeqLpL5qH6PJKdWFwGglzYleXySN1cXSbJtkv+b5F1Jdi7uAi3dOMm/JfnH1P9oc0OShyZ5e3EPgMEwsAMAAIDV3bI4/0Wz6eSY4g7Acn0vyf2SHF1dJMnPZX7ayHPitBGGb4ckr838pJ8bFndJkhOS3DvJydVFAOi1q5I8Ocn+1UWutleSzye5S3URaOCXMz8V+aHVRZJckuSBSd5XXQRgSAzsAAAA4Kfsc9DKJPOrbap8OMlBhflAOxcmeUDm/9xXW5fk7zN/EbNrcRdYltskOSrJ06qLXO0zmZ9cd1Z1EQAGYSXJi5L8ZXWRq905yX8leWR1EViSSebD1mOS3LG4S5L8IMnvJPl4dRGAoTGwAwAAgGvaLcn2RdlnJXnsbDrZVJQPtHdpkodkfo1WF/xR5lfX3rO6CCzY/TP/3/a9qotc7YjMO7kOHoBFe1WSvTM/1a7aTkkOS/Lq1H3PhmXYKcm/JvmnzE9IrvbdJL+V5NjqIgBDZGAHAAAA11R1et2mJI+aTSf/f3v3HuX5Xdd3/DkJCVkIyC2ShoIEE1QgEIEq1wBVWiIEkAMRQQpoVRDWYqfFekEQDghiCjrcBC1SgaCRctHITZGbgEAEgRCQQIgkISZgIEDum+0fn9mzs5tNsrM7M9/fzDwe53zP7Cbs7/dKMsN+dr6v7/t94UTvD0zniurx1WumDrLo9tWHqqdlZSzr3wHVs6p3VrecOMsOr6se1SjYAsBqeEPjwYlLpw6yaGv1/urfTx0EVsCdGtMZnzB1kEVnV/evPjN1EICNSsEOAAAArmmqgt1zFubn3j/RewPT21b9YvV7UwdZdHD1surN1W0mzgL76shGse65zU5Z9MXVk6srpw4CwIb3jsa6yFmZlnqv6pPVTzU7vy9ntuJnAAAZHElEQVTDchxYPb36eKNkNws+X92vOnPqIAAbmYIdAAAAXNMRE7zne6sXTPC+wGzZXj2z+o2pgyzxk42bNs+objBxFthbB1W/Wp1ePXjiLEs9c/HaPnUQADaNjzTKN+dMHWTRrao3Vac2ivCwXtyzsX51obrRxFl2+MfquGbn6xtgw1KwAwAAgGta6wl2F1Q/szA/t22N3xeYTdsbhdtfqK6aOMsOh1YvaUxq+NGJs8D1uXd1WvXCasvEWXbY1pha9+KpgwCwKX2uum/1hamDLHF8owj/zEYxHmbV9zRKdR+r7jFxlqXeWf3H6sKpgwBsBgp2AAAAcE1rOcFue6Nc97U1fE9gfXhNs3fD5NjGFJRXVjefOAvs7mbVK6q/r46ZOMtSlzUmQf7JxDkA2Nz+pTHJ7uNTB1liS/WiRjH+3hNngd3NVY9tTPN+erO11vjF1cOqb00dBGCzULADAACAa1rLCXYvWJife88avh+wvnywsYrok1MHWWKuekrjRtPPNFs3mtic5qoTqzOqpzZbn5PfbKyo/cupgwBA9fXGAxzvnjrIbo5pFORf0SjMw9SObnydnFwdPnGWpS5r/BnsmY0JyQCsEQU7AAAAuKa1mmD3oeo5a/RewPq1Y9rIn00dZDffW/1p9bfVD06chc3ryOrUxtfHLN38rPpadVzj93sAmBXfqU6o3jR1kN3MNYryZzSK87NUmGfzOKR6dvWZ6scnzrK7c6v7V2+YOgjAZqRgBwAAANe0FhPsvlH99ML83FVr8F7A+ndJ9dPVrzVWS8+SB1Wfrp7XWPMFa+GgxuSO06vjJ86yJ1+s7tO4OQsAs+aK6vHVy6YOsgeHN4rzpzaK9LBWHtw4uz2nuuG0Ua7hw43J5p+YOgjAZqVgBwAAAEtsPWn7XGszwe6JC/Nz56zB+wAbx/bqhY2JIxdPnGV3B1W/WX22esjEWdj47l2dVr2o2Sx1fqwxdfIrE+cAgOtydfXL1W80ew9w1CjQn94o1B80cRY2tsOrNzZWwh41cZY9+ePGaufzpw4CsJkp2AEAAMCubtbqP6n8uwvzc6eu8nsAG9ep1b0aE7JmzR2qd1SnVHecOAsbzxHVq6q/r46ZOMu1+f3G6q4Lpg4CAHthe/WCxgMSF06cZU+2NAr1pzXWdVoby0raUj2j+kJjWvis2VZtrX6+unziLACbnoIdAAAA7Gq118O+ubHiEWB/nFH9SPXOqYNci0c3Mp7c7BahWD9uV728+nL1i83mzfVvVY9q3KS9YuIsALBc766OrT4wdZBrcUz1nsaazOObzbMA68dNGpMRz6peUt102jh79I3GytqXNZsTJgE2HQU7AAAA2NVqrof9aPWEhfm5q1fxPYDN45vVwxql3asmzrInB1SPrT5dvaW657RxWIeOrF5dnVn9Uqs/YXZffaL64cbnOQCsV+dVP1Y9f+og1+Fe1V831rE/IkU7lufm1W9VZzcmI9562jjX6n2Ns+XfTZwDgCUU7AAAAGBXqzXB7svVwxfm5y5dpdcHNqdt1QsbNxu/MHGW6/LI6uON9bH3mzgLs+/o6rWNNcg/Xx00bZzrtND4nD5r6iAAsAKuqn6zsTL26xNnuS73rN5afbIxOdk9b67LYY1VyGdXv90o2s2iKxuT9X6s+urEWQDYjcMGAAAA7Go1Jtj9W3X8wvzchavw2gBVp1X3qF41dZDr8ZDqg42pDD+eqSPs6k7VG6rPV0+qDpw0zXW7uHpM9cvV5RNnAYCV9q7GBK0PTR3ketytOqX6TPW4ZvvswNq7TWMF7NmNqd83mTbOdTqj+tHqxZWtBwAzSMEOAAAAdrXSE+yuqB6xMD/3zyv8ugC7+2711Orh1awXeh9Qvaf6SHVCinab3Y6b459t3Byf9e9b/2N19+ovpg4CAKvonOpBjWnJs25HSf+M6onN9vRbVt/tq1c2Ngk8o9oyaZrr9/LGVMZPTh0EgGs369+oAAAAgLW20hPsnrgwPzfrT/0DG8tfVndtrGOddT9avb1xM+kxmTqy2dyjsd7tU431buuhaPny6r7Vl6YOAgBr4KrG5K+HVt+YOMveOLr6k+oLjTXzB0+ahrV2x+q11ZnVU5r9//4XVA+rnl5dMnEWAK6Hgh0AAADsaiUn2P3awvzcm1bw9QD21vmNG6FPry6bOMveuFv159Xp1Xyrs66b2bClemxj9dwnqkdMG2evfbv6qdbP1xQArKS/bqyM/fDUQfbSkdWrG0WrZy3+nI3p4MYE7zdXn6+e1Pp4aOfU6pjFjwCsAwp2AAAAsKuVKnW8unrRCr0WwL7Y3pi2dY/qnybOsrd+oPq96qvVu6snVIdOmoiVcED1wOqPG+XPk6v/NGWgZfpU4+voz6cOAgAT+mrj9/MXT5xjOW5bPbexKvQDjal2N5s0ESthrrpX488651Vvqx7V+piGfGn1S9UJjQl2AKwTCnYAAACwaOtJ2w9oZSbYvbN62sL83PYVeC2A/fW5xirWZ1eXT5xlbx1QPbj6v9W/Vq+vHlLdYMpQLNsPVs+vzqr+rvrZ6qaTJlq+V1X3rr44dRAAmAFXVs9slIMumjjLct2/8SDc+Y3S/AnVQZMmYrmOavyZ5p+rjzSKarecNNHyvLc6tnpl42EoANYRBTsAAADY6faN1XX745+qExfm567a/zgAK+byxvSOuzRWc64nN6oeX72jOqd6SXX31seEis3osGpr9bHqjOrXq9tNmmjfXFQ9rnpqVsICwO7+qlEU+uDUQfbBDavHVG+vzq3+oPoPOVvOqls2inQfaTzw8JxG0W49+dfGn2d+vFEOBGAdUrADAACAne66n7/+3OqhC/Nz316JMACr4Mzq+OrExjql9ebW1TOq06rTq1+rvm/SRFQd0s4b1ee180b1evXaxrrik6cOAgAz7F8aK2OfXF04bZR9tvTBgM+1fh8M2GgOqR7dWP16fmMV7L0mTbRvtlcva0x1fmOm1gGsawp2AAAAsNP+FOy+Xf3EwvzcuSsVBmCVbK9OqX6oeml19bRx9tkPVS+ovlK9rzHZ4ocyfWSt3KyxWm33VWvreY3vp6v7NVbZrteiAACspaurP2kU09f72ssdq+3Pbqy2f2rjn8vZcm3conpE9ZrG2fKU6uGt37PlJxoPnGytvjlxFgBWwHr9DQkAAABWw9328ddtqx6zMD/36ZUMA7DKLq5+pXpd44boepwKscMDFq+qCxqFu/cvfjyj9X2zd1bcrLp/Y1LNA6sfbuPccP529VuNCSNWvAPA8l3UeNjhtdUrqntOG2e/PXDxqlH2et+S659ztlwJt2zXs+Vd2xhny281JiH+YeN7RQBsEAp2AAAAsNO+TrB7ysL83LtWNAnA2vlUdd/q56oXVTefNs5++97GCtwTF39+YTvLdu9vrP9ar1P71tJGLtQt9aZqvvW5MhkAZs3HGw9t/EJj0vDNpo2zIg6vHrt4lcLdvrpVdVzjXPmA9m+DwKx6Q/U/Gp8jAGwwCnYAAABQbT1p+6HV9+/DL33BwvzcH610HoA1dnVjHdNbq9+tntjGKVMdVj168ar6evWBdt4UPT2Fu9o8hbodvlA9rfrbqYMAwAazrTEd+c2NhzeeNGmaladwt3cOa+eU6QdWd5k0zer6fONc+d6pgwCwehTsAAAAYLhzyy8SnFw9axWyAEzlwurJ1e9Xz69+Yto4q+JW1aMWr6p/qz7cKFx9ccl1bhuzeHfj6qjq6MXrqOrYNn6hbodLq+dVJ1VXTJwFADayCxrnyj9uFO42asFqT4W7DzeKdjvOlWcu/vWNWLy7aTvPlTuuuze+x7LRnVs9u3pdddXEWQBYZQp2AAAAMCx3PclbqictzM9txPIFwKeqhzbWOL2wuve0cVbVLaqHLV5LXda4GXpmuxbvvlh9rdku321pTGXd/Wbn0dURE+aa2tuqZ1RfmTgHAGwmH2oUrrZWv10dOm2cVXd4Ox/kWOo77flc+cXGQy6zXL67STsfzNj9bHnYhLmmclFjBfLLGw9vALAJKNgBAADAcLdl/G/fXP30wvzclasVBmBGfKC6b3VC4ybSZphEscMhjUkre5q2cmm73iA9r3HTdPfru7v9eLmTLeaqGzZuRO+4brzbzw+tvqe6QztvdN52me+z0X2lcVP/rybOAQCb1ZXV/67+bPHjidPGmcShjanBx+7h713croW7C9rz2XLpufK7Lf+Bj7nGgxi7nyV3P1/eol0f1rj1Mt9no7qkemn14uqbE2cBYI0p2AEAAMCwtxPsTqker1wHbCLbq7dXp1Y/Uz23ut2kiaa3pTpm8VqOy9pz+e6Kdr2xufTHB65M5E3piupF1e9kuggAzIJzq5+q/qh6WXXHaePMjJtW91i8luOS9lzAu7prL9HNrUzkTeWq6jXV8xqTrAHYhBTsAAAA2PS2nrR9rr0r2L2pesLC/NxyJxABbATbqtc1Jo88pfqN6laTJlp/Dlm8/HtbXZdUr65Oqs6ZOAsAcE3vaUwJflz1v6ofnDbOunWjxet7pw6ygZ1c/VZjejUAm9gBUwcAAACAGXDbxnq96/LGlOsAakxhe2ljbdRzGyutYBZ8szFZ5PuqX0m5DgBm2ZWNhzfuXD2q+sS0cWAX76ju3iiBKtcBoGAHAAAA1d2u5+//afVflOsAdnFx9ezGutj/WZ03bRw2sfMbn4O3a0wY+fq0cQCAZbi6ekv1I9WDq/dOG4dNbFv1+urY6ieqT04bB4BZomAHAAAA170e9nXVkxfm57atVRiAdeZb1e9VR1ZPqk6fNA2byVmNdcVHNj4Hvz1tHABgP2yv/qb6sepe1dumjcMm8p3qJdUdqidU/zRtHABmkYIdAAAAXHvB7rXVzynXAeyVKxql5GOqh1bvnzYOG9hnq8dXd6z+sLG2GADYOP6hemTjXPn6xmQxWGn/Wv16Ywryf6/+Zdo4AMwyBTsAAADYc8Huj6r/qlwHsGzbq7+uHthY9XVKY/UX7K+PVg9vrHZ/Y2V1OwBsbJ9tTBQ7unpldfm0cdggvlD9fHX76neqiyZNA8C6oGAHAADAprb1pO1bGhNwlnp19YsL83MKIQD75+PViY3/n31Fdem0cVin3l09qLpP9ZcpbALAZnNW9UuNQtTvZi08++bvG5MR79R4qNIUZAD2moIdAAAAm92d2/XPx6+snqpcB7CivlQ9rfp31VMbxTu4LpdWJ1f3rP5z9b7GdEQAYPM6v/rV6vuq36y+PG0c1oFvVC9tbC64X/W2PKwBwD5QsAMAAGCzW7oe9uXV05TrAFbNt6pXNVbH3rX6/cZNL6jaVr2zsQru1tXjqtMmTQQAzKKLqudXR1X3rl5WXThpImbJ9saZ8jHVbapfqT4zaSIA1j0FOwAAADa7HQW7P6i2LszPmY4DsDY+Uz2jcdPrxOpdmVC2WX2kenp1RHV89fqsfgMArt/26qPV1sY54iHVn1bfmTIUkzmrelZjwuHx1V9Ul0+aCIAN4wZTBwAAAICJ3bV6STWvXAcwicurUxav21ZPqn62uv10kVgDZ1RvaKyBtd4NANhfVzUe2HhXdaPqhMY03OOrgybMxeq6rHpz9X+q92X9KwCrRMEOAACATWvrSdvnqndXL1KuA5gJX62e11j5dVz1qOqRjeId6985jULdG6pPZ2IhALA6Lqn+bPG6RfXoRtnuAVOGYsVc3vheztuq/9dYGQwAq0rBDgAAgM1OuQ5m27erl6/ye3x9lV+f5bu6MYHifdV/q+7eKNo9srrLZKnYFxc1phO+sfpgpoqwdk5v9X//+MAqv/5a+Fqr/+/pi6v8+gDX5d+qVy9et60e2yjbHTtlKJbtm9VfVW9tTCm0Bnh2fbLVP1t8dJVffzX9TXXxKr+HsxesgrmpAwAAAAAALMPR1SMaZbv75Hucs+hLjTLdW6p3VldMGwcA4Bru1CjbPaj6kergaeOwB+c2CnVvrd5fXTltHAA2M998AgAAAADWq8OrE6qfrB5YbZk0zeZ1emOS1wcaxbpzp40DALAsWxolu+MWr/tUN5o00eb12ertjVLdJyobBwCYCQp2AAAAAMBGcHBjleyOG6P3q75n0kQb09WNtU87CnUfypplAGBjOahdz5X3z7lyNew4V36wnefKCydNBADXQsEOAAAAANiIDqyOaeeN0eOqwyZNtD5dUX2snYW6j1QXT5oIAGBtHVjdpZ1lu+OqW0+aaH26sl3PlR/OuRKAdULBDgAAAADYDOaqH2jn2q+7VHeuDpky1Aw6pzqjnZNEPlZdOmkiAIDZMlcd3c6HOO5Z3aG64ZShZtBZjZWvpzXOlf9QXTJpIgDYRwp2AAAAAMBmdWB1ZKNst/T6geoGE+ZaTduqs6szqy8tftxxnZUyHQDAvjigOqI6avH6/iU/Pqo6dLpoq+5rjSLd0utz1XemDAUAK0nBDgAAAABgVwdXd2yU7Y6pbt+4YXpEdZvqxpMl2ztXVF9uZ3FuaZHu7MZ6LgAA1sZcdVh7Lt59f3XL6aLtlW3V+dV51bmL1+caRbrTq29MFw0A1oaCHQAAAADA3purbtLOst0R7Vq+O7y6UbWlsX52y5IfH7wXr395Y9rHd/fwcU9/benHCxslunMbN0IBAJh9N28U7W7XmHR3aOOBjuV+vD5XN6YVX1pdttuPv9Eo0O0o0Z235LogZ0sANjkFOwAAAACAtXFgo2i3o3h3SGOd2NIC3VWTpQMAYL06oHG+vPHidXCjOLe0SHdVtX2qgAAAAAAAAAAAAAAAAAAAAAAAAAAAAAAAAAAAAAAAAAAAAAAAAAAAAAAAAAAAAAAAAAAAAAAAAAAAAAAAAAAAAAAAAAAAAAAAAAAAAAAAAAAAAAAAAAAAAAAAAAAAAAAAAAAAAAAAAAAAAAAAAAAAAAAAAAAAAAAAAAAAAAAAAAAAAAAAAAAAAAAAAAAAAAAAAAAAAAAAAAAAAAAAAAAAAAAAAAAAAAAAAAAAAAAAAAAAAAAAAAAAAAAAAAAAAAAAAAAAAAAAAAAAAAAAAAAAAAAAAAAAAAAAAAAAAAAAAAAAAAAAAAAAAAAAAAAAAAAAAAAAAAAAAAAAAAAAAAAAAAAAAAAAAAAAAAAAAAAAAAAAAAAAAAAAAAAAAAAAAAAAAAAAAAAAAAAAAAAAAAAAAAAAAAAAAAAAAAAAAAAAAAAAAAAAAAAAAAAAAAAAAAAAAAAAAAAAAAAAAAAAAAAAAAAAAAAAAAAAAAAAAAAAAAAAAAAAAAAAAAAAAAAAAAAAAAAAAAAAAAAAAAAAAAAAAAAAAAAAAAAAAAAAAAAAAAAAAAAAAAAAAAAAAAAAAAAAAAAAAAAAAAAAAAAAAAAAAAAAAAAAAAAAAAAAAAAAAAAAAAAAAAAAAAAAAAAAAAAAAAAAAAAAAAAAAAAAAAAAAAAAAAAAAAAAAAAAAAAAAAAAAAAAAAAAAAAAAAAAAAAAAAAAAAAAAAAAAAAAAAAAAAAAAAAAAAAAAAAAAAAAAAAAAAAAAAAAAAAAAAAAAAAAAAAAAAAAAAAAAAAAAAAAAAAAAAAAAAAAAAAAAAAAAAAAAAAAAAAAAAAAAAAAAAAAAAAAAAAAAAAAAAAAAAAAAAAAAAAAAAAAAAAAAAAAAAAAAAAAAAAAAAAAAAAAAAAAAAAAAAAAAAAAAAAAAAAAAAAAAAAAAAAAAAAAAAAAAAAAAAAAAAAAAAAAAAAAAAAAAAAAAAAAAAAAAAAAAAAAAAAAAAAAAAAAAAAAAAAAAAAAAAAAAAAAAAAAAAAAAAAAAAAAAAAAAAAAAAAAAAAAAAAAAAAAAAAAAAAAAAAAAAAAAAAAAAAAAAAAAAAAAAAAAAAAAAAAAAAAAAAAAAAAAAAAAAAAAAAAAAAAAAAAAAAAAAAAAAAAAAAAAAAAAAAAAAAAAAAAAAAAAAAAAAAAAAAAAAAAAAAAAAAAAAAAAAAAAAAAAAAAAAAAAAAAAAAAAAAAAAAAAAAAAAAAAAAAAAAAAAAAAAAAAAAAAAAAAAAAAAAAAAAAAAAAAAAAAAAAAAAAAAAAAAAAAAAAAAAAAAAAAAAAAAAAAAAAAAAAAAAAAAAAAAAAAAAAAAAAAAAAAAAAAAAAAAAAAAAAAAAAAAAAAAAAAAAAAAAAAAAAAAAAAAAAAAAAAAAAAAAAAAAAAAAAAAAAAAAAAAAAAAAAAAAAAAAAAAAAAAAAAAAAAAAAAAAAAAAAAAAAAAAAAAAAAAAAAAAAAAAAAAAAAAAAAAAAAAAAAAAAAAAAAAAAAAAAAAAAAAAAAAAAAAAAAAAAAAAAAAAAAAAAAAAAAAAAAAAAAAAAAAAAAAAAAAAAAAAAAAAAAAAAAAAAAAAAAAAAAAAAAAAAAAAAAAAAAAAAAAAAAAAAAAAAAAAAAAAAAAAAAAAAAAAAAAAAAAAAAAAAAAAAAAAAAAAAAAAAAAAAAAAAAAAAAAAAAAAAAAAAAAAAAAAAAAAAAAAAAAAAAAAAAAAAAAAAAAAAAAAAAAAAAAAAAAAAAAAAAAAAAAAAAAAAAAAAAAAAAAAAAAAAAAAAAAAAAAAAAAAAAAAAAAAAAAAAAAAAAAAAAADs9P8BKKOHY/UJZbgAAAAASUVORK5CYII=;" vertex="1" parent="1">
          <mxGeometry x="860" y="680" width="310" height="132.94" as="geometry" />
        </mxCell>
      </root>
    </mxGraphModel>
  </diagram>
</mxfile>
